  0
SECTION
  2
HEADER
  9
$ACADVER
  1
AC1006
  9
$EXTMIN
 10
0.000000
 20
0.000000
 30
0.000000
  9
$EXTMAX
 10
2221.000000
 20
2221.000000
 30
0.000000
  0
ENDSEC
  0
SECTION
  2
ENTITIES
  0
POLYLINE
  8
0
 66
1
 70
1
  0
VERTEX
  8
0
 10
1059.000000
 20
2218.366879
 42
0.019523
  0
VERTEX
  8
0
 10
960.439672
 20
2209.002574
 42
0.021668
  0
VERTEX
  8
0
 10
866.317740
 20
2192.157331
 42
0.021962
  0
VERTEX
  8
0
 10
775.165024
 20
2167.484322
 42
0.021249
  0
VERTEX
  8
0
 10
685.500000
 20
2134.677575
 42
0.066797
  0
VERTEX
  8
0
 10
430.863883
 20
1986.628869
 42
0.066658
  0
VERTEX
  8
0
 10
224.064073
 20
1776.595526
 42
0.066675
  0
VERTEX
  8
0
 10
79.851756
 20
1519.604483
 42
0.066889
  0
VERTEX
  8
0
 10
8.554588
 20
1234.000000
 42
0.004628
  0
VERTEX
  8
0
 10
5.250638
 20
1201.656908
 42
0.010991
  0
VERTEX
  8
0
 10
3.545476
 20
1177.532127
 42
0.009469
  0
VERTEX
  8
0
 10
2.768428
 20
1151.328898
 42
0.002677
  0
VERTEX
  8
0
 10
2.549817
 20
1110.500000
 42
0.002677
  0
VERTEX
  8
0
 10
2.768428
 20
1069.671102
 42
0.009469
  0
VERTEX
  8
0
 10
3.545476
 20
1043.467873
 42
0.010991
  0
VERTEX
  8
0
 10
5.250638
 20
1019.343092
 42
0.004628
  0
VERTEX
  8
0
 10
8.554588
 20
987.000000
 42
0.046498
  0
VERTEX
  8
0
 10
50.089158
 20
786.216953
 42
0.046378
  0
VERTEX
  8
0
 10
128.033331
 20
596.384157
 42
0.046352
  0
VERTEX
  8
0
 10
239.682652
 20
424.072806
 42
0.046334
  0
VERTEX
  8
0
 10
381.176866
 20
275.253816
 42
0.038168
  0
VERTEX
  8
0
 10
516.322379
 20
174.269662
 42
0.038145
  0
VERTEX
  8
0
 10
665.273935
 20
94.979102
 42
0.038106
  0
VERTEX
  8
0
 10
824.693363
 20
39.169926
 42
0.037917
  0
VERTEX
  8
0
 10
991.000000
 20
8.086819
 42
0.004938
  0
VERTEX
  8
0
 10
1021.341164
 20
5.070250
 42
0.010730
  0
VERTEX
  8
0
 10
1044.697925
 20
3.485149
 42
0.009005
  0
VERTEX
  8
0
 10
1070.478379
 20
2.755575
 42
0.002571
  0
VERTEX
  8
0
 10
1110.500000
 20
2.549817
 42
0.002559
  0
VERTEX
  8
0
 10
1150.494155
 20
2.754533
 42
0.008999
  0
VERTEX
  8
0
 10
1176.220924
 20
3.481093
 42
0.010700
  0
VERTEX
  8
0
 10
1199.562923
 20
5.062123
 42
0.004872
  0
VERTEX
  8
0
 10
1230.000000
 20
8.078317
 42
0.032667
  0
VERTEX
  8
0
 10
1373.312406
 20
33.244112
 42
0.032841
  0
VERTEX
  8
0
 10
1511.864540
 20
76.832799
 42
0.032832
  0
VERTEX
  8
0
 10
1643.550661
 20
138.201446
 42
0.032611
  0
VERTEX
  8
0
 10
1766.382390
 20
216.403079
 42
0.014044
  0
VERTEX
  8
0
 10
1814.232960
 20
253.557237
 42
0.013680
  0
VERTEX
  8
0
 10
1860.352892
 20
293.655445
 42
0.013646
  0
VERTEX
  8
0
 10
1904.326954
 20
336.322778
 42
0.013793
  0
VERTEX
  8
0
 10
1945.746184
 20
381.176866
 42
0.038195
  0
VERTEX
  8
0
 10
2046.737792
 20
516.347815
 42
0.038115
  0
VERTEX
  8
0
 10
2126.073010
 20
665.400870
 42
0.038092
  0
VERTEX
  8
0
 10
2181.902538
 20
824.858025
 42
0.038048
  0
VERTEX
  8
0
 10
2212.921683
 20
991.000000
 42
0.004872
  0
VERTEX
  8
0
 10
2215.937877
 20
1021.437077
 42
0.010700
  0
VERTEX
  8
0
 10
2217.518907
 20
1044.779076
 42
0.008999
  0
VERTEX
  8
0
 10
2218.245467
 20
1070.505845
 42
0.002559
  0
VERTEX
  8
0
 10
2218.450183
 20
1110.500000
 42
0.002559
  0
VERTEX
  8
0
 10
2218.245467
 20
1150.494155
 42
0.008999
  0
VERTEX
  8
0
 10
2217.518907
 20
1176.220924
 42
0.010700
  0
VERTEX
  8
0
 10
2215.937877
 20
1199.562923
 42
0.004872
  0
VERTEX
  8
0
 10
2212.921683
 20
1230.000000
 42
0.038034
  0
VERTEX
  8
0
 10
2181.906187
 20
1396.148035
 42
0.038105
  0
VERTEX
  8
0
 10
2126.092860
 20
1555.574099
 42
0.038124
  0
VERTEX
  8
0
 10
2046.764599
 20
1704.608680
 42
0.038158
  0
VERTEX
  8
0
 10
1945.748934
 20
1839.823134
 42
0.027195
  0
VERTEX
  8
0
 10
1861.728848
 20
1926.076171
 42
0.027036
  0
VERTEX
  8
0
 10
1768.684757
 20
2002.880619
 42
0.027095
  0
VERTEX
  8
0
 10
1668.104789
 20
2069.042389
 42
0.027601
  0
VERTEX
  8
0
 10
1561.565806
 20
2123.492875
 42
0.020962
  0
VERTEX
  8
0
 10
1472.554743
 20
2158.568086
 42
0.021765
  0
VERTEX
  8
0
 10
1382.018792
 20
2185.578274
 42
0.021578
  0
VERTEX
  8
0
 10
1288.736352
 20
2204.804205
 42
0.019843
  0
VERTEX
  8
0
 10
1191.500000
 20
2216.571170
 42
0.014940
  0
VERTEX
  8
0
 10
1170.577396
 20
2217.636411
 42
0.001860
  0
VERTEX
  8
0
 10
1125.053993
 20
2218.422755
 42
0.001829
  0
VERTEX
  8
0
 10
1079.490258
 20
2218.873585
 42
0.015482
  0
SEQEND
  0
POLYLINE
  8
0
 66
1
 70
1
  0
VERTEX
  8
0
 10
1189.500000
 20
2213.566404
 42
-0.020725
  0
VERTEX
  8
0
 10
1289.359648
 20
2201.555314
 42
-0.022292
  0
VERTEX
  8
0
 10
1385.450974
 20
2181.503172
 42
-0.022465
  0
VERTEX
  8
0
 10
1478.687344
 20
2153.148930
 42
-0.021775
  0
VERTEX
  8
0
 10
1570.000000
 20
2116.286261
 42
-0.027615
  0
VERTEX
  8
0
 10
1675.339433
 20
2061.117101
 42
-0.026903
  0
VERTEX
  8
0
 10
1774.917591
 20
1994.233564
 42
-0.026849
  0
VERTEX
  8
0
 10
1866.930771
 20
1916.899420
 42
-0.027235
  0
VERTEX
  8
0
 10
1949.663223
 20
1830.500000
 42
-0.037133
  0
VERTEX
  8
0
 10
2046.917039
 20
1698.513849
 42
-0.037176
  0
VERTEX
  8
0
 10
2123.536076
 20
1553.642883
 42
-0.037143
  0
VERTEX
  8
0
 10
2177.912726
 20
1398.896225
 42
-0.036923
  0
VERTEX
  8
0
 10
2208.927464
 20
1237.500000
 42
-0.013063
  0
VERTEX
  8
0
 10
2213.746535
 20
1184.048713
 42
-0.011907
  0
VERTEX
  8
0
 10
2215.958785
 20
1128.740764
 42
-0.011892
  0
VERTEX
  8
0
 10
2215.536464
 20
1073.312543
 42
-0.012932
  0
VERTEX
  8
0
 10
2212.451511
 20
1019.500000
 42
-0.032582
  0
VERTEX
  8
0
 10
2190.967635
 20
875.665940
 42
-0.032941
  0
VERTEX
  8
0
 10
2151.026030
 20
736.381630
 42
-0.032943
  0
VERTEX
  8
0
 10
2093.140834
 20
603.559137
 42
-0.032598
  0
VERTEX
  8
0
 10
2018.133072
 20
479.000000
 42
-0.023714
  0
VERTEX
  8
0
 10
1955.133350
 20
396.917214
 42
-0.023450
  0
VERTEX
  8
0
 10
1884.420174
 20
320.848290
 42
-0.023409
  0
VERTEX
  8
0
 10
1806.764888
 20
251.608805
 42
-0.023430
  0
VERTEX
  8
0
 10
1723.000000
 20
189.954230
 42
-0.031627
  0
VERTEX
  8
0
 10
1602.616163
 20
120.317932
 42
-0.031545
  0
VERTEX
  8
0
 10
1474.308583
 20
66.353929
 42
-0.031506
  0
VERTEX
  8
0
 10
1340.073181
 20
28.904778
 42
-0.031368
  0
VERTEX
  8
0
 10
1202.000000
 20
8.551299
 42
-0.005951
  0
VERTEX
  8
0
 10
1176.026317
 20
6.684779
 42
-0.007339
  0
VERTEX
  8
0
 10
1151.770797
 20
5.588674
 42
-0.006814
  0
VERTEX
  8
0
 10
1126.081125
 20
5.155659
 42
-0.004109
  0
VERTEX
  8
0
 10
1095.621581
 20
5.307699
 42
-0.002172
  0
VERTEX
  8
0
 10
1067.727001
 20
5.797390
 42
-0.006549
  0
VERTEX
  8
0
 10
1048.716640
 20
6.462934
 42
-0.007380
  0
VERTEX
  8
0
 10
1030.987539
 20
7.578748
 42
-0.003424
  0
VERTEX
  8
0
 10
1008.000000
 20
9.524972
 42
-0.039078
  0
VERTEX
  8
0
 10
840.949313
 20
38.102059
 42
-0.038386
  0
VERTEX
  8
0
 10
679.339295
 20
92.426423
 42
-0.038338
  0
VERTEX
  8
0
 10
527.743994
 20
170.896394
 42
-0.038763
  0
VERTEX
  8
0
 10
390.500000
 20
271.336777
 42
-0.016442
  0
VERTEX
  8
0
 10
337.830880
 20
319.635794
 42
-0.015911
  0
VERTEX
  8
0
 10
287.850892
 20
371.806721
 42
-0.015951
  0
VERTEX
  8
0
 10
241.414963
 20
426.911205
 42
-0.016744
  0
VERTEX
  8
0
 10
199.365200
 20
484.000000
 42
-0.034133
  0
VERTEX
  8
0
 10
121.609649
 20
615.762064
 42
-0.034810
  0
VERTEX
  8
0
 10
63.080619
 20
756.033231
 42
-0.034713
  0
VERTEX
  8
0
 10
24.448324
 20
903.445959
 42
-0.033536
  0
VERTEX
  8
0
 10
6.014705
 20
1056.500000
 42
-0.010665
  0
VERTEX
  8
0
 10
4.968835
 20
1089.706891
 42
-0.006906
  0
VERTEX
  8
0
 10
5.109365
 20
1128.149755
 42
-0.006855
  0
VERTEX
  8
0
 10
6.324725
 20
1167.120755
 42
-0.009504
  0
VERTEX
  8
0
 10
8.556325
 20
1202.000000
 42
-0.043356
  0
VERTEX
  8
0
 10
40.884495
 20
1390.830298
 42
-0.043401
  0
VERTEX
  8
0
 10
105.285477
 20
1571.188356
 42
-0.043442
  0
VERTEX
  8
0
 10
199.782008
 20
1737.562936
 42
-0.043618
  0
VERTEX
  8
0
 10
321.491327
 20
1884.864197
 42
-0.011750
  0
VERTEX
  8
0
 10
363.635795
 20
1925.694818
 42
-0.013503
  0
VERTEX
  8
0
 10
405.785722
 20
1962.593230
 42
-0.013618
  0
VERTEX
  8
0
 10
449.540466
 20
1996.890901
 42
-0.012370
  0
VERTEX
  8
0
 10
496.500000
 20
2029.911419
 42
-0.032941
  0
VERTEX
  8
0
 10
625.234302
 20
2104.005560
 42
-0.033925
  0
VERTEX
  8
0
 10
761.348144
 20
2159.728851
 42
-0.033777
  0
VERTEX
  8
0
 10
904.317085
 20
2196.725742
 42
-0.032051
  0
VERTEX
  8
0
 10
1053.500000
 20
2214.958375
 42
-0.013991
  0
VERTEX
  8
0
 10
1078.273181
 20
2215.690728
 42
-0.002952
  0
VERTEX
  8
0
 10
1121.547336
 20
2215.503322
 42
-0.002948
  0
VERTEX
  8
0
 10
1164.811863
 20
2214.805386
 42
-0.014059
  0
SEQEND
  0
POLYLINE
  8
0
 66
1
 70
1
  0
VERTEX
  8
0
 10
1082.000000
 20
1984.942911
 42
0.018998
  0
VERTEX
  8
0
 10
1015.244668
 20
1980.218107
 42
0.018176
  0
VERTEX
  8
0
 10
948.039531
 20
1970.404606
 42
0.018066
  0
VERTEX
  8
0
 10
881.314135
 20
1955.660391
 42
0.018202
  0
VERTEX
  8
0
 10
815.995428
 20
1936.168347
 42
0.024903
  0
VERTEX
  8
0
 10
735.521405
 20
1904.380321
 42
0.025581
  0
VERTEX
  8
0
 10
659.346354
 20
1864.998895
 42
0.025746
  0
VERTEX
  8
0
 10
588.053216
 20
1818.312902
 42
0.025994
  0
VERTEX
  8
0
 10
522.174435
 20
1764.686312
 42
0.010739
  0
VERTEX
  8
0
 10
507.159581
 20
1750.509856
 42
0.004412
  0
VERTEX
  8
0
 10
487.388204
 20
1730.675531
 42
0.004375
  0
VERTEX
  8
0
 10
468.112839
 20
1710.646849
 42
0.011824
  0
VERTEX
  8
0
 10
454.897566
 20
1695.993378
 42
0.012679
  0
VERTEX
  8
0
 10
424.043050
 20
1658.213395
 42
0.016891
  0
VERTEX
  8
0
 10
398.089391
 20
1622.293863
 42
0.013716
  0
VERTEX
  8
0
 10
370.900027
 20
1579.355900
 42
0.005198
  0
VERTEX
  8
0
 10
335.224912
 20
1518.000000
 42
0.035718
  0
VERTEX
  8
0
 10
288.101070
 20
1419.153203
 42
0.033859
  0
VERTEX
  8
0
 10
254.542397
 20
1312.842744
 42
0.033792
  0
VERTEX
  8
0
 10
235.587573
 20
1202.760746
 42
0.035235
  0
VERTEX
  8
0
 10
232.006478
 20
1092.668624
 42
0.016761
  0
VERTEX
  8
0
 10
236.568699
 20
1028.919428
 42
0.018297
  0
VERTEX
  8
0
 10
245.325505
 20
967.470842
 42
0.018216
  0
VERTEX
  8
0
 10
258.595262
 20
906.579566
 42
0.016310
  0
VERTEX
  8
0
 10
276.689700
 20
844.500000
 42
0.023124
  0
VERTEX
  8
0
 10
307.750922
 20
762.593346
 42
0.024556
  0
VERTEX
  8
0
 10
345.699288
 20
685.576871
 42
0.024425
  0
VERTEX
  8
0
 10
391.221469
 20
612.278747
 42
0.022363
  0
VERTEX
  8
0
 10
444.951497
 20
541.500000
 42
0.012419
  0
VERTEX
  8
0
 10
472.411863
 20
510.119412
 42
0.010970
  0
VERTEX
  8
0
 10
502.530755
 20
478.786670
 42
0.011045
  0
VERTEX
  8
0
 10
533.746630
 20
449.050833
 42
0.013176
  0
VERTEX
  8
0
 10
564.500000
 20
422.473656
 42
0.036256
  0
VERTEX
  8
0
 10
665.785215
 20
351.100965
 42
0.037760
  0
VERTEX
  8
0
 10
774.988309
 20
296.193098
 42
0.037931
  0
VERTEX
  8
0
 10
890.732833
 20
258.531809
 42
0.037291
  0
VERTEX
  8
0
 10
1011.500000
 20
238.520966
 42
0.007500
  0
VERTEX
  8
0
 10
1032.711841
 20
236.934337
 42
0.006056
  0
VERTEX
  8
0
 10
1055.531551
 20
235.848449
 42
0.005358
  0
VERTEX
  8
0
 10
1081.053885
 20
235.217350
 42
0.003502
  0
VERTEX
  8
0
 10
1110.500000
 20
235.011127
 42
0.003502
  0
VERTEX
  8
0
 10
1139.946115
 20
235.217350
 42
0.005358
  0
VERTEX
  8
0
 10
1165.468449
 20
235.848449
 42
0.006056
  0
VERTEX
  8
0
 10
1188.288159
 20
236.934337
 42
0.007500
  0
VERTEX
  8
0
 10
1209.500000
 20
238.520966
 42
0.036683
  0
VERTEX
  8
0
 10
1328.096491
 20
258.024360
 42
0.037080
  0
VERTEX
  8
0
 10
1442.128685
 20
294.608948
 42
0.037017
  0
VERTEX
  8
0
 10
1549.686846
 20
347.708233
 42
0.036286
  0
VERTEX
  8
0
 10
1649.000000
 20
416.400757
 42
0.006017
  0
VERTEX
  8
0
 10
1667.169074
 20
431.386880
 42
0.008621
  0
VERTEX
  8
0
 10
1682.880052
 20
445.137715
 42
0.007962
  0
VERTEX
  8
0
 10
1699.003210
 20
460.222280
 42
0.004187
  0
VERTEX
  8
0
 10
1718.581890
 20
479.452822
 42
0.005515
  0
VERTEX
  8
0
 10
1742.576597
 20
503.953507
 42
0.009402
  0
VERTEX
  8
0
 10
1762.006071
 20
525.014245
 42
0.010081
  0
VERTEX
  8
0
 10
1779.659630
 20
545.712841
 42
0.007736
  0
VERTEX
  8
0
 10
1798.129239
 20
569.000000
 42
0.015424
  0
VERTEX
  8
0
 10
1836.994800
 20
622.957802
 42
0.018480
  0
VERTEX
  8
0
 10
1870.057448
 20
676.115808
 42
0.018719
  0
VERTEX
  8
0
 10
1898.754972
 20
730.966698
 42
0.016624
  0
VERTEX
  8
0
 10
1924.507431
 20
790.000000
 42
0.043970
  0
VERTEX
  8
0
 10
1972.027910
 20
949.116771
 42
0.047494
  0
VERTEX
  8
0
 10
1989.376917
 20
1110.002699
 42
0.048430
  0
VERTEX
  8
0
 10
1975.994628
 20
1268.407515
 42
0.049399
  0
VERTEX
  8
0
 10
1932.386942
 20
1420.181096
 42
0.008840
  0
VERTEX
  8
0
 10
1920.739446
 20
1448.026006
 42
0.009630
  0
VERTEX
  8
0
 10
1908.428208
 20
1474.650609
 42
0.009452
  0
VERTEX
  8
0
 10
1894.888161
 20
1501.221714
 42
0.007905
  0
VERTEX
  8
0
 10
1879.545399
 20
1528.910729
 42
0.000018
  0
VERTEX
  8
0
 10
1874.521394
 20
1537.648040
 42
0.000012
  0
VERTEX
  8
0
 10
1868.717999
 20
1547.739402
 42
0.000012
  0
VERTEX
  8
0
 10
1863.055168
 20
1557.585264
 42
0.000023
  0
VERTEX
  8
0
 10
1858.502297
 20
1565.500000
 42
0.060723
  0
VERTEX
  8
0
 10
1735.725275
 20
1729.251877
 42
0.063190
  0
VERTEX
  8
0
 10
1578.698103
 20
1856.215294
 42
0.062162
  0
VERTEX
  8
0
 10
1392.533745
 20
1941.493140
 42
0.055673
  0
VERTEX
  8
0
 10
1184.000000
 20
1982.497653
 42
0.007930
  0
VERTEX
  8
0
 10
1167.914222
 20
1983.578055
 42
0.002020
  0
VERTEX
  8
0
 10
1141.804268
 20
1984.810443
 42
0.001200
  0
VERTEX
  8
0
 10
1115.167932
 20
1985.895840
 42
0.023787
  0
VERTEX
  8
0
 10
1107.000000
 20
1985.820385
 42
-0.005234
  0
VERTEX
  8
0
 10
1105.238722
 20
1985.738717
 42
-0.000196
  0
VERTEX
  8
0
 10
1098.625000
 20
1985.503986
 42
-0.000355
  0
VERTEX
  8
0
 10
1090.801839
 20
1985.234955
 42
-0.000249
  0
SEQEND
  0
POLYLINE
  8
0
 66
1
 70
1
  0
VERTEX
  8
0
 10
1086.000000
 20
1981.581530
 42
-0.305530
  0
VERTEX
  8
0
 10
1085.853690
 20
1981.364446
 42
-0.003001
  0
VERTEX
  8
0
 10
1084.017188
 20
1980.633681
 42
-0.008481
  0
VERTEX
  8
0
 10
1081.837773
 20
1979.823923
 42
-0.005238
  0
VERTEX
  8
0
 10
1079.250000
 20
1978.942447
 42
0.054087
  0
VERTEX
  8
0
 10
1044.249915
 20
1963.064233
 42
0.035163
  0
VERTEX
  8
0
 10
1007.670840
 20
1937.809726
 42
0.033214
  0
VERTEX
  8
0
 10
972.546149
 20
1905.675796
 42
0.032853
  0
VERTEX
  8
0
 10
941.847403
 20
1869.061968
 42
0.026532
  0
VERTEX
  8
0
 10
922.921791
 20
1840.113169
 42
0.031410
  0
VERTEX
  8
0
 10
908.317806
 20
1810.869908
 42
0.033761
  0
VERTEX
  8
0
 10
898.385819
 20
1782.142580
 42
0.043854
  0
VERTEX
  8
0
 10
893.464108
 20
1754.741229
 42
0.000000
  0
VERTEX
  8
0
 10
892.763381
 20
1746.982458
 42
0.000000
  0
VERTEX
  8
0
 10
879.131690
 20
1739.441324
 42
-0.009107
  0
VERTEX
  8
0
 10
859.990498
 20
1729.303133
 42
-0.002908
  0
VERTEX
  8
0
 10
831.162078
 20
1714.910147
 42
-0.002979
  0
VERTEX
  8
0
 10
801.730647
 20
1700.646474
 42
-0.007363
  0
VERTEX
  8
0
 10
779.937301
 20
1690.635736
 42
-0.016263
  0
VERTEX
  8
0
 10
687.835144
 20
1653.490484
 42
-0.018050
  0
VERTEX
  8
0
 10
596.633157
 20
1623.799228
 42
-0.019468
  0
VERTEX
  8
0
 10
513.491407
 20
1603.478883
 42
-0.039569
  0
VERTEX
  8
0
 10
446.750000
 20
1595.317532
 42
0.003921
  0
VERTEX
  8
0
 10
439.333627
 20
1594.943259
 42
0.018679
  0
VERTEX
  8
0
 10
435.109443
 20
1594.538112
 42
0.026732
  0
VERTEX
  8
0
 10
432.559305
 20
1594.057121
 42
0.345579
  0
VERTEX
  8
0
 10
432.000000
 20
1593.344533
 42
0.427604
  0
VERTEX
  8
0
 10
434.089335
 20
1591.348163
 42
0.006286
  0
VERTEX
  8
0
 10
452.927908
 20
1592.443359
 42
0.013366
  0
VERTEX
  8
0
 10
474.902980
 20
1594.589905
 42
0.009977
  0
VERTEX
  8
0
 10
499.000000
 20
1598.085410
 42
0.021023
  0
VERTEX
  8
0
 10
562.520455
 20
1611.362003
 42
0.014836
  0
VERTEX
  8
0
 10
632.659935
 20
1631.360591
 42
0.013997
  0
VERTEX
  8
0
 10
706.315704
 20
1657.036157
 42
0.012888
  0
VERTEX
  8
0
 10
780.500000
 20
1687.459139
 42
0.007165
  0
VERTEX
  8
0
 10
802.319672
 20
1697.447282
 42
0.003114
  0
VERTEX
  8
0
 10
831.042424
 20
1711.316475
 42
0.003052
  0
VERTEX
  8
0
 10
859.119034
 20
1725.303228
 42
0.008911
  0
VERTEX
  8
0
 10
878.255717
 20
1735.414940
 42
-0.000972
  0
VERTEX
  8
0
 10
883.553760
 20
1738.322920
 42
-0.001576
  0
VERTEX
  8
0
 10
888.069958
 20
1740.771889
 42
-0.000207
  0
VERTEX
  8
0
 10
892.095136
 20
1742.936046
 42
-0.123853
  0
VERTEX
  8
0
 10
892.349360
 20
1743.000000
 42
-0.395630
  0
VERTEX
  8
0
 10
892.493171
 20
1742.865092
 42
-0.000431
  0
VERTEX
  8
0
 10
892.782957
 20
1738.271345
 42
-0.003270
  0
VERTEX
  8
0
 10
893.072153
 20
1733.074993
 42
-0.001964
  0
VERTEX
  8
0
 10
893.350900
 20
1726.902450
 42
0.016920
  0
VERTEX
  8
0
 10
895.768367
 20
1694.746525
 42
0.012438
  0
VERTEX
  8
0
 10
900.535104
 20
1659.320255
 42
0.011665
  0
VERTEX
  8
0
 10
907.473724
 20
1621.608085
 42
0.010217
  0
VERTEX
  8
0
 10
916.443443
 20
1582.546406
 42
-0.002994
  0
VERTEX
  8
0
 10
919.014917
 20
1572.045867
 42
-0.011242
  0
VERTEX
  8
0
 10
920.440229
 20
1565.413790
 42
-0.009064
  0
VERTEX
  8
0
 10
921.231586
 20
1560.833348
 42
-0.301185
  0
VERTEX
  8
0
 10
920.786336
 20
1559.867948
 42
-0.076697
  0
VERTEX
  8
0
 10
915.672228
 20
1557.702844
 42
-0.003004
  0
VERTEX
  8
0
 10
895.797992
 20
1552.810257
 42
-0.005788
  0
VERTEX
  8
0
 10
874.011951
 20
1547.851619
 42
-0.006555
  0
VERTEX
  8
0
 10
853.000000
 20
1543.611783
 42
-0.008776
  0
VERTEX
  8
0
 10
822.061438
 20
1538.350378
 42
-0.008278
  0
VERTEX
  8
0
 10
790.350260
 20
1534.064470
 42
-0.007232
  0
VERTEX
  8
0
 10
754.799493
 20
1530.378255
 42
-0.004196
  0
VERTEX
  8
0
 10
712.000000
 20
1526.927007
 42
-0.014082
  0
VERTEX
  8
0
 10
687.143051
 20
1525.834851
 42
-0.002258
  0
VERTEX
  8
0
 10
638.556845
 20
1525.289138
 42
-0.002498
  0
VERTEX
  8
0
 10
589.706031
 20
1525.205141
 42
-0.010151
  0
VERTEX
  8
0
 10
559.983410
 20
1525.906076
 42
-0.006563
  0
VERTEX
  8
0
 10
509.955474
 20
1528.760980
 42
-0.008292
  0
VERTEX
  8
0
 10
463.787052
 20
1532.774449
 42
-0.008648
  0
VERTEX
  8
0
 10
419.469802
 20
1538.144802
 42
-0.008455
  0
VERTEX
  8
0
 10
375.028690
 20
1545.079558
 42
-0.001746
  0
VERTEX
  8
0
 10
368.301674
 20
1546.270313
 42
-0.002798
  0
VERTEX
  8
0
 10
362.570227
 20
1547.338654
 42
-0.000546
  0
VERTEX
  8
0
 10
357.532982
 20
1548.312506
 42
-0.149430
  0
VERTEX
  8
0
 10
357.151080
 20
1548.515587
 42
-0.343288
  0
VERTEX
  8
0
 10
356.935477
 20
1550.244944
 42
-0.000844
  0
VERTEX
  8
0
 10
370.540452
 20
1572.991884
 42
-0.005280
  0
VERTEX
  8
0
 10
384.314569
 20
1595.394101
 42
-0.007234
  0
VERTEX
  8
0
 10
397.211906
 20
1615.239504
 42
-0.044657
  0
VERTEX
  8
0
 10
486.827048
 20
1726.054053
 42
-0.044440
  0
VERTEX
  8
0
 10
594.830457
 20
1819.394391
 42
-0.043935
  0
VERTEX
  8
0
 10
718.854511
 20
1893.076262
 42
-0.041650
  0
VERTEX
  8
0
 10
856.047512
 20
1945.500701
 42
-0.015552
  0
VERTEX
  8
0
 10
908.864455
 20
1959.023481
 42
-0.014541
  0
VERTEX
  8
0
 10
963.613619
 20
1969.579304
 42
-0.014366
  0
VERTEX
  8
0
 10
1019.568557
 20
1977.045957
 42
-0.014259
  0
VERTEX
  8
0
 10
1076.000000
 20
1981.309597
 42
0.001545
  0
VERTEX
  8
0
 10
1078.616918
 20
1981.440512
 42
0.001796
  0
VERTEX
  8
0
 10
1081.104687
 20
1981.581634
 42
0.001594
  0
VERTEX
  8
0
 10
1083.209112
 20
1981.715330
 42
0.010757
  0
VERTEX
  8
0
 10
1084.250000
 20
1981.807320
 42
-0.022324
  0
VERTEX
  8
0
 10
1084.920851
 20
1981.851001
 42
-0.037190
  0
VERTEX
  8
0
 10
1085.485938
 20
1981.820475
 42
-0.044309
  0
VERTEX
  8
0
 10
1085.890094
 20
1981.731424
 42
-0.327333
  0
SEQEND
  0
POLYLINE
  8
0
 66
1
 70
1
  0
VERTEX
  8
0
 10
1111.000000
 20
1567.849962
 42
0.000000
  0
VERTEX
  8
0
 10
1111.000000
 20
1153.699923
 42
0.000000
  0
VERTEX
  8
0
 10
1107.804254
 20
1158.099962
 42
-0.008335
  0
VERTEX
  8
0
 10
1105.910771
 20
1160.800542
 42
-0.001081
  0
VERTEX
  8
0
 10
1101.977155
 20
1166.641864
 42
-0.001260
  0
VERTEX
  8
0
 10
1097.342521
 20
1173.594232
 42
-0.001053
  0
VERTEX
  8
0
 10
1092.454967
 20
1181.000000
 42
-0.028208
  0
VERTEX
  8
0
 10
1032.399734
 20
1284.720507
 42
-0.021445
  0
VERTEX
  8
0
 10
978.163681
 20
1404.379533
 42
-0.021497
  0
VERTEX
  8
0
 10
934.541390
 20
1527.821034
 42
-0.028967
  0
VERTEX
  8
0
 10
906.521280
 20
1642.928576
 42
-0.007558
  0
VERTEX
  8
0
 10
901.977263
 20
1670.092224
 42
-0.011590
  0
VERTEX
  8
0
 10
898.944552
 20
1693.757635
 42
-0.012700
  0
VERTEX
  8
0
 10
897.202146
 20
1715.801789
 42
-0.012539
  0
VERTEX
  8
0
 10
896.571498
 20
1738.000000
 42
-0.011434
  0
VERTEX
  8
0
 10
896.893447
 20
1754.473879
 42
-0.025978
  0
VERTEX
  8
0
 10
898.066278
 20
1766.867549
 42
-0.027903
  0
VERTEX
  8
0
 10
900.454349
 20
1778.523366
 42
-0.015299
  0
VERTEX
  8
0
 10
904.601911
 20
1792.500000
 42
-0.047212
  0
VERTEX
  8
0
 10
921.965300
 20
1832.078729
 42
-0.035167
  0
VERTEX
  8
0
 10
948.040247
 20
1872.044686
 42
-0.033975
  0
VERTEX
  8
0
 10
980.634434
 20
1909.485101
 42
-0.035604
  0
VERTEX
  8
0
 10
1017.522255
 20
1941.538070
 42
-0.025692
  0
VERTEX
  8
0
 10
1041.460935
 20
1957.664696
 42
-0.030813
  0
VERTEX
  8
0
 10
1065.554139
 20
1970.203356
 42
-0.033963
  0
VERTEX
  8
0
 10
1088.335209
 20
1978.528018
 42
-0.058307
  0
VERTEX
  8
0
 10
1108.250000
 20
1981.863818
 42
0.000000
  0
VERTEX
  8
0
 10
1111.000000
 20
1982.000000
 42
0.000000
  0
SEQEND
  0
POLYLINE
  8
0
 66
1
 70
1
  0
VERTEX
  8
0
 10
1128.065238
 20
1980.382269
 42
-0.045951
  0
VERTEX
  8
0
 10
1148.490467
 20
1974.905989
 42
-0.029955
  0
VERTEX
  8
0
 10
1170.858036
 20
1965.086307
 42
-0.027329
  0
VERTEX
  8
0
 10
1194.182233
 20
1951.476065
 42
-0.022480
  0
VERTEX
  8
0
 10
1217.513360
 20
1934.542992
 42
-0.021229
  0
VERTEX
  8
0
 10
1229.244589
 20
1924.352757
 42
-0.007391
  0
VERTEX
  8
0
 10
1245.278892
 20
1908.728335
 42
-0.007439
  0
VERTEX
  8
0
 10
1260.905201
 20
1892.570760
 42
-0.020057
  0
VERTEX
  8
0
 10
1271.358237
 20
1880.500000
 42
-0.024407
  0
VERTEX
  8
0
 10
1291.174890
 20
1853.021067
 42
-0.027158
  0
VERTEX
  8
0
 10
1307.466046
 20
1824.678456
 42
-0.028892
  0
VERTEX
  8
0
 10
1319.648615
 20
1796.618789
 42
-0.039045
  0
VERTEX
  8
0
 10
1327.124323
 20
1770.000000
 42
-0.048429
  0
VERTEX
  8
0
 10
1329.575602
 20
1745.309870
 42
-0.019284
  0
VERTEX
  8
0
 10
1328.336229
 20
1711.265580
 42
-0.017441
  0
VERTEX
  8
0
 10
1323.950871
 20
1671.497989
 42
-0.013452
  0
VERTEX
  8
0
 10
1316.498638
 20
1628.500000
 42
-0.024648
  0
VERTEX
  8
0
 10
1290.436766
 20
1525.488197
 42
-0.019214
  0
VERTEX
  8
0
 10
1252.410686
 20
1416.434367
 42
-0.019058
  0
VERTEX
  8
0
 10
1205.671703
 20
1309.495081
 42
-0.022799
  0
VERTEX
  8
0
 10
1153.383877
 20
1212.806862
 42
-0.007090
  0
VERTEX
  8
0
 10
1143.925928
 20
1197.569729
 42
-0.003053
  0
VERTEX
  8
0
 10
1130.903264
 20
1177.509589
 42
-0.000634
  0
VERTEX
  8
0
 10
1116.981753
 20
1156.407221
 42
-0.108619
  0
VERTEX
  8
0
 10
1115.040635
 20
1154.525114
 42
-0.587230
  0
VERTEX
  8
0
 10
1114.166823
 20
1155.012030
 42
-0.000003
  0
VERTEX
  8
0
 10
1113.978204
 20
1567.220987
 42
-0.000003
  0
VERTEX
  8
0
 10
1113.794469
 20
1979.226351
 42
-0.199027
  0
VERTEX
  8
0
 10
1114.666667
 20
1981.333333
 42
-0.172310
  0
VERTEX
  8
0
 10
1115.782744
 20
1981.864402
 42
-0.043458
  0
VERTEX
  8
0
 10
1117.825124
 20
1981.897080
 42
-0.021501
  0
VERTEX
  8
0
 10
1121.271146
 20
1981.503011
 42
-0.003315
  0
SEQEND
  0
POLYLINE
  8
0
 66
1
 70
1
  0
VERTEX
  8
0
 10
1170.500000
 20
1979.953464
 42
-0.003634
  0
VERTEX
  8
0
 10
1178.762478
 20
1979.399551
 42
-0.002040
  0
VERTEX
  8
0
 10
1188.793750
 20
1978.612613
 42
-0.002035
  0
VERTEX
  8
0
 10
1198.919604
 20
1977.735159
 42
-0.003321
  0
VERTEX
  8
0
 10
1207.500000
 20
1976.898928
 42
-0.051657
  0
VERTEX
  8
0
 10
1393.914771
 20
1937.747287
 42
-0.055822
  0
VERTEX
  8
0
 10
1563.225780
 20
1861.778583
 42
-0.056774
  0
VERTEX
  8
0
 10
1709.127228
 20
1751.616256
 42
-0.056839
  0
VERTEX
  8
0
 10
1826.450181
 20
1611.500000
 42
-0.006771
  0
VERTEX
  8
0
 10
1838.809990
 20
1592.216625
 42
-0.005451
  0
VERTEX
  8
0
 10
1851.587507
 20
1571.166245
 42
-0.000919
  0
VERTEX
  8
0
 10
1863.998802
 20
1550.119369
 42
-0.341511
  0
VERTEX
  8
0
 10
1863.785570
 20
1548.452237
 42
-0.157987
  0
VERTEX
  8
0
 10
1862.103537
 20
1547.593554
 42
-0.000342
  0
VERTEX
  8
0
 10
1833.364661
 20
1543.016212
 42
-0.002642
  0
VERTEX
  8
0
 10
1806.524296
 20
1538.905361
 42
-0.005848
  0
VERTEX
  8
0
 10
1786.000000
 20
1536.117654
 42
-0.004768
  0
VERTEX
  8
0
 10
1754.897559
 20
1532.563875
 42
-0.005499
  0
VERTEX
  8
0
 10
1725.177153
 20
1529.784878
 42
-0.005389
  0
VERTEX
  8
0
 10
1694.889389
 20
1527.616909
 42
-0.004252
  0
VERTEX
  8
0
 10
1662.066152
 20
1525.902806
 42
-0.010082
  0
VERTEX
  8
0
 10
1632.646348
 20
1525.211053
 42
-0.002525
  0
VERTEX
  8
0
 10
1584.625868
 20
1525.292898
 42
-0.002332
  0
VERTEX
  8
0
 10
1536.884232
 20
1525.838134
 42
-0.013254
  0
VERTEX
  8
0
 10
1511.500000
 20
1526.919939
 42
-0.005209
  0
VERTEX
  8
0
 10
1471.584516
 20
1530.100572
 42
-0.007332
  0
VERTEX
  8
0
 10
1436.067276
 20
1533.829181
 42
-0.008005
  0
VERTEX
  8
0
 10
1403.370209
 20
1538.279296
 42
-0.008924
  0
VERTEX
  8
0
 10
1372.000000
 20
1543.636036
 42
-0.007124
  0
VERTEX
  8
0
 10
1351.236239
 20
1547.871475
 42
-0.005798
  0
VERTEX
  8
0
 10
1329.118855
 20
1552.981657
 42
-0.002059
  0
VERTEX
  8
0
 10
1308.111531
 20
1558.184358
 42
-0.121740
  0
VERTEX
  8
0
 10
1304.667547
 20
1560.017721
 42
-0.263449
  0
VERTEX
  8
0
 10
1304.431862
 20
1560.719199
 42
-0.002358
  0
VERTEX
  8
0
 10
1305.554776
 20
1566.381512
 42
-0.007250
  0
VERTEX
  8
0
 10
1306.991782
 20
1572.962301
 42
-0.004522
  0
VERTEX
  8
0
 10
1308.856874
 20
1580.632453
 42
0.009282
  0
VERTEX
  8
0
 10
1317.828525
 20
1619.120234
 42
0.011780
  0
VERTEX
  8
0
 10
1324.609327
 20
1654.978731
 42
0.012585
  0
VERTEX
  8
0
 10
1329.331384
 20
1688.938329
 42
0.014262
  0
VERTEX
  8
0
 10
1332.105874
 20
1721.705633
 42
-0.000974
  0
VERTEX
  8
0
 10
1332.569157
 20
1729.698668
 42
-0.001590
  0
VERTEX
  8
0
 10
1332.996809
 20
1736.475323
 42
-0.000173
  0
VERTEX
  8
0
 10
1333.399844
 20
1742.522623
 42
-0.155885
  0
VERTEX
  8
0
 10
1333.503412
 20
1742.784829
 42
-0.355038
  0
VERTEX
  8
0
 10
1333.727834
 20
1742.831029
 42
-0.000350
  0
VERTEX
  8
0
 10
1338.626946
 20
1740.280589
 42
-0.002922
  0
VERTEX
  8
0
 10
1344.128304
 20
1737.370708
 42
-0.001762
  0
VERTEX
  8
0
 10
1350.618162
 20
1733.859784
 42
0.021356
  0
VERTEX
  8
0
 10
1443.064538
 20
1688.435026
 42
0.017512
  0
VERTEX
  8
0
 10
1545.320916
 20
1647.712419
 42
0.017953
  0
VERTEX
  8
0
 10
1645.819569
 20
1615.734140
 42
0.030032
  0
VERTEX
  8
0
 10
1732.500000
 20
1597.066885
 42
0.009662
  0
VERTEX
  8
0
 10
1755.051342
 20
1594.055519
 42
0.013874
  0
VERTEX
  8
0
 10
1775.131013
 20
1592.330881
 42
0.006978
  0
VERTEX
  8
0
 10
1792.028969
 20
1591.587272
 42
0.423034
  0
VERTEX
  8
0
 10
1794.000000
 20
1593.500000
 42
0.262541
  0
VERTEX
  8
0
 10
1793.577279
 20
1594.249567
 42
0.091140
  0
VERTEX
  8
0
 10
1792.374430
 20
1594.705115
 42
0.038273
  0
VERTEX
  8
0
 10
1790.085188
 20
1594.943472
 42
0.006706
  0
VERTEX
  8
0
 10
1785.750000
 20
1595.003417
 42
-0.026663
  0
VERTEX
  8
0
 10
1762.501470
 20
1596.253695
 42
-0.012987
  0
VERTEX
  8
0
 10
1733.034085
 20
1600.196512
 42
-0.011782
  0
VERTEX
  8
0
 10
1699.575664
 20
1606.373052
 42
-0.009435
  0
VERTEX
  8
0
 10
1663.855164
 20
1614.547894
 42
-0.018206
  0
VERTEX
  8
0
 10
1586.009423
 20
1636.954666
 42
-0.014514
  0
VERTEX
  8
0
 10
1503.797515
 20
1666.563782
 42
-0.014403
  0
VERTEX
  8
0
 10
1422.653670
 20
1701.208398
 42
-0.016943
  0
VERTEX
  8
0
 10
1348.000000
 20
1738.774668
 42
0.000000
  0
VERTEX
  8
0
 10
1333.500000
 20
1746.697796
 42
0.000000
  0
VERTEX
  8
0
 10
1332.711539
 20
1753.098898
 42
0.010904
  0
VERTEX
  8
0
 10
1331.102170
 20
1764.169232
 42
0.011112
  0
VERTEX
  8
0
 10
1329.020240
 20
1775.089080
 42
0.011614
  0
VERTEX
  8
0
 10
1326.576431
 20
1785.348456
 42
0.016053
  0
VERTEX
  8
0
 10
1323.877855
 20
1794.418836
 42
0.018551
  0
VERTEX
  8
0
 10
1319.922190
 20
1804.979903
 42
0.008689
  0
VERTEX
  8
0
 10
1314.064826
 20
1818.352012
 42
0.008684
  0
VERTEX
  8
0
 10
1307.755804
 20
1831.493136
 42
0.018848
  0
VERTEX
  8
0
 10
1302.362192
 20
1841.304002
 42
0.038667
  0
VERTEX
  8
0
 10
1269.888986
 20
1887.017761
 42
0.037951
  0
VERTEX
  8
0
 10
1230.576196
 20
1927.494956
 42
0.040026
  0
VERTEX
  8
0
 10
1188.231250
 20
1959.294370
 42
0.061109
  0
VERTEX
  8
0
 10
1146.750000
 20
1978.926389
 42
-0.003792
  0
VERTEX
  8
0
 10
1144.162075
 20
1979.805757
 42
-0.006191
  0
VERTEX
  8
0
 10
1141.982812
 20
1980.595138
 42
-0.001615
  0
VERTEX
  8
0
 10
1140.109601
 20
1981.306933
 42
-0.310550
  0
VERTEX
  8
0
 10
1140.000000
 20
1981.466378
 42
-0.414664
  0
VERTEX
  8
0
 10
1140.116135
 20
1981.582334
 42
-0.002301
  0
VERTEX
  8
0
 10
1141.835938
 20
1981.571778
 42
-0.007582
  0
VERTEX
  8
0
 10
1143.853418
 20
1981.519506
 42
-0.004533
  0
VERTEX
  8
0
 10
1146.250000
 20
1981.399254
 42
-0.000072
  0
VERTEX
  8
0
 10
1149.756653
 20
1981.190903
 42
-0.000015
  0
VERTEX
  8
0
 10
1155.951562
 20
1980.821746
 42
-0.000016
  0
VERTEX
  8
0
 10
1163.150366
 20
1980.392326
 42
-0.000015
  0
SEQEND
  0
POLYLINE
  8
0
 66
1
 70
1
  0
VERTEX
  8
0
 10
924.926224
 20
1513.874482
 42
-0.000868
  0
VERTEX
  8
0
 10
928.404508
 20
1501.290826
 42
-0.001377
  0
VERTEX
  8
0
 10
931.334578
 20
1490.502081
 42
-0.000284
  0
VERTEX
  8
0
 10
933.881243
 20
1481.000375
 42
-0.065418
  0
VERTEX
  8
0
 10
934.000000
 20
1480.096578
 42
-0.101659
  0
VERTEX
  8
0
 10
933.739918
 20
1478.830612
 42
-0.000032
  0
VERTEX
  8
0
 10
913.441773
 20
1431.522883
 42
-0.000467
  0
VERTEX
  8
0
 10
895.408775
 20
1389.609939
 42
-0.005071
  0
VERTEX
  8
0
 10
887.949658
 20
1372.788857
 42
0.000000
  0
VERTEX
  8
0
 10
886.729566
 20
1370.111045
 42
0.000000
  0
VERTEX
  8
0
 10
879.614783
 20
1373.672748
 42
-0.000719
  0
VERTEX
  8
0
 10
876.872656
 20
1375.050407
 42
-0.001142
  0
VERTEX
  8
0
 10
874.529812
 20
1376.238401
 42
-0.000228
  0
VERTEX
  8
0
 10
872.469050
 20
1377.290468
 42
-0.055792
  0
VERTEX
  8
0
 10
872.295214
 20
1377.405345
 42
-0.280498
  0
VERTEX
  8
0
 10
872.237604
 20
1377.574403
 42
-0.001012
  0
VERTEX
  8
0
 10
872.718149
 20
1379.717966
 42
-0.004774
  0
VERTEX
  8
0
 10
873.296539
 20
1382.164976
 42
-0.002929
  0
VERTEX
  8
0
 10
874.022562
 20
1385.038119
 42
0.013962
  0
VERTEX
  8
0
 10
878.518390
 20
1404.640925
 42
0.016018
  0
VERTEX
  8
0
 10
881.683029
 20
1423.588647
 42
0.015607
  0
VERTEX
  8
0
 10
883.687310
 20
1443.122450
 42
0.012065
  0
VERTEX
  8
0
 10
884.690839
 20
1464.500000
 42
0.007740
  0
VERTEX
  8
0
 10
884.822076
 20
1482.476904
 42
0.013582
  0
VERTEX
  8
0
 10
884.296588
 20
1497.339311
 42
0.015054
  0
VERTEX
  8
0
 10
883.024829
 20
1511.032284
 42
0.012912
  0
VERTEX
  8
0
 10
880.882612
 20
1525.347794
 42
-0.007558
  0
VERTEX
  8
0
 10
880.144383
 20
1529.944232
 42
-0.011645
  0
VERTEX
  8
0
 10
879.658986
 20
1533.941350
 42
-0.006137
  0
VERTEX
  8
0
 10
879.373435
 20
1537.281518
 42
-0.231333
  0
VERTEX
  8
0
 10
879.647794
 20
1537.965128
 42
-0.123681
  0
VERTEX
  8
0
 10
882.025450
 20
1539.228330
 42
-0.001761
  0
VERTEX
  8
0
 10
897.815482
 20
1543.071076
 42
-0.001172
  0
VERTEX
  8
0
 10
913.986378
 20
1546.906203
 42
-0.208119
  0
VERTEX
  8
0
 10
915.676224
 20
1546.598940
 42
-0.178092
  0
VERTEX
  8
0
 10
915.771872
 20
1546.467221
 42
-0.000025
  0
VERTEX
  8
0
 10
918.466104
 20
1536.937433
 42
-0.000633
  0
VERTEX
  8
0
 10
921.434366
 20
1526.385349
 42
-0.000382
  0
SEQEND
  0
POLYLINE
  8
0
 66
1
 70
1
  0
VERTEX
  8
0
 10
1341.216445
 20
1536.183555
 42
-0.147030
  0
VERTEX
  8
0
 10
1341.599130
 20
1535.471982
 42
-0.000158
  0
VERTEX
  8
0
 10
1345.122882
 20
1518.190408
 42
-0.001480
  0
VERTEX
  8
0
 10
1349.005349
 20
1498.825672
 42
-0.000907
  0
VERTEX
  8
0
 10
1353.474080
 20
1475.971163
 42
0.000116
  0
VERTEX
  8
0
 10
1357.922894
 20
1453.025947
 42
0.000184
  0
VERTEX
  8
0
 10
1361.746919
 20
1433.366458
 42
0.000038
  0
VERTEX
  8
0
 10
1365.120514
 20
1416.063738
 42
0.008611
  0
VERTEX
  8
0
 10
1365.464960
 20
1414.446565
 42
0.127513
  0
VERTEX
  8
0
 10
1366.002849
 20
1413.415230
 42
0.051533
  0
VERTEX
  8
0
 10
1367.190667
 20
1412.344876
 42
0.039441
  0
VERTEX
  8
0
 10
1368.967061
 20
1411.251820
 42
0.019964
  0
VERTEX
  8
0
 10
1371.353311
 20
1410.149204
 42
-0.025151
  0
VERTEX
  8
0
 10
1379.668988
 20
1406.201635
 42
-0.005750
  0
VERTEX
  8
0
 10
1393.297777
 20
1398.667368
 42
-0.006254
  0
VERTEX
  8
0
 10
1407.170198
 20
1390.557674
 42
-0.014662
  0
VERTEX
  8
0
 10
1417.274285
 20
1384.069280
 42
-0.016750
  0
VERTEX
  8
0
 10
1429.281964
 20
1375.246832
 42
-0.025087
  0
VERTEX
  8
0
 10
1439.086189
 20
1366.694265
 42
-0.029168
  0
VERTEX
  8
0
 10
1446.573277
 20
1358.576348
 42
-0.054467
  0
VERTEX
  8
0
 10
1451.451859
 20
1351.095002
 42
-0.029752
  0
VERTEX
  8
0
 10
1453.151309
 20
1347.179952
 42
-0.027452
  0
VERTEX
  8
0
 10
1454.426684
 20
1342.985211
 42
-0.028444
  0
VERTEX
  8
0
 10
1455.050225
 20
1339.623481
 42
-0.579644
  0
VERTEX
  8
0
 10
1454.385391
 20
1339.121536
 42
-0.010454
  0
VERTEX
  8
0
 10
1453.757944
 20
1339.405398
 42
-0.000323
  0
VERTEX
  8
0
 10
1451.201943
 20
1340.628780
 42
-0.000633
  0
VERTEX
  8
0
 10
1448.192373
 20
1342.076335
 42
-0.000438
  0
VERTEX
  8
0
 10
1444.791437
 20
1343.721118
 42
0.016793
  0
VERTEX
  8
0
 10
1435.518897
 20
1347.837056
 42
0.013973
  0
VERTEX
  8
0
 10
1425.408675
 20
1351.599105
 42
0.014352
  0
VERTEX
  8
0
 10
1415.578085
 20
1354.635558
 42
0.024562
  0
VERTEX
  8
0
 10
1407.204534
 20
1356.523563
 42
0.032317
  0
VERTEX
  8
0
 10
1395.955460
 20
1357.743641
 42
0.016349
  0
VERTEX
  8
0
 10
1381.696113
 20
1357.896682
 42
0.016223
  0
VERTEX
  8
0
 10
1367.729075
 20
1357.136057
 42
0.039785
  0
VERTEX
  8
0
 10
1357.592242
 20
1355.433795
 42
-0.410825
  0
VERTEX
  8
0
 10
1355.892655
 20
1356.438082
 42
-0.007367
  0
VERTEX
  8
0
 10
1353.104158
 20
1367.698440
 42
-0.005422
  0
VERTEX
  8
0
 10
1348.577154
 20
1388.214493
 42
-0.000349
  0
VERTEX
  8
0
 10
1336.065371
 20
1448.199131
 42
0.000081
  0
VERTEX
  8
0
 10
1328.599378
 20
1484.089026
 42
0.000132
  0
VERTEX
  8
0
 10
1322.242778
 20
1514.580915
 42
0.000015
  0
VERTEX
  8
0
 10
1316.556371
 20
1541.818137
 42
0.011795
  0
VERTEX
  8
0
 10
1316.242648
 20
1543.161432
 42
-0.444888
  0
VERTEX
  8
0
 10
1316.661722
 20
1543.795299
 42
-0.085038
  0
VERTEX
  8
0
 10
1318.221983
 20
1543.763735
 42
-0.026441
  0
VERTEX
  8
0
 10
1321.460455
 20
1542.961728
 42
-0.003574
  0
VERTEX
  8
0
 10
1328.144137
 20
1540.873825
 42
-0.003456
  0
VERTEX
  8
0
 10
1332.923267
 20
1539.306801
 42
-0.005183
  0
VERTEX
  8
0
 10
1337.070697
 20
1537.867079
 42
-0.002279
  0
VERTEX
  8
0
 10
1340.584249
 20
1536.588328
 42
-0.108370
  0
SEQEND
  0
POLYLINE
  8
0
 66
1
 70
1
  0
VERTEX
  8
0
 10
373.983018
 20
1521.000000
 42
-0.023826
  0
VERTEX
  8
0
 10
447.981894
 20
1421.750754
 42
-0.020075
  0
VERTEX
  8
0
 10
516.824835
 20
1310.187785
 42
-0.020540
  0
VERTEX
  8
0
 10
574.439094
 20
1197.231713
 42
-0.030781
  0
VERTEX
  8
0
 10
614.365580
 20
1094.000000
 42
-0.005439
  0
VERTEX
  8
0
 10
619.198194
 20
1078.188692
 42
-0.007041
  0
VERTEX
  8
0
 10
623.267998
 20
1063.578219
 42
-0.001918
  0
VERTEX
  8
0
 10
626.691345
 20
1050.378005
 42
-0.286984
  0
VERTEX
  8
0
 10
626.234366
 20
1048.946638
 42
-0.102004
  0
VERTEX
  8
0
 10
625.595494
 20
1048.598025
 42
-0.000740
  0
VERTEX
  8
0
 10
619.751705
 20
1046.824037
 42
-0.002773
  0
VERTEX
  8
0
 10
613.032287
 20
1044.835690
 42
-0.001769
  0
VERTEX
  8
0
 10
605.196971
 20
1042.594341
 42
0.011388
  0
VERTEX
  8
0
 10
563.952911
 20
1029.932970
 42
0.012529
  0
VERTEX
  8
0
 10
524.634327
 20
1015.772465
 42
0.013445
  0
VERTEX
  8
0
 10
489.513016
 20
1001.021381
 42
0.022939
  0
VERTEX
  8
0
 10
461.153934
 20
986.602059
 42
-0.004687
  0
VERTEX
  8
0
 10
458.668351
 20
985.221875
 42
-0.006863
  0
VERTEX
  8
0
 10
456.453467
 20
984.058105
 42
-0.003627
  0
VERTEX
  8
0
 10
454.566172
 20
983.116440
 42
-0.114383
  0
VERTEX
  8
0
 10
454.063841
 20
983.000000
 42
-0.397518
  0
VERTEX
  8
0
 10
453.752953
 20
983.293555
 42
-0.000817
  0
VERTEX
  8
0
 10
453.347533
 20
990.564063
 42
-0.004506
  0
VERTEX
  8
0
 10
452.972735
 20
998.876287
 42
-0.002706
  0
VERTEX
  8
0
 10
452.670148
 20
1008.750000
 42
0.015582
  0
VERTEX
  8
0
 10
448.800694
 20
1077.301417
 42
0.012458
  0
VERTEX
  8
0
 10
440.496929
 20
1150.826101
 42
0.012300
  0
VERTEX
  8
0
 10
428.377562
 20
1224.992870
 42
0.013893
  0
VERTEX
  8
0
 10
413.027917
 20
1295.500000
 42
0.009125
  0
VERTEX
  8
0
 10
401.704665
 20
1337.998259
 42
0.012458
  0
VERTEX
  8
0
 10
389.859215
 20
1375.814664
 42
0.013752
  0
VERTEX
  8
0
 10
377.306772
 20
1409.574912
 42
0.017721
  0
VERTEX
  8
0
 10
363.846824
 20
1439.803726
 42
0.005926
  0
VERTEX
  8
0
 10
359.166683
 20
1449.104536
 42
0.027658
  0
VERTEX
  8
0
 10
356.117192
 20
1454.269383
 42
0.055915
  0
VERTEX
  8
0
 10
353.950804
 20
1456.839489
 42
0.406420
  0
VERTEX
  8
0
 10
352.486620
 20
1456.819953
 42
0.313279
  0
VERTEX
  8
0
 10
352.417507
 20
1456.436246
 42
0.000971
  0
VERTEX
  8
0
 10
354.600841
 20
1451.687163
 42
0.004790
  0
VERTEX
  8
0
 10
357.161235
 20
1446.282861
 42
0.002919
  0
VERTEX
  8
0
 10
360.283758
 20
1439.946415
 42
-0.043859
  0
VERTEX
  8
0
 10
393.327296
 20
1356.254798
 42
-0.021365
  0
VERTEX
  8
0
 10
421.282320
 20
1244.753353
 42
-0.020647
  0
VERTEX
  8
0
 10
441.177665
 20
1122.742153
 42
-0.024006
  0
VERTEX
  8
0
 10
449.674864
 20
1005.500000
 42
0.000000
  0
VERTEX
  8
0
 10
450.283652
 20
980.500000
 42
0.000000
  0
VERTEX
  8
0
 10
442.904440
 20
975.500000
 42
0.030403
  0
VERTEX
  8
0
 10
434.967018
 20
969.386558
 42
0.012114
  0
VERTEX
  8
0
 10
424.829642
 20
960.105628
 42
0.012223
  0
VERTEX
  8
0
 10
414.810741
 20
949.994242
 42
0.021150
  0
VERTEX
  8
0
 10
407.062341
 20
941.053338
 42
0.008078
  0
VERTEX
  8
0
 10
403.947952
 20
937.003969
 42
0.004146
  0
VERTEX
  8
0
 10
400.169548
 20
931.834477
 42
0.004119
  0
VERTEX
  8
0
 10
396.366570
 20
926.446620
 42
0.006197
  0
VERTEX
  8
0
 10
393.148045
 20
921.681050
 42
0.048518
  0
VERTEX
  8
0
 10
366.385364
 20
870.853156
 42
0.039686
  0
VERTEX
  8
0
 10
347.734080
 20
812.296731
 42
0.040911
  0
VERTEX
  8
0
 10
339.101980
 20
754.098998
 42
0.067440
  0
VERTEX
  8
0
 10
342.535184
 20
704.567572
 42
-0.005632
  0
VERTEX
  8
0
 10
343.058510
 20
701.884298
 42
-0.008836
  0
VERTEX
  8
0
 10
343.441464
 20
699.565562
 42
-0.003662
  0
VERTEX
  8
0
 10
343.716497
 20
697.595146
 42
-0.233289
  0
VERTEX
  8
0
 10
343.607684
 20
697.274351
 42
-0.511250
  0
VERTEX
  8
0
 10
342.936422
 20
697.382552
 42
-0.000367
  0
VERTEX
  8
0
 10
333.563904
 20
716.062870
 42
-0.003476
  0
VERTEX
  8
0
 10
324.768312
 20
733.934663
 42
-0.005929
  0
VERTEX
  8
0
 10
317.702733
 20
749.000000
 42
-0.019716
  0
VERTEX
  8
0
 10
287.542763
 20
822.948990
 42
-0.021791
  0
VERTEX
  8
0
 10
264.403649
 20
896.639815
 42
-0.021888
  0
VERTEX
  8
0
 10
247.848303
 20
971.762618
 42
-0.020265
  0
VERTEX
  8
0
 10
237.411400
 20
1050.000000
 42
-0.015485
  0
VERTEX
  8
0
 10
236.026014
 20
1072.635927
 42
-0.004381
  0
VERTEX
  8
0
 10
235.270400
 20
1107.943088
 42
-0.004458
  0
VERTEX
  8
0
 10
235.138324
 20
1143.453510
 42
-0.013971
  0
VERTEX
  8
0
 10
235.929017
 20
1167.305985
 42
-0.020994
  0
VERTEX
  8
0
 10
243.392433
 20
1239.468627
 42
-0.022225
  0
VERTEX
  8
0
 10
256.799308
 20
1309.374948
 42
-0.022318
  0
VERTEX
  8
0
 10
276.294449
 20
1377.542375
 42
-0.021567
  0
VERTEX
  8
0
 10
301.980922
 20
1444.500000
 42
-0.011420
  0
VERTEX
  8
0
 10
312.343653
 20
1466.960419
 42
-0.005800
  0
VERTEX
  8
0
 10
326.346113
 20
1494.751940
 42
-0.005698
  0
VERTEX
  8
0
 10
340.598081
 20
1521.490335
 42
-0.015538
  0
VERTEX
  8
0
 10
351.475395
 20
1539.962556
 42
0.000000
  0
VERTEX
  8
0
 10
354.293451
 20
1544.425113
 42
0.000000
  0
VERTEX
  8
0
 10
357.763817
 20
1540.462556
 42
-0.005368
  0
VERTEX
  8
0
 10
359.812662
 20
1538.071821
 42
-0.000763
  0
VERTEX
  8
0
 10
363.959733
 20
1533.110876
 42
-0.000869
  0
VERTEX
  8
0
 10
368.847487
 20
1527.224953
 42
-0.000740
  0
SEQEND
  0
POLYLINE
  8
0
 66
1
 70
1
  0
VERTEX
  8
0
 10
1879.982554
 20
1522.000000
 42
-0.026699
  0
VERTEX
  8
0
 10
1919.232456
 20
1443.778930
 42
-0.027449
  0
VERTEX
  8
0
 10
1949.518151
 20
1362.530847
 42
-0.027204
  0
VERTEX
  8
0
 10
1970.940403
 20
1277.758430
 42
-0.025228
  0
VERTEX
  8
0
 10
1983.691216
 20
1189.000000
 42
-0.018018
  0
VERTEX
  8
0
 10
1985.074352
 20
1164.417052
 42
-0.004066
  0
VERTEX
  8
0
 10
1985.578394
 20
1122.558246
 42
-0.003993
  0
VERTEX
  8
0
 10
1985.407971
 20
1080.760354
 42
-0.019217
  0
VERTEX
  8
0
 10
1984.207224
 20
1057.000000
 42
-0.019993
  0
VERTEX
  8
0
 10
1973.462319
 20
974.104739
 42
-0.022894
  0
VERTEX
  8
0
 10
1956.444670
 20
896.049397
 42
-0.022925
  0
VERTEX
  8
0
 10
1932.385692
 20
819.969898
 42
-0.020154
  0
VERTEX
  8
0
 10
1900.528111
 20
743.000000
 42
-0.005719
  0
VERTEX
  8
0
 10
1894.147132
 20
729.591314
 42
-0.003445
  0
VERTEX
  8
0
 10
1886.289494
 20
713.830777
 42
-0.000360
  0
VERTEX
  8
0
 10
1877.943447
 20
697.404898
 42
-0.509654
  0
VERTEX
  8
0
 10
1877.355081
 20
697.311586
 42
-0.235503
  0
VERTEX
  8
0
 10
1877.257796
 20
697.602401
 42
-0.003002
  0
VERTEX
  8
0
 10
1877.547598
 20
699.576499
 42
-0.007977
  0
VERTEX
  8
0
 10
1877.938766
 20
701.886893
 42
-0.005052
  0
VERTEX
  8
0
 10
1878.464816
 20
704.567572
 42
0.073083
  0
VERTEX
  8
0
 10
1881.690323
 20
760.143338
 42
0.044631
  0
VERTEX
  8
0
 10
1870.089649
 20
824.947397
 42
0.043709
  0
VERTEX
  8
0
 10
1846.575039
 20
888.633377
 42
0.057910
  0
VERTEX
  8
0
 10
1813.947012
 20
941.053338
 42
0.021040
  0
VERTEX
  8
0
 10
1806.184337
 20
950.002562
 42
0.012198
  0
VERTEX
  8
0
 10
1796.161135
 20
960.114627
 42
0.012088
  0
VERTEX
  8
0
 10
1786.025571
 20
969.392435
 42
0.030397
  0
VERTEX
  8
0
 10
1778.095560
 20
975.500000
 42
0.000000
  0
VERTEX
  8
0
 10
1770.716348
 20
980.500000
 42
0.000000
  0
VERTEX
  8
0
 10
1771.332485
 20
1005.500000
 42
-0.023702
  0
VERTEX
  8
0
 10
1779.766189
 20
1122.372992
 42
-0.020606
  0
VERTEX
  8
0
 10
1799.405961
 20
1243.580480
 42
-0.021358
  0
VERTEX
  8
0
 10
1827.046874
 20
1354.344339
 42
-0.043169
  0
VERTEX
  8
0
 10
1859.834640
 20
1437.997307
 42
0.000169
  0
VERTEX
  8
0
 10
1863.180195
 20
1444.758483
 42
0.000265
  0
VERTEX
  8
0
 10
1866.052467
 20
1450.575884
 42
0.000065
  0
VERTEX
  8
0
 10
1868.562736
 20
1455.668570
 42
0.010235
  0
VERTEX
  8
0
 10
1868.833333
 20
1456.247307
 42
0.212911
  0
VERTEX
  8
0
 10
1868.832574
 20
1456.532589
 42
0.148263
  0
VERTEX
  8
0
 10
1868.618022
 20
1456.778897
 42
0.092063
  0
VERTEX
  8
0
 10
1868.196196
 20
1456.945526
 42
0.048187
  0
VERTEX
  8
0
 10
1867.632275
 20
1457.000000
 42
0.288840
  0
VERTEX
  8
0
 10
1863.769402
 20
1454.565383
 42
0.005113
  0
VERTEX
  8
0
 10
1852.923996
 20
1431.276390
 42
0.012242
  0
VERTEX
  8
0
 10
1841.850023
 20
1405.165157
 42
0.011876
  0
VERTEX
  8
0
 10
1831.948069
 20
1378.279460
 42
0.021484
  0
VERTEX
  8
0
 10
1809.108101
 20
1300.657595
 42
0.016041
  0
VERTEX
  8
0
 10
1790.409288
 20
1213.411792
 42
0.015534
  0
VERTEX
  8
0
 10
1776.734717
 20
1121.682352
 42
0.016170
  0
VERTEX
  8
0
 10
1769.003846
 20
1030.500000
 42
0.003231
  0
VERTEX
  8
0
 10
1768.622860
 20
1022.184401
 42
0.002324
  0
VERTEX
  8
0
 10
1768.300633
 20
1012.895312
 42
0.002346
  0
VERTEX
  8
0
 10
1768.076594
 20
1004.053897
 42
0.005070
  0
VERTEX
  8
0
 10
1768.005143
 20
997.250000
 42
-0.005656
  0
VERTEX
  8
0
 10
1767.938748
 20
991.562651
 42
-0.010923
  0
VERTEX
  8
0
 10
1767.734755
 20
987.015529
 42
-0.005137
  0
VERTEX
  8
0
 10
1767.453392
 20
983.366378
 42
-0.388891
  0
VERTEX
  8
0
 10
1767.053576
 20
983.000000
 42
-0.112786
  0
VERTEX
  8
0
 10
1766.437732
 20
983.140707
 42
-0.005451
  0
VERTEX
  8
0
 10
1764.541529
 20
984.080525
 42
-0.008656
  0
VERTEX
  8
0
 10
1762.304204
 20
985.269182
 42
-0.006113
  0
VERTEX
  8
0
 10
1759.830945
 20
986.678384
 42
0.027964
  0
VERTEX
  8
0
 10
1733.211663
 20
1000.341419
 42
0.012090
  0
VERTEX
  8
0
 10
1696.410581
 20
1015.646251
 42
0.011650
  0
VERTEX
  8
0
 10
1655.251413
 20
1030.514117
 42
0.012601
  0
VERTEX
  8
0
 10
1614.500000
 20
1043.037177
 42
-0.001873
  0
VERTEX
  8
0
 10
1607.163344
 20
1045.120603
 42
-0.002922
  0
VERTEX
  8
0
 10
1600.861508
 20
1046.975657
 42
-0.000835
  0
VERTEX
  8
0
 10
1595.396148
 20
1048.629208
 42
-0.099502
  0
VERTEX
  8
0
 10
1594.751943
 20
1048.975984
 42
-0.294309
  0
VERTEX
  8
0
 10
1594.198650
 20
1050.726283
 42
-0.001562
  0
VERTEX
  8
0
 10
1599.181407
 20
1068.772030
 42
-0.006678
  0
VERTEX
  8
0
 10
1604.790808
 20
1087.855798
 42
-0.006456
  0
VERTEX
  8
0
 10
1610.968652
 20
1107.000000
 42
-0.016753
  0
VERTEX
  8
0
 10
1631.283899
 20
1161.207898
 42
-0.012467
  0
VERTEX
  8
0
 10
1657.167383
 20
1219.638371
 42
-0.011926
  0
VERTEX
  8
0
 10
1687.376866
 20
1279.736062
 42
-0.011539
  0
VERTEX
  8
0
 10
1720.737918
 20
1339.000000
 42
-0.009249
  0
VERTEX
  8
0
 10
1753.392578
 20
1391.752601
 42
-0.009727
  0
VERTEX
  8
0
 10
1787.448267
 20
1442.370777
 42
-0.010099
  0
VERTEX
  8
0
 10
1822.047689
 20
1489.637433
 42
-0.012372
  0
VERTEX
  8
0
 10
1856.331296
 20
1532.309358
 42
-0.004106
  0
VERTEX
  8
0
 10
1861.692053
 20
1538.549011
 42
-0.025501
  0
VERTEX
  8
0
 10
1864.625776
 20
1541.580673
 42
-0.055884
  0
VERTEX
  8
0
 10
1866.481533
 20
1542.959975
 42
-0.344389
  0
VERTEX
  8
0
 10
1867.583686
 20
1542.809358
 42
-0.057402
  0
VERTEX
  8
0
 10
1868.396453
 20
1541.755537
 42
-0.001235
  0
VERTEX
  8
0
 10
1871.751308
 20
1536.156499
 42
-0.002823
  0
VERTEX
  8
0
 10
1875.627136
 20
1529.567256
 42
-0.001899
  0
SEQEND
  0
POLYLINE
  8
0
 66
1
 70
1
  0
VERTEX
  8
0
 10
877.396502
 20
1527.250000
 42
-0.009425
  0
VERTEX
  8
0
 10
879.531963
 20
1514.223241
 42
-0.017283
  0
VERTEX
  8
0
 10
880.702680
 20
1503.532419
 42
-0.014051
  0
VERTEX
  8
0
 10
881.265371
 20
1491.416700
 42
-0.004248
  0
VERTEX
  8
0
 10
881.446130
 20
1473.000000
 42
-0.004318
  0
VERTEX
  8
0
 10
881.310824
 20
1454.509732
 42
-0.013760
  0
VERTEX
  8
0
 10
880.774131
 20
1442.171997
 42
-0.015754
  0
VERTEX
  8
0
 10
879.603318
 20
1430.789108
 42
-0.007184
  0
VERTEX
  8
0
 10
877.392822
 20
1416.000000
 42
-0.010500
  0
VERTEX
  8
0
 10
875.583357
 20
1406.262892
 42
-0.005205
  0
VERTEX
  8
0
 10
872.900713
 20
1393.986934
 42
-0.001528
  0
VERTEX
  8
0
 10
869.983822
 20
1381.450873
 42
-0.128944
  0
VERTEX
  8
0
 10
869.070437
 20
1379.730756
 42
-0.270101
  0
VERTEX
  8
0
 10
868.504781
 20
1379.556664
 42
-0.015560
  0
VERTEX
  8
0
 10
866.680724
 20
1380.042211
 42
-0.020239
  0
VERTEX
  8
0
 10
864.446551
 20
1380.811836
 42
-0.013172
  0
VERTEX
  8
0
 10
861.930756
 20
1381.871241
 42
0.007140
  0
VERTEX
  8
0
 10
859.161271
 20
1383.077013
 42
0.005778
  0
VERTEX
  8
0
 10
856.156521
 20
1384.293883
 42
0.005843
  0
VERTEX
  8
0
 10
853.358302
 20
1385.352106
 42
0.014996
  0
VERTEX
  8
0
 10
851.304209
 20
1386.032531
 42
-0.078907
  0
VERTEX
  8
0
 10
848.483293
 20
1387.386067
 42
-0.181286
  0
VERTEX
  8
0
 10
847.159679
 20
1389.290978
 42
-0.040219
  0
VERTEX
  8
0
 10
846.497401
 20
1393.191594
 42
-0.001024
  0
VERTEX
  8
0
 10
844.966742
 20
1411.000000
 42
0.017404
  0
VERTEX
  8
0
 10
842.410985
 20
1432.467237
 42
0.013225
  0
VERTEX
  8
0
 10
838.174108
 20
1455.784085
 42
0.013152
  0
VERTEX
  8
0
 10
832.672206
 20
1479.020344
 42
0.016429
  0
VERTEX
  8
0
 10
826.297951
 20
1500.252460
 42
-0.003214
  0
VERTEX
  8
0
 10
824.554012
 20
1505.548959
 42
-0.005257
  0
VERTEX
  8
0
 10
823.152254
 20
1510.062218
 42
-0.001179
  0
VERTEX
  8
0
 10
821.982334
 20
1514.007606
 42
-0.304752
  0
VERTEX
  8
0
 10
822.085793
 20
1514.335419
 42
-0.070887
  0
VERTEX
  8
0
 10
823.580455
 20
1515.215041
 42
-0.000150
  0
VERTEX
  8
0
 10
848.325791
 20
1525.389328
 42
-0.000131
  0
VERTEX
  8
0
 10
873.170498
 20
1535.588139
 42
-0.081738
  0
VERTEX
  8
0
 10
874.646110
 20
1535.927657
 42
-0.325676
  0
VERTEX
  8
0
 10
875.188350
 20
1535.582657
 42
-0.016883
  0
VERTEX
  8
0
 10
875.921255
 20
1533.515354
 42
-0.020481
  0
VERTEX
  8
0
 10
876.677943
 20
1530.737829
 42
-0.010922
  0
SEQEND
  0
POLYLINE
  8
0
 66
1
 70
1
  0
VERTEX
  8
0
 10
1365.632958
 20
1528.425366
 42
0.000000
  0
VERTEX
  8
0
 10
1384.765917
 20
1521.822261
 42
0.000000
  0
VERTEX
  8
0
 10
1385.362383
 20
1517.161131
 42
-0.010603
  0
VERTEX
  8
0
 10
1386.661770
 20
1504.956690
 42
-0.009562
  0
VERTEX
  8
0
 10
1387.496348
 20
1492.279997
 42
-0.008040
  0
VERTEX
  8
0
 10
1387.942107
 20
1477.688195
 42
-0.004198
  0
VERTEX
  8
0
 10
1388.052389
 20
1459.500000
 42
-0.003805
  0
VERTEX
  8
0
 10
1387.856982
 20
1439.850458
 42
-0.006395
  0
VERTEX
  8
0
 10
1387.356356
 20
1423.358123
 42
-0.002379
  0
VERTEX
  8
0
 10
1386.690034
 20
1409.456512
 42
-0.185263
  0
VERTEX
  8
0
 10
1385.806759
 20
1407.473426
 42
-0.292843
  0
VERTEX
  8
0
 10
1385.354978
 20
1407.374464
 42
-0.005426
  0
VERTEX
  8
0
 10
1382.974449
 20
1408.284018
 42
-0.011469
  0
VERTEX
  8
0
 10
1380.156958
 20
1409.471095
 42
-0.007186
  0
VERTEX
  8
0
 10
1376.914141
 20
1410.982177
 42
0.000000
  0
VERTEX
  8
0
 10
1368.555106
 20
1415.024512
 42
0.000000
  0
VERTEX
  8
0
 10
1357.427501
 20
1472.262256
 42
-0.000037
  0
VERTEX
  8
0
 10
1353.125483
 20
1494.399489
 42
-0.000057
  0
VERTEX
  8
0
 10
1349.418442
 20
1513.494225
 42
-0.000016
  0
VERTEX
  8
0
 10
1346.190348
 20
1530.134904
 42
-0.001939
  0
VERTEX
  8
0
 10
1345.788620
 20
1532.250000
 42
-0.020377
  0
VERTEX
  8
0
 10
1345.636584
 20
1533.305399
 42
-0.034639
  0
VERTEX
  8
0
 10
1345.607109
 20
1534.196369
 42
-0.040257
  0
VERTEX
  8
0
 10
1345.682679
 20
1534.841265
 42
-0.351037
  0
VERTEX
  8
0
 10
1345.888672
 20
1535.014236
 42
-0.086270
  0
VERTEX
  8
0
 10
1346.359265
 20
1534.943674
 42
-0.000286
  0
VERTEX
  8
0
 10
1351.940729
 20
1533.084627
 42
-0.001573
  0
VERTEX
  8
0
 10
1358.254252
 20
1530.955642
 42
-0.000984
  0
SEQEND
  0
POLYLINE
  8
0
 66
1
 70
1
  0
VERTEX
  8
0
 10
506.500000
 20
1518.468641
 42
-0.000868
  0
VERTEX
  8
0
 10
516.991546
 20
1517.458575
 42
-0.001298
  0
VERTEX
  8
0
 10
526.156250
 20
1516.536166
 42
-0.000533
  0
VERTEX
  8
0
 10
534.007020
 20
1515.716955
 42
-0.028212
  0
VERTEX
  8
0
 10
535.500000
 20
1515.473801
 42
-0.198002
  0
VERTEX
  8
0
 10
536.733021
 20
1514.614211
 42
-0.037530
  0
VERTEX
  8
0
 10
538.064420
 20
1512.153868
 42
-0.022048
  0
VERTEX
  8
0
 10
539.740301
 20
1507.919979
 42
-0.004478
  0
VERTEX
  8
0
 10
542.309707
 20
1500.265530
 42
0.031419
  0
VERTEX
  8
0
 10
554.609300
 20
1469.266172
 42
0.033266
  0
VERTEX
  8
0
 10
570.497589
 20
1440.663522
 42
0.033206
  0
VERTEX
  8
0
 10
590.067734
 20
1414.375383
 42
0.031077
  0
VERTEX
  8
0
 10
613.356470
 20
1390.284042
 42
0.007544
  0
VERTEX
  8
0
 10
628.188269
 20
1377.140704
 42
0.004304
  0
VERTEX
  8
0
 10
646.480848
 20
1361.688594
 42
0.000561
  0
VERTEX
  8
0
 10
665.780454
 20
1345.704954
 42
0.321471
  0
VERTEX
  8
0
 10
667.176638
 20
1345.609168
 42
0.068107
  0
VERTEX
  8
0
 10
667.491613
 20
1345.868905
 42
0.052430
  0
VERTEX
  8
0
 10
667.758137
 20
1346.226538
 42
0.053432
  0
VERTEX
  8
0
 10
667.939291
 20
1346.622658
 42
0.080715
  0
VERTEX
  8
0
 10
668.000000
 20
1346.996275
 42
0.212905
  0
VERTEX
  8
0
 10
667.749398
 20
1347.558129
 42
0.001657
  0
VERTEX
  8
0
 10
663.960938
 20
1350.937531
 42
0.005669
  0
VERTEX
  8
0
 10
659.520868
 20
1354.782870
 42
0.003565
  0
VERTEX
  8
0
 10
654.250000
 20
1359.180043
 42
-0.004930
  0
VERTEX
  8
0
 10
639.131371
 20
1371.862797
 42
-0.004533
  0
VERTEX
  8
0
 10
623.832654
 20
1385.197953
 42
-0.004522
  0
VERTEX
  8
0
 10
610.414491
 20
1397.328444
 42
-0.015082
  0
VERTEX
  8
0
 10
601.924607
 20
1405.631021
 42
-0.023747
  0
VERTEX
  8
0
 10
588.242360
 20
1421.265473
 42
-0.021019
  0
VERTEX
  8
0
 10
575.503817
 20
1438.759184
 42
-0.020777
  0
VERTEX
  8
0
 10
564.129217
 20
1457.487369
 42
-0.021735
  0
VERTEX
  8
0
 10
554.531515
 20
1476.820406
 42
-0.011385
  0
VERTEX
  8
0
 10
551.077248
 20
1485.115959
 42
-0.005640
  0
VERTEX
  8
0
 10
547.054468
 20
1495.786702
 42
-0.005150
  0
VERTEX
  8
0
 10
543.428583
 20
1506.071754
 42
-0.022633
  0
VERTEX
  8
0
 10
541.629388
 20
1512.250000
 42
0.000000
  0
VERTEX
  8
0
 10
540.961896
 20
1515.000000
 42
0.000000
  0
VERTEX
  8
0
 10
554.827323
 20
1515.000000
 42
-0.003918
  0
VERTEX
  8
0
 10
560.796172
 20
1514.953224
 42
-0.003073
  0
VERTEX
  8
0
 10
567.268611
 20
1514.811981
 42
-0.003107
  0
VERTEX
  8
0
 10
573.287929
 20
1514.606176
 42
-0.007618
  0
VERTEX
  8
0
 10
577.710041
 20
1514.359935
 42
0.000000
  0
VERTEX
  8
0
 10
586.727332
 20
1513.719869
 42
0.000000
  0
VERTEX
  8
0
 10
589.429270
 20
1504.609935
 42
0.019500
  0
VERTEX
  8
0
 10
594.621859
 20
1489.316786
 42
0.013810
  0
VERTEX
  8
0
 10
601.580695
 20
1472.575362
 42
0.013859
  0
VERTEX
  8
0
 10
609.404938
 20
1456.347813
 42
0.020525
  0
VERTEX
  8
0
 10
617.224273
 20
1442.628528
 42
0.023328
  0
VERTEX
  8
0
 10
630.430132
 20
1423.560742
 42
0.026278
  0
VERTEX
  8
0
 10
644.873137
 20
1406.583526
 42
0.020771
  0
VERTEX
  8
0
 10
663.660839
 20
1388.299964
 42
0.008138
  0
VERTEX
  8
0
 10
691.000000
 20
1364.610946
 42
0.000670
  0
VERTEX
  8
0
 10
706.622264
 20
1351.549110
 42
0.014702
  0
VERTEX
  8
0
 10
711.304717
 20
1347.872628
 42
0.058388
  0
VERTEX
  8
0
 10
713.730354
 20
1346.485146
 42
0.306144
  0
VERTEX
  8
0
 10
715.162379
 20
1346.762379
 42
0.406685
  0
VERTEX
  8
0
 10
715.173013
 20
1347.587637
 42
0.011221
  0
VERTEX
  8
0
 10
712.402606
 20
1350.376562
 42
0.014394
  0
VERTEX
  8
0
 10
708.333591
 20
1354.073345
 42
0.005142
  0
VERTEX
  8
0
 10
702.325246
 20
1359.118032
 42
-0.005889
  0
VERTEX
  8
0
 10
679.382954
 20
1378.439242
 42
-0.010784
  0
VERTEX
  8
0
 10
661.216313
 20
1394.804304
 42
-0.013148
  0
VERTEX
  8
0
 10
646.914232
 20
1408.984954
 42
-0.023312
  0
VERTEX
  8
0
 10
636.009395
 20
1421.500000
 42
-0.024959
  0
VERTEX
  8
0
 10
621.739475
 20
1441.478704
 42
-0.026157
  0
VERTEX
  8
0
 10
609.771532
 20
1462.477442
 42
-0.024717
  0
VERTEX
  8
0
 10
599.516671
 20
1485.671396
 42
-0.018151
  0
VERTEX
  8
0
 10
590.388352
 20
1512.271853
 42
-0.379838
  0
VERTEX
  8
0
 10
590.838356
 20
1513.248582
 42
-0.083407
  0
VERTEX
  8
0
 10
592.788752
 20
1513.739583
 42
-0.021909
  0
VERTEX
  8
0
 10
597.193207
 20
1513.899884
 42
-0.001681
  0
VERTEX
  8
0
 10
609.053651
 20
1513.771853
 42
0.000000
  0
VERTEX
  8
0
 10
628.255949
 20
1513.500000
 42
0.000000
  0
VERTEX
  8
0
 10
634.877975
 20
1502.500000
 42
0.012137
  0
VERTEX
  8
0
 10
643.882833
 20
1488.331825
 42
0.009950
  0
VERTEX
  8
0
 10
654.164581
 20
1473.631445
 42
0.009139
  0
VERTEX
  8
0
 10
665.920448
 20
1458.119560
 42
0.006897
  0
VERTEX
  8
0
 10
679.376115
 20
1441.500000
 42
0.014829
  0
VERTEX
  8
0
 10
690.780400
 20
1428.602570
 42
0.008031
  0
VERTEX
  8
0
 10
705.521784
 20
1413.392456
 42
0.006766
  0
VERTEX
  8
0
 10
719.855943
 20
1399.452604
 42
0.041657
  0
VERTEX
  8
0
 10
727.888399
 20
1393.027767
 42
0.027176
  0
VERTEX
  8
0
 10
734.409873
 20
1389.144690
 42
0.005611
  0
VERTEX
  8
0
 10
746.322448
 20
1383.071138
 42
0.006100
  0
VERTEX
  8
0
 10
758.571092
 20
1377.183499
 42
0.018394
  0
VERTEX
  8
0
 10
767.107689
 20
1373.583463
 42
0.000000
  0
VERTEX
  8
0
 10
771.715377
 20
1371.836983
 42
0.000000
  0
VERTEX
  8
0
 10
780.607689
 20
1376.302460
 42
-0.008662
  0
VERTEX
  8
0
 10
784.664541
 20
1378.252454
 42
-0.005238
  0
VERTEX
  8
0
 10
789.531634
 20
1380.427498
 42
-0.005246
  0
VERTEX
  8
0
 10
794.411469
 20
1382.486599
 42
-0.009179
  0
VERTEX
  8
0
 10
798.500000
 20
1384.074474
 42
-0.012702
  0
VERTEX
  8
0
 10
804.182993
 20
1385.999993
 42
-0.038755
  0
VERTEX
  8
0
 10
808.151920
 20
1386.903404
 42
-0.030668
  0
VERTEX
  8
0
 10
812.677617
 20
1387.289115
 42
-0.005746
  0
VERTEX
  8
0
 10
821.000000
 20
1387.390771
 42
-0.019673
  0
VERTEX
  8
0
 10
831.875185
 20
1386.970581
 42
-0.032935
  0
VERTEX
  8
0
 10
840.927847
 20
1385.659718
 42
-0.031744
  0
VERTEX
  8
0
 10
849.957223
 20
1383.130438
 42
-0.016799
  0
VERTEX
  8
0
 10
860.802485
 20
1378.921737
 42
-0.010567
  0
VERTEX
  8
0
 10
876.802854
 20
1371.682043
 42
-0.047202
  0
VERTEX
  8
0
 10
885.624263
 20
1366.389735
 42
-0.035332
  0
VERTEX
  8
0
 10
894.388028
 20
1358.927709
 42
-0.004179
  0
VERTEX
  8
0
 10
912.500000
 20
1340.854188
 42
-0.003119
  0
VERTEX
  8
0
 10
922.487652
 20
1330.592486
 42
-0.003660
  0
VERTEX
  8
0
 10
931.822887
 20
1320.737238
 42
-0.003227
  0
VERTEX
  8
0
 10
939.593890
 20
1312.303659
 42
-0.022507
  0
VERTEX
  8
0
 10
943.173658
 20
1307.993359
 42
-0.024129
  0
VERTEX
  8
0
 10
952.411279
 20
1294.485478
 42
-0.011859
  0
VERTEX
  8
0
 10
962.902830
 20
1276.490762
 42
-0.011789
  0
VERTEX
  8
0
 10
972.402043
 20
1258.269303
 42
-0.027965
  0
VERTEX
  8
0
 10
978.370307
 20
1244.194818
 42
-0.035907
  0
VERTEX
  8
0
 10
980.272715
 20
1237.409815
 42
-0.024931
  0
VERTEX
  8
0
 10
981.476702
 20
1229.535748
 42
-0.025187
  0
VERTEX
  8
0
 10
981.866031
 20
1221.984955
 42
-0.057557
  0
VERTEX
  8
0
 10
981.219244
 20
1216.327706
 42
0.023241
  0
VERTEX
  8
0
 10
980.760283
 20
1213.838720
 42
0.091731
  0
VERTEX
  8
0
 10
980.833285
 20
1212.289133
 42
0.091425
  0
VERTEX
  8
0
 10
981.456024
 20
1210.865569
 42
0.022999
  0
VERTEX
  8
0
 10
982.975525
 20
1208.827706
 42
-0.011740
  0
VERTEX
  8
0
 10
990.061253
 20
1199.758139
 42
-0.000749
  0
VERTEX
  8
0
 10
1010.129107
 20
1172.705369
 42
-0.000353
  0
VERTEX
  8
0
 10
1031.274283
 20
1144.068588
 42
-0.029605
  0
VERTEX
  8
0
 10
1034.242276
 20
1139.500000
 42
-0.574246
  0
VERTEX
  8
0
 10
1034.006787
 20
1139.093997
 42
-0.008001
  0
VERTEX
  8
0
 10
1030.525487
 20
1139.140427
 42
-0.011252
  0
VERTEX
  8
0
 10
1025.717951
 20
1139.389871
 42
-0.004240
  0
VERTEX
  8
0
 10
1019.004607
 20
1139.947158
 42
0.000000
  0
VERTEX
  8
0
 10
1003.198435
 20
1141.394316
 42
0.000000
  0
VERTEX
  8
0
 10
1002.002296
 20
1145.386672
 42
0.096040
  0
VERTEX
  8
0
 10
999.586369
 20
1149.998043
 42
0.032074
  0
VERTEX
  8
0
 10
994.438438
 20
1155.656294
 42
0.031704
  0
VERTEX
  8
0
 10
988.045611
 20
1161.096600
 42
0.040557
  0
VERTEX
  8
0
 10
981.500000
 20
1165.206019
 42
0.019530
  0
VERTEX
  8
0
 10
973.830090
 20
1168.821512
 42
0.022343
  0
VERTEX
  8
0
 10
966.233881
 20
1171.652708
 42
0.015671
  0
VERTEX
  8
0
 10
959.675165
 20
1173.543991
 42
0.327389
  0
VERTEX
  8
0
 10
957.889018
 20
1172.823580
 42
0.327867
  0
VERTEX
  8
0
 10
957.950548
 20
1172.046402
 42
0.086587
  0
VERTEX
  8
0
 10
958.975468
 20
1171.208395
 42
0.038509
  0
VERTEX
  8
0
 10
961.125233
 20
1170.207655
 42
0.008501
  0
VERTEX
  8
0
 10
964.959166
 20
1168.844128
 42
-0.030298
  0
VERTEX
  8
0
 10
976.518094
 20
1164.156527
 42
-0.040176
  0
VERTEX
  8
0
 10
986.329506
 20
1158.458366
 42
-0.045989
  0
VERTEX
  8
0
 10
993.830108
 20
1152.161433
 42
-0.085414
  0
VERTEX
  8
0
 10
998.368783
 20
1145.668788
 42
-0.009670
  0
VERTEX
  8
0
 10
999.035307
 20
1144.177594
 42
-0.015234
  0
VERTEX
  8
0
 10
999.542995
 20
1142.870710
 42
-0.009248
  0
VERTEX
  8
0
 10
999.904498
 20
1141.785542
 42
-0.287889
  0
VERTEX
  8
0
 10
999.835455
 20
1141.523414
 42
-0.146862
  0
VERTEX
  8
0
 10
999.524943
 20
1141.369187
 42
-0.000525
  0
VERTEX
  8
0
 10
995.428038
 20
1140.673080
 42
-0.002723
  0
VERTEX
  8
0
 10
990.769412
 20
1139.912636
 42
-0.001699
  0
VERTEX
  8
0
 10
985.302548
 20
1139.069826
 42
0.000000
  0
VERTEX
  8
0
 10
971.105096
 20
1136.930401
 42
0.000000
  0
VERTEX
  8
0
 10
964.802548
 20
1139.612065
 42
0.022262
  0
VERTEX
  8
0
 10
948.220355
 20
1145.811419
 42
0.010961
  0
VERTEX
  8
0
 10
926.650701
 20
1152.279299
 42
0.010739
  0
VERTEX
  8
0
 10
903.548032
 20
1158.127478
 42
0.013674
  0
VERTEX
  8
0
 10
882.000000
 20
1162.475472
 42
0.005197
  0
VERTEX
  8
0
 10
866.743830
 20
1164.958928
 42
0.008032
  0
VERTEX
  8
0
 10
853.510000
 20
1166.755236
 42
0.007720
  0
VERTEX
  8
0
 10
839.851460
 20
1168.172701
 42
0.004340
  0
VERTEX
  8
0
 10
823.226776
 20
1169.493630
 42
-0.001930
  0
VERTEX
  8
0
 10
806.845246
 20
1170.715814
 42
-0.003841
  0
VERTEX
  8
0
 10
793.885028
 20
1171.833302
 42
-0.004780
  0
VERTEX
  8
0
 10
783.259049
 20
1172.934390
 42
-0.007586
  0
VERTEX
  8
0
 10
774.186706
 20
1174.101898
 42
-0.040127
  0
VERTEX
  8
0
 10
768.817177
 20
1175.321636
 42
-0.008383
  0
VERTEX
  8
0
 10
759.648821
 20
1178.363440
 42
-0.006359
  0
VERTEX
  8
0
 10
746.594822
 20
1183.125960
 42
-0.002022
  0
VERTEX
  8
0
 10
727.268603
 20
1190.546134
 42
-0.001056
  0
VERTEX
  8
0
 10
712.035619
 20
1196.502601
 42
-0.001705
  0
VERTEX
  8
0
 10
699.095524
 20
1201.645055
 42
-0.000254
  0
VERTEX
  8
0
 10
687.634396
 20
1206.251845
 42
-0.117105
  0
VERTEX
  8
0
 10
686.975513
 20
1206.718103
 42
-0.017239
  0
VERTEX
  8
0
 10
680.685130
 20
1214.381259
 42
-0.003964
  0
VERTEX
  8
0
 10
670.627635
 20
1227.751463
 42
-0.004325
  0
VERTEX
  8
0
 10
660.415380
 20
1241.806496
 42
-0.009379
  0
VERTEX
  8
0
 10
652.867925
 20
1252.816286
 42
0.007826
  0
VERTEX
  8
0
 10
644.999829
 20
1264.370580
 42
0.023317
  0
VERTEX
  8
0
 10
639.130517
 20
1271.931294
 42
0.027234
  0
VERTEX
  8
0
 10
633.105406
 20
1278.255350
 42
0.014247
  0
VERTEX
  8
0
 10
624.974516
 20
1285.483004
 42
0.014360
  0
VERTEX
  8
0
 10
618.092836
 20
1290.928854
 42
0.043744
  0
VERTEX
  8
0
 10
613.025981
 20
1294.058414
 42
0.064632
  0
VERTEX
  8
0
 10
608.747752
 20
1295.556315
 42
0.080156
  0
VERTEX
  8
0
 10
604.539395
 20
1295.757330
 42
-0.017774
  0
VERTEX
  8
0
 10
601.724093
 20
1295.540979
 42
-0.151672
  0
VERTEX
  8
0
 10
600.515375
 20
1295.862390
 42
-0.146158
  0
VERTEX
  8
0
 10
599.679453
 20
1296.816268
 42
-0.016131
  0
VERTEX
  8
0
 10
598.543954
 20
1299.524079
 42
0.040844
  0
VERTEX
  8
0
 10
597.568189
 20
1301.562504
 42
0.015283
  0
VERTEX
  8
0
 10
595.886402
 20
1304.253022
 42
0.015023
  0
VERTEX
  8
0
 10
593.866827
 20
1307.086337
 42
0.017628
  0
VERTEX
  8
0
 10
591.781124
 20
1309.641630
 42
-0.034747
  0
VERTEX
  8
0
 10
583.026780
 20
1321.149165
 42
-0.016146
  0
VERTEX
  8
0
 10
573.235095
 20
1337.170482
 42
-0.010737
  0
VERTEX
  8
0
 10
560.759622
 20
1360.290095
 42
-0.003225
  0
VERTEX
  8
0
 10
542.758963
 20
1396.000000
 42
0.001462
  0
VERTEX
  8
0
 10
535.153510
 20
1411.221022
 42
0.001359
  0
VERTEX
  8
0
 10
527.273276
 20
1426.771875
 42
0.001354
  0
VERTEX
  8
0
 10
520.191430
 20
1440.561064
 42
0.004595
  0
VERTEX
  8
0
 10
515.465326
 20
1449.500000
 42
0.003903
  0
VERTEX
  8
0
 10
507.141497
 20
1464.616191
 42
0.001091
  0
VERTEX
  8
0
 10
493.883314
 20
1488.134261
 42
0.000585
  0
VERTEX
  8
0
 10
480.229571
 20
1512.165429
 42
0.014182
  0
VERTEX
  8
0
 10
476.226736
 20
1518.750000
 42
-0.348089
  0
VERTEX
  8
0
 10
476.363798
 20
1520.182890
 42
-0.206561
  0
VERTEX
  8
0
 10
478.034813
 20
1520.885641
 42
-0.020609
  0
VERTEX
  8
0
 10
483.593746
 20
1520.604640
 42
-0.000631
  0
SEQEND
  0
POLYLINE
  8
0
 66
1
 70
1
  0
VERTEX
  8
0
 10
1423.764813
 20
1508.303291
 42
-0.010901
  0
VERTEX
  8
0
 10
1427.576810
 20
1506.858828
 42
-0.046865
  0
VERTEX
  8
0
 10
1429.729699
 20
1505.744374
 42
-0.082812
  0
VERTEX
  8
0
 10
1430.975384
 20
1504.614744
 42
-0.106163
  0
VERTEX
  8
0
 10
1431.657206
 20
1503.229664
 42
-0.068700
  0
VERTEX
  8
0
 10
1432.239351
 20
1497.896245
 42
-0.003401
  0
VERTEX
  8
0
 10
1431.615237
 20
1480.205918
 42
-0.005782
  0
VERTEX
  8
0
 10
1430.683260
 20
1462.844792
 42
-0.021705
  0
VERTEX
  8
0
 10
1429.500889
 20
1452.000000
 42
-0.005644
  0
VERTEX
  8
0
 10
1428.702772
 20
1447.155743
 42
-0.003067
  0
VERTEX
  8
0
 10
1427.618549
 20
1441.221396
 42
-0.003055
  0
VERTEX
  8
0
 10
1426.441629
 20
1435.197802
 42
-0.004835
  0
VERTEX
  8
0
 10
1425.351555
 20
1430.051561
 42
-0.013909
  0
VERTEX
  8
0
 10
1422.638661
 20
1419.256995
 42
-0.006946
  0
VERTEX
  8
0
 10
1418.638729
 20
1405.751013
 42
-0.001411
  0
VERTEX
  8
0
 10
1414.234720
 20
1391.744791
 42
-0.349039
  0
VERTEX
  8
0
 10
1413.211204
 20
1391.056978
 42
-0.107112
  0
VERTEX
  8
0
 10
1412.701738
 20
1391.210873
 42
-0.001045
  0
VERTEX
  8
0
 10
1409.330791
 20
1393.091384
 42
-0.003395
  0
VERTEX
  8
0
 10
1405.459181
 20
1395.296494
 42
-0.002186
  0
VERTEX
  8
0
 10
1401.000000
 20
1397.902602
 42
-0.004897
  0
VERTEX
  8
0
 10
1394.631971
 20
1401.746355
 42
-0.032008
  0
VERTEX
  8
0
 10
1391.586417
 20
1403.906157
 42
-0.071681
  0
VERTEX
  8
0
 10
1390.086341
 20
1405.526631
 42
-0.168212
  0
VERTEX
  8
0
 10
1389.651411
 20
1407.095624
 42
0.008265
  0
VERTEX
  8
0
 10
1391.043114
 20
1437.093742
 42
0.008957
  0
VERTEX
  8
0
 10
1391.391503
 20
1466.328189
 42
0.009558
  0
VERTEX
  8
0
 10
1390.737969
 20
1492.348509
 42
0.021218
  0
VERTEX
  8
0
 10
1389.021722
 20
1512.104533
 42
-0.000734
  0
VERTEX
  8
0
 10
1388.651658
 20
1514.988633
 42
-0.001071
  0
VERTEX
  8
0
 10
1388.334673
 20
1517.531760
 42
-0.000520
  0
VERTEX
  8
0
 10
1388.072005
 20
1519.695162
 42
-0.018850
  0
VERTEX
  8
0
 10
1388.030876
 20
1520.195076
 42
-0.523762
  0
VERTEX
  8
0
 10
1388.420585
 20
1520.491480
 42
-0.001636
  0
VERTEX
  8
0
 10
1395.347937
 20
1518.211296
 42
-0.004023
  0
VERTEX
  8
0
 10
1405.439532
 20
1514.762508
 42
-0.000764
  0
SEQEND
  0
POLYLINE
  8
0
 66
1
 70
1
  0
VERTEX
  8
0
 10
1744.000000
 20
1515.640263
 42
-0.112346
  0
VERTEX
  8
0
 10
1743.936920
 20
1515.363066
 42
-0.000065
  0
VERTEX
  8
0
 10
1740.296385
 20
1507.780935
 42
-0.000840
  0
VERTEX
  8
0
 10
1736.225999
 20
1499.342728
 42
-0.000512
  0
VERTEX
  8
0
 10
1731.391950
 20
1489.390263
 42
0.001179
  0
VERTEX
  8
0
 10
1716.199219
 20
1458.004713
 42
0.001123
  0
VERTEX
  8
0
 10
1700.908309
 20
1426.041979
 42
0.001042
  0
VERTEX
  8
0
 10
1687.630550
 20
1397.975775
 42
0.005197
  0
VERTEX
  8
0
 10
1680.376382
 20
1382.133667
 42
0.011523
  0
VERTEX
  8
0
 10
1675.158675
 20
1369.652556
 42
0.007305
  0
VERTEX
  8
0
 10
1669.629601
 20
1354.887770
 42
0.007279
  0
VERTEX
  8
0
 10
1664.491793
 20
1339.846008
 42
0.010765
  0
VERTEX
  8
0
 10
1660.464682
 20
1326.500000
 42
-0.005649
  0
VERTEX
  8
0
 10
1659.323404
 20
1322.572913
 42
-0.007612
  0
VERTEX
  8
0
 10
1658.196619
 20
1319.047398
 42
-0.005430
  0
VERTEX
  8
0
 10
1657.179793
 20
1316.130566
 42
-0.078213
  0
VERTEX
  8
0
 10
1656.653131
 20
1315.171992
 42
-0.097594
  0
VERTEX
  8
0
 10
1654.821101
 20
1313.572564
 42
-0.016628
  0
VERTEX
  8
0
 10
1650.714698
 20
1311.382824
 42
-0.016613
  0
VERTEX
  8
0
 10
1646.472020
 20
1309.470746
 42
-0.097859
  0
VERTEX
  8
0
 10
1644.089827
 20
1309.000000
 42
-0.048600
  0
VERTEX
  8
0
 10
1640.992022
 20
1309.301820
 42
-0.000241
  0
VERTEX
  8
0
 10
1610.171240
 20
1315.380562
 42
-0.000081
  0
VERTEX
  8
0
 10
1578.427563
 20
1321.662588
 42
-0.155818
  0
VERTEX
  8
0
 10
1577.523187
 20
1322.162168
 42
-0.450074
  0
VERTEX
  8
0
 10
1577.544922
 20
1322.406090
 42
-0.000629
  0
VERTEX
  8
0
 10
1581.725307
 20
1325.485137
 42
-0.003932
  0
VERTEX
  8
0
 10
1586.519658
 20
1328.949375
 42
-0.002345
  0
VERTEX
  8
0
 10
1592.276434
 20
1333.000000
 42
0.003912
  0
VERTEX
  8
0
 10
1608.996018
 20
1344.842846
 42
0.005967
  0
VERTEX
  8
0
 10
1623.300822
 20
1355.405754
 42
0.006096
  0
VERTEX
  8
0
 10
1634.598089
 20
1364.176736
 42
0.031072
  0
VERTEX
  8
0
 10
1640.500000
 20
1369.506343
 42
0.049174
  0
VERTEX
  8
0
 10
1645.806252
 20
1376.123175
 42
0.016622
  0
VERTEX
  8
0
 10
1652.210802
 20
1386.701529
 42
0.011535
  0
VERTEX
  8
0
 10
1660.434542
 20
1402.190294
 42
0.003657
  0
VERTEX
  8
0
 10
1671.993282
 20
1425.654740
 42
0.007913
  0
VERTEX
  8
0
 10
1681.745297
 20
1446.664336
 42
0.020517
  0
VERTEX
  8
0
 10
1687.900896
 20
1462.178563
 42
0.020730
  0
VERTEX
  8
0
 10
1692.728767
 20
1478.053143
 42
0.008228
  0
VERTEX
  8
0
 10
1698.086326
 20
1500.202273
 42
-0.002913
  0
VERTEX
  8
0
 10
1700.197460
 20
1509.354793
 42
-0.034392
  0
VERTEX
  8
0
 10
1701.279876
 20
1512.838162
 42
-0.106067
  0
VERTEX
  8
0
 10
1702.383159
 20
1514.517076
 42
-0.157190
  0
VERTEX
  8
0
 10
1703.943741
 20
1515.302441
 42
-0.035346
  0
VERTEX
  8
0
 10
1708.188370
 20
1515.658773
 42
-0.001164
  0
VERTEX
  8
0
 10
1725.194947
 20
1515.841793
 42
-0.000183
  0
VERTEX
  8
0
 10
1743.646905
 20
1515.990650
 42
-0.416471
  0
SEQEND
  0
POLYLINE
  8
0
 66
1
 70
1
  0
VERTEX
  8
0
 10
1697.510342
 20
1511.750000
 42
-0.010950
  0
VERTEX
  8
0
 10
1695.264087
 20
1501.651456
 42
-0.003106
  0
VERTEX
  8
0
 10
1691.329625
 20
1486.046423
 42
-0.002953
  0
VERTEX
  8
0
 10
1687.238251
 20
1470.610516
 42
-0.013583
  0
VERTEX
  8
0
 10
1684.572424
 20
1461.747323
 42
-0.027500
  0
VERTEX
  8
0
 10
1680.140328
 20
1450.465129
 42
-0.003741
  0
VERTEX
  8
0
 10
1669.407104
 20
1427.474971
 42
-0.004613
  0
VERTEX
  8
0
 10
1658.007787
 20
1404.085680
 42
-0.012160
  0
VERTEX
  8
0
 10
1649.284346
 20
1387.613683
 42
-0.022754
  0
VERTEX
  8
0
 10
1643.831601
 20
1378.855413
 42
-0.040416
  0
VERTEX
  8
0
 10
1638.469651
 20
1372.267279
 42
-0.031995
  0
VERTEX
  8
0
 10
1631.304848
 20
1365.687071
 42
-0.009390
  0
VERTEX
  8
0
 10
1619.500000
 20
1356.522555
 42
-0.004193
  0
VERTEX
  8
0
 10
1606.115026
 20
1346.702198
 42
-0.002783
  0
VERTEX
  8
0
 10
1590.602557
 20
1335.650537
 42
-0.000390
  0
VERTEX
  8
0
 10
1574.615145
 20
1324.412791
 42
-0.154179
  0
VERTEX
  8
0
 10
1573.308292
 20
1324.000000
 42
-0.146917
  0
VERTEX
  8
0
 10
1572.874164
 20
1324.130376
 42
-0.001913
  0
VERTEX
  8
0
 10
1570.487572
 20
1325.719092
 42
-0.005332
  0
VERTEX
  8
0
 10
1567.735498
 20
1327.609222
 42
-0.003451
  0
VERTEX
  8
0
 10
1564.589507
 20
1329.852228
 42
0.003876
  0
VERTEX
  8
0
 10
1561.309060
 20
1332.186896
 42
0.004459
  0
VERTEX
  8
0
 10
1558.141918
 20
1334.362313
 42
0.004018
  0
VERTEX
  8
0
 10
1555.427491
 20
1336.159810
 42
0.025667
  0
VERTEX
  8
0
 10
1554.000000
 20
1336.987683
 42
-0.003533
  0
VERTEX
  8
0
 10
1553.016561
 20
1337.501284
 42
-0.004693
  0
VERTEX
  8
0
 10
1552.130019
 20
1337.983007
 42
-0.003369
  0
VERTEX
  8
0
 10
1551.394588
 20
1338.398118
 42
-0.046482
  0
VERTEX
  8
0
 10
1551.144746
 20
1338.574042
 42
-0.413580
  0
VERTEX
  8
0
 10
1551.123298
 20
1338.841295
 42
-0.000139
  0
VERTEX
  8
0
 10
1558.488829
 20
1347.506304
 42
-0.001855
  0
VERTEX
  8
0
 10
1566.756055
 20
1357.153888
 42
-0.001112
  0
VERTEX
  8
0
 10
1576.644746
 20
1368.556068
 42
0.001535
  0
VERTEX
  8
0
 10
1586.935816
 20
1380.442545
 42
0.001883
  0
VERTEX
  8
0
 10
1596.473263
 20
1391.611963
 42
0.001564
  0
VERTEX
  8
0
 10
1604.425286
 20
1401.055744
 42
0.013547
  0
VERTEX
  8
0
 10
1607.838703
 20
1405.367480
 42
0.013592
  0
VERTEX
  8
0
 10
1618.804447
 20
1420.879321
 42
0.007081
  0
VERTEX
  8
0
 10
1631.667518
 20
1440.771149
 42
0.005250
  0
VERTEX
  8
0
 10
1643.443081
 20
1460.005326
 42
0.049029
  0
VERTEX
  8
0
 10
1647.586464
 20
1468.786416
 42
0.059771
  0
VERTEX
  8
0
 10
1648.208940
 20
1471.525034
 42
0.012023
  0
VERTEX
  8
0
 10
1648.609374
 20
1476.516316
 42
0.009773
  0
VERTEX
  8
0
 10
1648.863437
 20
1483.480250
 42
0.003701
  0
VERTEX
  8
0
 10
1648.956107
 20
1493.213788
 42
0.000000
  0
VERTEX
  8
0
 10
1649.000000
 20
1513.927576
 42
0.000000
  0
VERTEX
  8
0
 10
1658.750000
 20
1514.254498
 42
-0.002074
  0
VERTEX
  8
0
 10
1663.521003
 20
1514.394660
 42
-0.000852
  0
VERTEX
  8
0
 10
1669.992090
 20
1514.546866
 42
-0.000843
  0
VERTEX
  8
0
 10
1676.937960
 20
1514.686675
 42
-0.001082
  0
VERTEX
  8
0
 10
1683.329455
 20
1514.790710
 42
0.000000
  0
VERTEX
  8
0
 10
1698.158911
 20
1515.000000
 42
0.000000
  0
SEQEND
  0
POLYLINE
  8
0
 66
1
 70
1
  0
VERTEX
  8
0
 10
1645.500000
 20
1491.965635
 42
0.000000
  0
VERTEX
  8
0
 10
1645.500000
 20
1470.431269
 42
0.000000
  0
VERTEX
  8
0
 10
1639.747565
 20
1460.176899
 42
-0.013949
  0
VERTEX
  8
0
 10
1626.648581
 20
1438.281072
 42
-0.015886
  0
VERTEX
  8
0
 10
1612.878117
 20
1418.100471
 42
-0.013922
  0
VERTEX
  8
0
 10
1596.379734
 20
1396.772223
 42
-0.007324
  0
VERTEX
  8
0
 10
1574.768003
 20
1371.160195
 42
0.000000
  0
VERTEX
  8
0
 10
1547.511525
 20
1339.802180
 42
0.000000
  0
VERTEX
  8
0
 10
1543.594969
 20
1340.327500
 42
0.056242
  0
VERTEX
  8
0
 10
1538.887940
 20
1340.426202
 42
0.012557
  0
VERTEX
  8
0
 10
1530.892350
 20
1339.490379
 42
0.013547
  0
VERTEX
  8
0
 10
1522.773387
 20
1338.107428
 42
0.036342
  0
VERTEX
  8
0
 10
1517.124273
 20
1336.553343
 42
-0.001563
  0
VERTEX
  8
0
 10
1515.430331
 20
1335.957963
 42
-0.002430
  0
VERTEX
  8
0
 10
1513.965729
 20
1335.456294
 42
-0.000703
  0
VERTEX
  8
0
 10
1512.689932
 20
1335.028209
 42
-0.080758
  0
VERTEX
  8
0
 10
1512.516418
 20
1335.000000
 42
-0.310884
  0
VERTEX
  8
0
 10
1512.388839
 20
1335.087811
 42
-0.000150
  0
VERTEX
  8
0
 10
1510.515017
 20
1339.993750
 42
-0.001867
  0
VERTEX
  8
0
 10
1508.444246
 20
1345.481622
 42
-0.001127
  0
VERTEX
  8
0
 10
1506.029105
 20
1352.000000
 42
0.004401
  0
VERTEX
  8
0
 10
1503.565635
 20
1358.517474
 42
0.007142
  0
VERTEX
  8
0
 10
1501.344867
 20
1364.006250
 42
0.002165
  0
VERTEX
  8
0
 10
1499.351281
 20
1368.681303
 42
0.299334
  0
VERTEX
  8
0
 10
1498.866637
 20
1369.000000
 42
-0.437242
  0
VERTEX
  8
0
 10
1498.640810
 20
1369.244161
 42
-0.046084
  0
VERTEX
  8
0
 10
1498.788172
 20
1370.102208
 42
-0.034279
  0
VERTEX
  8
0
 10
1499.203670
 20
1371.312427
 42
-0.018126
  0
VERTEX
  8
0
 10
1499.873581
 20
1372.752198
 42
0.024880
  0
VERTEX
  8
0
 10
1500.815019
 20
1374.849101
 42
0.005854
  0
VERTEX
  8
0
 10
1502.171354
 20
1378.446673
 42
0.006015
  0
VERTEX
  8
0
 10
1503.634518
 20
1382.625505
 42
0.005886
  0
VERTEX
  8
0
 10
1505.007721
 20
1386.868601
 42
0.000000
  0
VERTEX
  8
0
 10
1508.227633
 20
1397.232806
 42
0.000000
  0
VERTEX
  8
0
 10
1512.363816
 20
1396.586282
 42
0.013383
  0
VERTEX
  8
0
 10
1514.598312
 20
1396.298033
 42
0.003408
  0
VERTEX
  8
0
 10
1518.234960
 20
1395.952572
 42
0.003472
  0
VERTEX
  8
0
 10
1522.394310
 20
1395.615136
 42
0.003511
  0
VERTEX
  8
0
 10
1526.542429
 20
1395.336859
 42
0.007264
  0
VERTEX
  8
0
 10
1531.778782
 20
1395.098775
 42
0.025580
  0
VERTEX
  8
0
 10
1535.148200
 20
1395.166981
 42
0.039873
  0
VERTEX
  8
0
 10
1537.566047
 20
1395.535103
 42
0.061900
  0
VERTEX
  8
0
 10
1539.542429
 20
1396.266493
 42
0.050854
  0
VERTEX
  8
0
 10
1543.591833
 20
1398.917797
 42
0.019501
  0
VERTEX
  8
0
 10
1548.656015
 20
1403.362271
 42
0.016287
  0
VERTEX
  8
0
 10
1554.578410
 20
1409.362009
 42
0.009214
  0
VERTEX
  8
0
 10
1561.375815
 20
1416.989573
 42
0.016151
  0
VERTEX
  8
0
 10
1575.479132
 20
1434.530680
 42
0.028137
  0
VERTEX
  8
0
 10
1585.840417
 20
1450.051613
 42
0.026123
  0
VERTEX
  8
0
 10
1594.883177
 20
1467.415423
 42
0.011876
  0
VERTEX
  8
0
 10
1604.956051
 20
1490.966958
 42
-0.004277
  0
VERTEX
  8
0
 10
1608.449878
 20
1499.491945
 42
-0.015979
  0
VERTEX
  8
0
 10
1610.861678
 20
1504.758207
 42
-0.020472
  0
VERTEX
  8
0
 10
1612.705330
 20
1508.114172
 42
-0.169904
  0
VERTEX
  8
0
 10
1614.024108
 20
1509.204621
 42
-0.034730
  0
VERTEX
  8
0
 10
1615.321308
 20
1509.584502
 42
-0.004327
  0
VERTEX
  8
0
 10
1618.196916
 20
1510.187785
 42
-0.005083
  0
VERTEX
  8
0
 10
1621.629965
 20
1510.840824
 42
-0.004191
  0
VERTEX
  8
0
 10
1625.303762
 20
1511.469295
 42
-0.001559
  0
VERTEX
  8
0
 10
1633.296055
 20
1512.742117
 42
-0.008459
  0
VERTEX
  8
0
 10
1637.643062
 20
1513.345373
 42
-0.015590
  0
VERTEX
  8
0
 10
1640.558823
 20
1513.607911
 42
-0.026714
  0
VERTEX
  8
0
 10
1643.000000
 20
1513.620620
 42
0.000000
  0
VERTEX
  8
0
 10
1645.500000
 20
1513.500000
 42
0.000000
  0
SEQEND
  0
POLYLINE
  8
0
 66
1
 70
1
  0
VERTEX
  8
0
 10
663.639195
 20
1512.379923
 42
0.000000
  0
VERTEX
  8
0
 10
669.571772
 20
1511.759846
 42
0.000000
  0
VERTEX
  8
0
 10
676.202399
 20
1501.129923
 42
0.013859
  0
VERTEX
  8
0
 10
685.907862
 20
1486.490302
 42
0.022128
  0
VERTEX
  8
0
 10
695.077980
 20
1474.611016
 42
0.025704
  0
VERTEX
  8
0
 10
703.367565
 20
1465.766858
 42
0.073787
  0
VERTEX
  8
0
 10
710.204636
 20
1460.895602
 42
0.071411
  0
VERTEX
  8
0
 10
715.202902
 20
1459.188235
 42
0.030386
  0
VERTEX
  8
0
 10
722.236643
 20
1458.298462
 42
0.030360
  0
VERTEX
  8
0
 10
729.563289
 20
1458.266391
 42
0.052188
  0
VERTEX
  8
0
 10
735.583299
 20
1459.241641
 42
0.000000
  0
VERTEX
  8
0
 10
740.666599
 20
1460.620543
 42
0.000000
  0
VERTEX
  8
0
 10
754.416670
 20
1419.226975
 42
-0.001341
  0
VERTEX
  8
0
 10
759.653236
 20
1403.320163
 42
-0.002213
  0
VERTEX
  8
0
 10
763.982522
 20
1389.847632
 42
-0.000221
  0
VERTEX
  8
0
 10
767.787081
 20
1377.807100
 42
-0.279723
  0
VERTEX
  8
0
 10
767.672662
 20
1377.339328
 42
-0.314695
  0
VERTEX
  8
0
 10
766.416180
 20
1377.116354
 42
-0.001126
  0
VERTEX
  8
0
 10
751.971824
 20
1383.852860
 42
-0.005274
  0
VERTEX
  8
0
 10
738.913987
 20
1390.147458
 42
-0.029150
  0
VERTEX
  8
0
 10
732.137776
 20
1394.009480
 42
-0.047591
  0
VERTEX
  8
0
 10
716.071933
 20
1406.774788
 42
-0.016339
  0
VERTEX
  8
0
 10
695.332640
 20
1428.094699
 42
-0.015589
  0
VERTEX
  8
0
 10
673.160831
 20
1454.008071
 42
-0.014455
  0
VERTEX
  8
0
 10
652.060306
 20
1481.899689
 42
-0.009554
  0
VERTEX
  8
0
 10
646.708617
 20
1489.728207
 42
-0.004598
  0
VERTEX
  8
0
 10
640.134648
 20
1499.954314
 42
-0.001122
  0
VERTEX
  8
0
 10
633.432249
 20
1510.647174
 42
-0.140324
  0
VERTEX
  8
0
 10
633.000000
 20
1512.157025
 42
-0.409936
  0
VERTEX
  8
0
 10
633.685960
 20
1512.853092
 42
-0.001838
  0
VERTEX
  8
0
 10
645.042096
 20
1512.977451
 42
-0.007948
  0
VERTEX
  8
0
 10
655.803409
 20
1512.884686
 42
-0.019910
  0
SEQEND
  0
POLYLINE
  8
0
 66
1
 70
1
  0
VERTEX
  8
0
 10
819.499851
 20
1510.250000
 42
-0.029526
  0
VERTEX
  8
0
 10
827.385860
 20
1487.095913
 42
-0.015319
  0
VERTEX
  8
0
 10
834.606938
 20
1457.407574
 42
-0.015259
  0
VERTEX
  8
0
 10
840.110947
 20
1426.715936
 42
-0.024560
  0
VERTEX
  8
0
 10
842.705556
 20
1400.276580
 42
0.000000
  0
VERTEX
  8
0
 10
843.301440
 20
1388.053159
 42
0.000000
  0
VERTEX
  8
0
 10
839.900720
 20
1389.161929
 42
0.053661
  0
VERTEX
  8
0
 10
837.781793
 20
1389.609028
 42
0.006708
  0
VERTEX
  8
0
 10
833.095002
 20
1390.019308
 42
0.007835
  0
VERTEX
  8
0
 10
827.497344
 20
1390.345632
 42
0.006422
  0
VERTEX
  8
0
 10
821.507798
 20
1390.523669
 42
0.000000
  0
VERTEX
  8
0
 10
806.515597
 20
1390.776639
 42
0.000000
  0
VERTEX
  8
0
 10
791.190585
 20
1437.487772
 42
-0.000732
  0
VERTEX
  8
0
 10
785.337178
 20
1455.417663
 42
-0.001214
  0
VERTEX
  8
0
 10
780.460476
 20
1470.555201
 42
-0.000064
  0
VERTEX
  8
0
 10
776.104681
 20
1484.195217
 42
-0.305174
  0
VERTEX
  8
0
 10
776.182786
 20
1484.463384
 42
-0.028262
  0
VERTEX
  8
0
 10
778.766124
 20
1486.380679
 42
-0.000291
  0
VERTEX
  8
0
 10
797.649395
 20
1498.789790
 42
-0.000062
  0
VERTEX
  8
0
 10
817.484733
 20
1511.804506
 42
-0.146166
  0
VERTEX
  8
0
 10
818.139182
 20
1512.000000
 42
-0.186458
  0
VERTEX
  8
0
 10
818.435606
 20
1511.885477
 42
-0.043163
  0
VERTEX
  8
0
 10
818.805700
 20
1511.485938
 42
-0.038835
  0
VERTEX
  8
0
 10
819.179124
 20
1510.919997
 42
-0.029589
  0
SEQEND
  0
POLYLINE
  8
0
 66
1
 70
1
  0
VERTEX
  8
0
 10
1601.960373
 20
1491.873053
 42
-0.007488
  0
VERTEX
  8
0
 10
1596.015075
 20
1477.581633
 42
-0.009293
  0
VERTEX
  8
0
 10
1590.040516
 20
1464.478006
 42
-0.010076
  0
VERTEX
  8
0
 10
1584.490805
 20
1453.458001
 42
-0.026814
  0
VERTEX
  8
0
 10
1579.961113
 20
1445.906342
 42
-0.020557
  0
VERTEX
  8
0
 10
1570.241996
 20
1432.715794
 42
-0.012127
  0
VERTEX
  8
0
 10
1557.626765
 20
1417.749909
 42
-0.009220
  0
VERTEX
  8
0
 10
1545.223302
 20
1404.249308
 42
-0.082084
  0
VERTEX
  8
0
 10
1538.799660
 20
1399.411618
 42
-0.086936
  0
VERTEX
  8
0
 10
1535.648795
 20
1398.408385
 42
-0.030831
  0
VERTEX
  8
0
 10
1530.913382
 20
1398.061270
 42
-0.024819
  0
VERTEX
  8
0
 10
1524.789840
 20
1398.294688
 42
-0.012778
  0
VERTEX
  8
0
 10
1517.164673
 20
1399.162200
 42
-0.004331
  0
VERTEX
  8
0
 10
1511.714743
 20
1399.971943
 42
-0.073243
  0
VERTEX
  8
0
 10
1509.983939
 20
1400.511871
 42
-0.244007
  0
VERTEX
  8
0
 10
1509.339158
 20
1401.371533
 42
-0.093119
  0
VERTEX
  8
0
 10
1509.371290
 20
1402.913477
 42
0.010565
  0
VERTEX
  8
0
 10
1509.951800
 20
1406.008475
 42
0.000281
  0
VERTEX
  8
0
 10
1512.220185
 20
1419.739841
 42
0.000618
  0
VERTEX
  8
0
 10
1514.367247
 20
1432.883751
 42
0.002610
  0
VERTEX
  8
0
 10
1515.603550
 20
1440.771973
 42
-0.104347
  0
VERTEX
  8
0
 10
1516.440254
 20
1443.007176
 42
-0.027934
  0
VERTEX
  8
0
 10
1518.663957
 20
1446.109011
 42
-0.018170
  0
VERTEX
  8
0
 10
1522.420109
 20
1450.442364
 42
-0.004770
  0
VERTEX
  8
0
 10
1528.751919
 20
1457.103697
 42
-0.005669
  0
VERTEX
  8
0
 10
1534.149706
 20
1462.550052
 42
-0.004981
  0
VERTEX
  8
0
 10
1539.905217
 20
1468.115124
 42
-0.005011
  0
VERTEX
  8
0
 10
1545.199692
 20
1473.033550
 42
-0.014978
  0
VERTEX
  8
0
 10
1548.952483
 20
1476.250178
 42
-0.014452
  0
VERTEX
  8
0
 10
1557.424094
 20
1482.687147
 42
-0.009870
  0
VERTEX
  8
0
 10
1567.395342
 20
1489.525236
 42
-0.009728
  0
VERTEX
  8
0
 10
1576.985072
 20
1495.563249
 42
-0.028109
  0
VERTEX
  8
0
 10
1583.922237
 20
1499.230243
 42
-0.017313
  0
VERTEX
  8
0
 10
1589.769889
 20
1501.671220
 42
-0.006658
  0
VERTEX
  8
0
 10
1598.046274
 20
1504.668923
 42
-0.001465
  0
VERTEX
  8
0
 10
1606.890940
 20
1507.710850
 42
-0.275786
  0
VERTEX
  8
0
 10
1607.793614
 20
1507.518575
 42
-0.303188
  0
VERTEX
  8
0
 10
1607.855121
 20
1507.260510
 42
-0.000523
  0
VERTEX
  8
0
 10
1606.201215
 20
1502.810309
 42
-0.003480
  0
VERTEX
  8
0
 10
1604.288390
 20
1497.786945
 42
-0.002115
  0
SEQEND
  0
POLYLINE
  8
0
 66
1
 70
1
  0
VERTEX
  8
0
 10
1451.185983
 20
1498.084791
 42
-0.000494
  0
VERTEX
  8
0
 10
1457.370610
 20
1495.688888
 42
-0.000562
  0
VERTEX
  8
0
 10
1463.289691
 20
1493.381471
 42
-0.000509
  0
VERTEX
  8
0
 10
1468.312542
 20
1491.411027
 42
-0.003151
  0
VERTEX
  8
0
 10
1470.885306
 20
1490.379952
 42
0.000000
  0
VERTEX
  8
0
 10
1475.270611
 20
1488.590321
 42
0.000000
  0
VERTEX
  8
0
 10
1474.702762
 20
1473.045160
 42
-0.007174
  0
VERTEX
  8
0
 10
1474.366214
 20
1466.433850
 42
-0.005986
  0
VERTEX
  8
0
 10
1473.823999
 20
1459.422641
 42
-0.006048
  0
VERTEX
  8
0
 10
1473.173404
 20
1453.019030
 42
-0.016357
  0
VERTEX
  8
0
 10
1472.508631
 20
1448.500000
 42
-0.015763
  0
VERTEX
  8
0
 10
1468.777096
 20
1431.017777
 42
-0.013090
  0
VERTEX
  8
0
 10
1463.740574
 20
1412.676387
 42
-0.012950
  0
VERTEX
  8
0
 10
1457.680085
 20
1394.392616
 42
-0.014373
  0
VERTEX
  8
0
 10
1450.871105
 20
1377.080063
 42
0.000000
  0
VERTEX
  8
0
 10
1445.708317
 20
1364.985748
 42
0.000000
  0
VERTEX
  8
0
 10
1440.604158
 20
1369.812288
 42
0.018998
  0
VERTEX
  8
0
 10
1436.187525
 20
1373.681738
 42
0.005081
  0
VERTEX
  8
0
 10
1428.871497
 20
1379.493427
 42
0.004527
  0
VERTEX
  8
0
 10
1421.505407
 20
1385.117457
 42
0.028202
  0
VERTEX
  8
0
 10
1417.552484
 20
1387.744987
 42
-0.296816
  0
VERTEX
  8
0
 10
1417.078793
 20
1388.692773
 42
-0.027776
  0
VERTEX
  8
0
 10
1417.539484
 20
1391.390675
 42
-0.019230
  0
VERTEX
  8
0
 10
1418.692747
 20
1395.672071
 42
-0.004122
  0
VERTEX
  8
0
 10
1421.038622
 20
1403.000000
 42
0.016094
  0
VERTEX
  8
0
 10
1426.970988
 20
1423.183026
 42
0.020966
  0
VERTEX
  8
0
 10
1431.018193
 20
1442.008234
 42
0.020751
  0
VERTEX
  8
0
 10
1433.503015
 20
1461.262546
 42
0.015253
  0
VERTEX
  8
0
 10
1434.714996
 20
1482.750000
 42
-0.001339
  0
VERTEX
  8
0
 10
1434.947437
 20
1490.898287
 42
-0.002232
  0
VERTEX
  8
0
 10
1435.192155
 20
1497.757812
 42
-0.000201
  0
VERTEX
  8
0
 10
1435.440292
 20
1503.877320
 42
-0.402276
  0
VERTEX
  8
0
 10
1435.568099
 20
1504.000000
 42
-0.090644
  0
VERTEX
  8
0
 10
1435.804348
 20
1503.956816
 42
-0.000115
  0
VERTEX
  8
0
 10
1440.281198
 20
1502.262408
 42
-0.001015
  0
VERTEX
  8
0
 10
1445.292886
 20
1500.352613
 42
-0.000624
  0
SEQEND
  0
POLYLINE
  8
0
 66
1
 70
1
  0
VERTEX
  8
0
 10
1486.639991
 20
1481.664108
 42
-0.031712
  0
VERTEX
  8
0
 10
1494.123065
 20
1475.355886
 42
-0.037368
  0
VERTEX
  8
0
 10
1500.316418
 20
1468.466946
 42
-0.036759
  0
VERTEX
  8
0
 10
1505.494514
 20
1460.633602
 42
-0.029040
  0
VERTEX
  8
0
 10
1509.937961
 20
1451.494383
 42
0.000000
  0
VERTEX
  8
0
 10
1512.944695
 20
1444.271884
 42
0.000000
  0
VERTEX
  8
0
 10
1510.944688
 20
1430.611593
 42
-0.010627
  0
VERTEX
  8
0
 10
1507.735590
 20
1411.531377
 42
-0.016240
  0
VERTEX
  8
0
 10
1504.067662
 20
1395.156547
 42
-0.018859
  0
VERTEX
  8
0
 10
1500.029207
 20
1381.650550
 42
-0.038615
  0
VERTEX
  8
0
 10
1495.672221
 20
1371.500000
 42
-0.052996
  0
VERTEX
  8
0
 10
1491.250271
 20
1364.874763
 42
-0.024224
  0
VERTEX
  8
0
 10
1484.207809
 20
1357.206305
 42
-0.023890
  0
VERTEX
  8
0
 10
1476.044102
 20
1349.875195
 42
-0.033314
  0
VERTEX
  8
0
 10
1468.041806
 20
1344.194344
 42
-0.003269
  0
VERTEX
  8
0
 10
1464.752115
 20
1342.203578
 42
-0.005008
  0
VERTEX
  8
0
 10
1461.873157
 20
1340.525839
 42
-0.001885
  0
VERTEX
  8
0
 10
1459.384697
 20
1339.121258
 42
-0.128219
  0
VERTEX
  8
0
 10
1458.919614
 20
1339.000000
 42
-0.303831
  0
VERTEX
  8
0
 10
1458.627257
 20
1339.195721
 42
-0.019814
  0
VERTEX
  8
0
 10
1458.258465
 20
1340.201956
 42
-0.023438
  0
VERTEX
  8
0
 10
1457.900092
 20
1341.523477
 42
-0.014846
  0
VERTEX
  8
0
 10
1457.601317
 20
1343.091766
 42
0.042373
  0
VERTEX
  8
0
 10
1456.694280
 20
1346.746605
 42
0.026832
  0
VERTEX
  8
0
 10
1455.058307
 20
1350.823521
 42
0.025582
  0
VERTEX
  8
0
 10
1452.871800
 20
1354.958461
 42
0.026480
  0
VERTEX
  8
0
 10
1450.297309
 20
1358.799269
 42
0.000000
  0
VERTEX
  8
0
 10
1447.823059
 20
1362.098537
 42
0.000000
  0
VERTEX
  8
0
 10
1453.439927
 20
1375.122713
 42
0.020972
  0
VERTEX
  8
0
 10
1463.454775
 20
1401.313399
 42
0.020764
  0
VERTEX
  8
0
 10
1471.277359
 20
1428.337466
 42
0.021927
  0
VERTEX
  8
0
 10
1476.355574
 20
1453.861063
 42
0.038156
  0
VERTEX
  8
0
 10
1478.000000
 20
1475.378338
 42
-0.005182
  0
VERTEX
  8
0
 10
1478.056701
 20
1480.848819
 42
-0.027356
  0
VERTEX
  8
0
 10
1478.282716
 20
1483.839617
 42
-0.054361
  0
VERTEX
  8
0
 10
1478.688799
 20
1485.508125
 42
-0.315769
  0
VERTEX
  8
0
 10
1479.389991
 20
1486.000000
 42
-0.124173
  0
VERTEX
  8
0
 10
1480.218815
 20
1485.790941
 42
-0.011206
  0
VERTEX
  8
0
 10
1482.093050
 20
1484.726332
 42
-0.014011
  0
VERTEX
  8
0
 10
1484.294175
 20
1483.324755
 42
-0.010497
  0
SEQEND
  0
POLYLINE
  8
0
 66
1
 70
1
  0
VERTEX
  8
0
 10
784.945061
 20
1446.500000
 42
0.000035
  0
VERTEX
  8
0
 10
789.500203
 20
1432.628220
 42
0.000037
  0
VERTEX
  8
0
 10
793.956807
 20
1419.063109
 42
0.000035
  0
VERTEX
  8
0
 10
797.789710
 20
1407.402136
 42
0.000175
  0
VERTEX
  8
0
 10
799.948883
 20
1400.842499
 42
0.000000
  0
VERTEX
  8
0
 10
803.790587
 20
1389.184998
 42
0.000000
  0
VERTEX
  8
0
 10
796.145293
 20
1386.474223
 42
0.010469
  0
VERTEX
  8
0
 10
792.650286
 20
1385.152004
 42
0.005774
  0
VERTEX
  8
0
 10
788.432330
 20
1383.397644
 42
0.005754
  0
VERTEX
  8
0
 10
784.194843
 20
1381.519430
 42
0.009194
  0
VERTEX
  8
0
 10
780.624341
 20
1379.807383
 42
-0.011182
  0
VERTEX
  8
0
 10
777.554869
 20
1378.350559
 42
-0.017681
  0
VERTEX
  8
0
 10
774.855877
 20
1377.255563
 42
-0.012020
  0
VERTEX
  8
0
 10
772.636059
 20
1376.505081
 42
-0.300374
  0
VERTEX
  8
0
 10
772.046453
 20
1376.675659
 42
-0.097672
  0
VERTEX
  8
0
 10
770.854763
 20
1378.801871
 42
-0.000161
  0
VERTEX
  8
0
 10
757.570295
 20
1419.459747
 42
-0.000102
  0
VERTEX
  8
0
 10
744.175444
 20
1460.528397
 42
-0.162688
  0
VERTEX
  8
0
 10
744.186705
 20
1462.034819
 42
-0.163103
  0
VERTEX
  8
0
 10
745.558079
 20
1463.826157
 42
-0.001765
  0
VERTEX
  8
0
 10
758.574737
 20
1472.551407
 42
-0.001109
  0
VERTEX
  8
0
 10
771.937184
 20
1481.397574
 42
-0.367330
  0
VERTEX
  8
0
 10
773.083915
 20
1481.257557
 42
-0.104156
  0
VERTEX
  8
0
 10
773.492762
 20
1480.571884
 42
-0.000312
  0
VERTEX
  8
0
 10
776.856475
 20
1470.735032
 42
-0.001794
  0
VERTEX
  8
0
 10
780.615589
 20
1459.588759
 42
-0.001119
  0
SEQEND
  0
POLYLINE
  8
0
 66
1
 70
1
  0
VERTEX
  8
0
 10
1510.997191
 20
1329.500000
 42
-0.000803
  0
VERTEX
  8
0
 10
1533.255866
 20
1268.407811
 42
-0.004460
  0
VERTEX
  8
0
 10
1544.868863
 20
1235.459979
 42
-0.005206
  0
VERTEX
  8
0
 10
1551.812558
 20
1214.474184
 42
-0.077435
  0
VERTEX
  8
0
 10
1553.000000
 20
1206.852857
 42
-0.022442
  0
VERTEX
  8
0
 10
1552.895883
 20
1204.534340
 42
-0.008937
  0
VERTEX
  8
0
 10
1552.553883
 20
1201.368979
 42
-0.008823
  0
VERTEX
  8
0
 10
1552.062841
 20
1197.962110
 42
-0.010976
  0
VERTEX
  8
0
 10
1551.481304
 20
1194.815376
 42
-0.010370
  0
VERTEX
  8
0
 10
1549.889351
 20
1187.873688
 42
-0.002859
  0
VERTEX
  8
0
 10
1547.098056
 20
1177.027687
 42
-0.000619
  0
VERTEX
  8
0
 10
1543.985725
 20
1165.273568
 42
-0.107952
  0
VERTEX
  8
0
 10
1543.396264
 20
1164.127799
 42
-0.428380
  0
VERTEX
  8
0
 10
1543.128430
 20
1164.108721
 42
-0.000245
  0
VERTEX
  8
0
 10
1536.630211
 20
1170.028376
 42
-0.002463
  0
VERTEX
  8
0
 10
1529.365446
 20
1176.718674
 42
-0.001474
  0
VERTEX
  8
0
 10
1520.794465
 20
1184.737535
 42
0.000581
  0
VERTEX
  8
0
 10
1512.041104
 20
1192.956395
 42
0.000811
  0
VERTEX
  8
0
 10
1504.190374
 20
1200.286711
 42
0.000487
  0
VERTEX
  8
0
 10
1497.560149
 20
1206.445284
 42
0.010623
  0
VERTEX
  8
0
 10
1495.577021
 20
1208.206902
 42
0.000000
  0
VERTEX
  8
0
 10
1492.654043
 20
1210.694331
 42
0.000000
  0
VERTEX
  8
0
 10
1494.433614
 20
1219.097165
 42
0.019451
  0
VERTEX
  8
0
 10
1495.151905
 20
1223.286605
 42
0.007507
  0
VERTEX
  8
0
 10
1495.833799
 20
1229.144167
 42
0.007420
  0
VERTEX
  8
0
 10
1496.384079
 20
1235.524176
 42
0.009088
  0
VERTEX
  8
0
 10
1496.701231
 20
1241.500000
 42
0.031044
  0
VERTEX
  8
0
 10
1496.273105
 20
1257.222946
 42
0.039190
  0
VERTEX
  8
0
 10
1493.846059
 20
1271.565587
 42
0.035348
  0
VERTEX
  8
0
 10
1488.963974
 20
1286.465380
 42
0.019270
  0
VERTEX
  8
0
 10
1481.010366
 20
1304.000000
 42
0.010943
  0
VERTEX
  8
0
 10
1476.177956
 20
1313.142000
 42
0.017148
  0
VERTEX
  8
0
 10
1471.587616
 20
1320.757641
 42
0.020067
  0
VERTEX
  8
0
 10
1467.248955
 20
1326.875472
 42
0.037551
  0
VERTEX
  8
0
 10
1463.195035
 20
1331.386703
 42
0.000000
  0
VERTEX
  8
0
 10
1459.135681
 20
1335.273406
 42
0.000000
  0
VERTEX
  8
0
 10
1467.180165
 20
1340.108282
 42
0.021986
  0
VERTEX
  8
0
 10
1475.832132
 20
1345.840463
 42
0.022388
  0
VERTEX
  8
0
 10
1483.893140
 20
1352.277730
 42
0.023756
  0
VERTEX
  8
0
 10
1490.550349
 20
1358.683350
 42
0.053882
  0
VERTEX
  8
0
 10
1494.770236
 20
1364.240188
 42
-0.029183
  0
VERTEX
  8
0
 10
1495.452840
 20
1365.237556
 42
-0.051686
  0
VERTEX
  8
0
 10
1496.140089
 20
1365.958016
 42
-0.076322
  0
VERTEX
  8
0
 10
1496.728907
 20
1366.321750
 42
-0.313694
  0
VERTEX
  8
0
 10
1497.117406
 20
1366.240188
 42
-0.098744
  0
VERTEX
  8
0
 10
1497.537580
 20
1365.568609
 42
-0.000253
  0
VERTEX
  8
0
 10
1501.482428
 20
1355.142430
 42
-0.001573
  0
VERTEX
  8
0
 10
1505.893399
 20
1343.354436
 42
-0.000978
  0
SEQEND
  0
POLYLINE
  8
0
 66
1
 70
1
  0
VERTEX
  8
0
 10
1413.961980
 20
1351.981523
 42
-0.019472
  0
VERTEX
  8
0
 10
1422.371060
 20
1349.410360
 42
-0.009826
  0
VERTEX
  8
0
 10
1432.767322
 20
1345.552582
 42
-0.009651
  0
VERTEX
  8
0
 10
1442.734851
 20
1341.405472
 42
-0.026533
  0
VERTEX
  8
0
 10
1449.534514
 20
1337.980253
 42
-0.045269
  0
VERTEX
  8
0
 10
1457.605031
 20
1332.337690
 42
-0.046713
  0
VERTEX
  8
0
 10
1464.435696
 20
1325.388548
 42
-0.037847
  0
VERTEX
  8
0
 10
1470.918158
 20
1316.069646
 42
-0.017149
  0
VERTEX
  8
0
 10
1478.021373
 20
1303.000000
 42
-0.019128
  0
VERTEX
  8
0
 10
1485.964855
 20
1285.461877
 42
-0.035026
  0
VERTEX
  8
0
 10
1490.855235
 20
1270.555552
 42
-0.039257
  0
VERTEX
  8
0
 10
1493.274431
 20
1256.335553
 42
-0.032670
  0
VERTEX
  8
0
 10
1493.653662
 20
1241.000000
 42
-0.026210
  0
VERTEX
  8
0
 10
1492.220075
 20
1225.629553
 42
-0.029746
  0
VERTEX
  8
0
 10
1489.209506
 20
1211.141522
 42
-0.028772
  0
VERTEX
  8
0
 10
1484.396845
 20
1196.709966
 42
-0.021854
  0
VERTEX
  8
0
 10
1477.547595
 20
1181.500000
 42
0.000000
  0
VERTEX
  8
0
 10
1471.500000
 20
1169.500000
 42
0.000000
  0
VERTEX
  8
0
 10
1464.500000
 20
1167.553092
 42
-0.033856
  0
VERTEX
  8
0
 10
1459.341500
 20
1166.488129
 42
-0.020850
  0
VERTEX
  8
0
 10
1453.166998
 20
1165.904710
 42
-0.010374
  0
VERTEX
  8
0
 10
1443.605821
 20
1165.600879
 42
-0.001576
  0
VERTEX
  8
0
 10
1424.500000
 20
1165.450565
 42
0.000000
  0
VERTEX
  8
0
 10
1391.500000
 20
1165.294945
 42
0.000000
  0
VERTEX
  8
0
 10
1379.000000
 20
1161.725551
 42
0.002139
  0
VERTEX
  8
0
 10
1373.049140
 20
1159.998711
 42
0.000999
  0
VERTEX
  8
0
 10
1365.353062
 20
1157.712981
 42
0.000989
  0
VERTEX
  8
0
 10
1357.289289
 20
1155.283113
 42
0.001386
  0
VERTEX
  8
0
 10
1350.095529
 20
1153.078079
 42
-0.001228
  0
VERTEX
  8
0
 10
1343.752511
 20
1151.131630
 42
-0.001923
  0
VERTEX
  8
0
 10
1338.285697
 20
1149.491686
 42
-0.000500
  0
VERTEX
  8
0
 10
1333.506295
 20
1148.083158
 42
-0.071520
  0
VERTEX
  8
0
 10
1332.927913
 20
1148.000000
 42
-0.478058
  0
VERTEX
  8
0
 10
1332.713434
 20
1148.265815
 42
-0.007514
  0
VERTEX
  8
0
 10
1333.215875
 20
1150.431255
 42
-0.013449
  0
VERTEX
  8
0
 10
1333.954853
 20
1153.102242
 42
-0.007760
  0
VERTEX
  8
0
 10
1334.979859
 20
1156.276612
 42
0.010471
  0
VERTEX
  8
0
 10
1336.241734
 20
1160.258246
 42
0.004824
  0
VERTEX
  8
0
 10
1337.725292
 20
1165.489872
 42
0.004775
  0
VERTEX
  8
0
 10
1339.180412
 20
1171.023873
 42
0.006600
  0
VERTEX
  8
0
 10
1340.372908
 20
1176.018423
 42
-0.006544
  0
VERTEX
  8
0
 10
1341.426853
 20
1180.434867
 42
-0.010218
  0
VERTEX
  8
0
 10
1342.461252
 20
1184.204940
 42
-0.004739
  0
VERTEX
  8
0
 10
1343.424007
 20
1187.342874
 42
-0.239919
  0
VERTEX
  8
0
 10
1343.862051
 20
1187.787350
 42
0.068720
  0
VERTEX
  8
0
 10
1344.446900
 20
1188.076366
 42
0.003368
  0
VERTEX
  8
0
 10
1346.227943
 20
1189.302529
 42
0.005408
  0
VERTEX
  8
0
 10
1348.324146
 20
1190.800568
 42
0.003874
  0
VERTEX
  8
0
 10
1350.636617
 20
1192.518894
 42
-0.013462
  0
VERTEX
  8
0
 10
1354.129549
 20
1195.011871
 42
-0.054563
  0
VERTEX
  8
0
 10
1356.440296
 20
1196.226450
 42
-0.065995
  0
VERTEX
  8
0
 10
1358.735608
 20
1196.795737
 42
-0.025834
  0
VERTEX
  8
0
 10
1362.000000
 20
1196.990718
 42
0.043935
  0
VERTEX
  8
0
 10
1372.532510
 20
1198.002995
 42
0.048945
  0
VERTEX
  8
0
 10
1382.335196
 20
1200.837102
 42
0.050507
  0
VERTEX
  8
0
 10
1391.131876
 20
1205.418781
 42
0.052878
  0
VERTEX
  8
0
 10
1398.684269
 20
1211.611122
 42
0.054795
  0
VERTEX
  8
0
 10
1405.561392
 20
1220.311409
 42
0.045539
  0
VERTEX
  8
0
 10
1410.889749
 20
1230.842853
 42
0.040086
  0
VERTEX
  8
0
 10
1414.749928
 20
1243.444412
 42
0.026601
  0
VERTEX
  8
0
 10
1417.219133
 20
1258.371797
 42
0.000000
  0
VERTEX
  8
0
 10
1418.428620
 20
1269.248982
 42
0.000000
  0
VERTEX
  8
0
 10
1429.714310
 20
1279.808046
 42
0.005808
  0
VERTEX
  8
0
 10
1434.039495
 20
1283.950023
 42
0.008870
  0
VERTEX
  8
0
 10
1437.684829
 20
1287.652090
 42
0.004169
  0
VERTEX
  8
0
 10
1440.676256
 20
1290.852887
 42
0.187984
  0
VERTEX
  8
0
 10
1441.000000
 20
1291.683555
 42
0.126781
  0
VERTEX
  8
0
 10
1440.778571
 20
1292.542797
 42
0.342894
  0
VERTEX
  8
0
 10
1440.236175
 20
1292.775775
 42
0.050522
  0
VERTEX
  8
0
 10
1438.965164
 20
1292.303285
 42
0.001636
  0
VERTEX
  8
0
 10
1434.071263
 20
1289.877747
 42
-0.045982
  0
VERTEX
  8
0
 10
1427.492020
 20
1287.314446
 42
-0.058728
  0
VERTEX
  8
0
 10
1421.075528
 20
1286.263864
 42
-0.046317
  0
VERTEX
  8
0
 10
1413.486429
 20
1286.625365
 42
-0.017422
  0
VERTEX
  8
0
 10
1403.000000
 20
1288.479525
 42
0.007471
  0
VERTEX
  8
0
 10
1383.735172
 20
1292.282620
 42
0.027311
  0
VERTEX
  8
0
 10
1371.387484
 20
1293.838632
 42
0.043980
  0
VERTEX
  8
0
 10
1362.704014
 20
1293.689634
 42
0.085955
  0
VERTEX
  8
0
 10
1356.065724
 20
1291.805536
 42
0.068768
  0
VERTEX
  8
0
 10
1350.708365
 20
1288.254387
 42
0.016794
  0
VERTEX
  8
0
 10
1342.985072
 20
1280.968506
 42
0.017476
  0
VERTEX
  8
0
 10
1335.697553
 20
1273.082875
 42
0.055004
  0
VERTEX
  8
0
 10
1331.628475
 20
1267.149811
 42
0.029223
  0
VERTEX
  8
0
 10
1329.110674
 20
1261.700557
 42
0.031836
  0
VERTEX
  8
0
 10
1327.327032
 20
1256.146624
 42
0.028293
  0
VERTEX
  8
0
 10
1326.117167
 20
1249.873466
 42
0.016213
  0
VERTEX
  8
0
 10
1325.335713
 20
1242.203230
 42
0.000000
  0
VERTEX
  8
0
 10
1324.692209
 20
1232.906460
 42
0.000000
  0
VERTEX
  8
0
 10
1317.943173
 20
1228.896931
 42
-0.038055
  0
VERTEX
  8
0
 10
1303.278571
 20
1221.631565
 42
-0.039657
  0
VERTEX
  8
0
 10
1287.880726
 20
1216.789984
 42
-0.042920
  0
VERTEX
  8
0
 10
1273.458253
 20
1214.763653
 42
-0.081358
  0
VERTEX
  8
0
 10
1261.826910
 20
1216.031345
 42
0.000000
  0
VERTEX
  8
0
 10
1258.153821
 20
1217.051536
 42
0.000000
  0
VERTEX
  8
0
 10
1261.974878
 20
1228.275768
 42
-0.010640
  0
VERTEX
  8
0
 10
1266.610652
 20
1240.999146
 42
-0.003139
  0
VERTEX
  8
0
 10
1274.249881
 20
1260.295510
 42
-0.002686
  0
VERTEX
  8
0
 10
1282.022598
 20
1279.279854
 42
-0.018204
  0
VERTEX
  8
0
 10
1286.255421
 20
1288.500000
 42
-0.032422
  0
VERTEX
  8
0
 10
1293.506174
 20
1300.829593
 42
-0.039348
  0
VERTEX
  8
0
 10
1301.883606
 20
1311.294054
 42
-0.032930
  0
VERTEX
  8
0
 10
1312.975330
 20
1321.652414
 42
-0.014695
  0
VERTEX
  8
0
 10
1328.817799
 20
1333.846558
 42
-0.003544
  0
VERTEX
  8
0
 10
1343.797170
 20
1344.529679
 42
-0.026132
  0
VERTEX
  8
0
 10
1351.234280
 20
1349.194274
 42
-0.049319
  0
VERTEX
  8
0
 10
1357.057495
 20
1351.720896
 42
-0.034484
  0
VERTEX
  8
0
 10
1364.009832
 20
1353.436088
 42
-0.034388
  0
VERTEX
  8
0
 10
1375.136996
 20
1354.599613
 42
-0.016139
  0
VERTEX
  8
0
 10
1389.614502
 20
1354.645414
 42
-0.015979
  0
VERTEX
  8
0
 10
1403.838150
 20
1353.775753
 42
-0.041216
  0
SEQEND
  0
POLYLINE
  8
0
 66
1
 70
1
  0
VERTEX
  8
0
 10
1551.783244
 20
1334.605822
 42
-0.019951
  0
VERTEX
  8
0
 10
1554.013026
 20
1333.359753
 42
-0.008676
  0
VERTEX
  8
0
 10
1556.876953
 20
1331.536790
 42
-0.008570
  0
VERTEX
  8
0
 10
1559.857732
 20
1329.491683
 42
-0.011288
  0
VERTEX
  8
0
 10
1562.500000
 20
1327.520092
 42
0.008854
  0
VERTEX
  8
0
 10
1565.068995
 20
1325.583640
 42
0.007698
  0
VERTEX
  8
0
 10
1567.826490
 20
1323.644810
 42
0.007765
  0
VERTEX
  8
0
 10
1570.376443
 20
1321.967274
 42
0.022510
  0
VERTEX
  8
0
 10
1572.207199
 20
1320.915781
 42
0.066888
  0
VERTEX
  8
0
 10
1577.501975
 20
1319.026395
 42
0.001161
  0
VERTEX
  8
0
 10
1607.478039
 20
1312.735687
 42
0.001489
  0
VERTEX
  8
0
 10
1636.950939
 20
1306.713474
 42
0.049685
  0
VERTEX
  8
0
 10
1644.113136
 20
1306.000000
 42
0.050404
  0
VERTEX
  8
0
 10
1645.535288
 20
1306.143729
 42
0.021286
  0
VERTEX
  8
0
 10
1647.400019
 20
1306.607992
 42
0.020802
  0
VERTEX
  8
0
 10
1649.365919
 20
1307.277351
 42
0.025499
  0
VERTEX
  8
0
 10
1651.136743
 20
1308.069761
 42
-0.010128
  0
VERTEX
  8
0
 10
1652.718245
 20
1308.836618
 42
-0.015907
  0
VERTEX
  8
0
 10
1654.109637
 20
1309.423940
 42
-0.010026
  0
VERTEX
  8
0
 10
1655.264217
 20
1309.842203
 42
-0.285635
  0
VERTEX
  8
0
 10
1655.560075
 20
1309.773259
 42
-0.241927
  0
VERTEX
  8
0
 10
1655.661161
 20
1309.458410
 42
-0.005911
  0
VERTEX
  8
0
 10
1655.386438
 20
1307.912620
 42
-0.011537
  0
VERTEX
  8
0
 10
1654.992228
 20
1306.070165
 42
-0.007433
  0
VERTEX
  8
0
 10
1654.454643
 20
1303.953497
 42
0.017049
  0
VERTEX
  8
0
 10
1652.353378
 20
1294.958503
 42
0.007743
  0
VERTEX
  8
0
 10
1650.190332
 20
1283.065373
 42
0.007744
  0
VERTEX
  8
0
 10
1648.396010
 20
1271.106687
 42
0.016983
  0
VERTEX
  8
0
 10
1647.476944
 20
1261.898622
 42
0.000000
  0
VERTEX
  8
0
 10
1646.781358
 20
1251.297244
 42
0.000000
  0
VERTEX
  8
0
 10
1635.140679
 20
1256.020399
 42
0.004614
  0
VERTEX
  8
0
 10
1629.850440
 20
1258.110249
 42
0.002780
  0
VERTEX
  8
0
 10
1623.541324
 20
1260.495355
 42
0.002784
  0
VERTEX
  8
0
 10
1617.244092
 20
1262.796207
 42
0.004870
  0
VERTEX
  8
0
 10
1612.000000
 20
1264.621777
 42
0.000000
  0
VERTEX
  8
0
 10
1600.500000
 20
1268.500000
 42
0.000000
  0
VERTEX
  8
0
 10
1568.508462
 20
1268.574042
 42
0.000000
  0
VERTEX
  8
0
 10
1536.516923
 20
1268.648084
 42
0.000000
  0
VERTEX
  8
0
 10
1525.328540
 20
1299.074042
 42
-0.001396
  0
VERTEX
  8
0
 10
1521.035080
 20
1310.851175
 42
-0.002172
  0
VERTEX
  8
0
 10
1517.406159
 20
1321.030559
 42
-0.000619
  0
VERTEX
  8
0
 10
1514.298812
 20
1329.903114
 42
-0.073053
  0
VERTEX
  8
0
 10
1514.070079
 20
1331.093819
 42
-0.339774
  0
VERTEX
  8
0
 10
1515.329630
 20
1332.891626
 42
-0.018146
  0
VERTEX
  8
0
 10
1522.493560
 20
1334.861239
 42
-0.025586
  0
VERTEX
  8
0
 10
1530.816273
 20
1336.383085
 42
-0.030407
  0
VERTEX
  8
0
 10
1538.783244
 20
1336.932874
 42
-0.011597
  0
VERTEX
  8
0
 10
1543.311843
 20
1336.864538
 42
-0.034726
  0
VERTEX
  8
0
 10
1546.388216
 20
1336.531911
 42
-0.043864
  0
VERTEX
  8
0
 10
1548.972229
 20
1335.831210
 42
-0.029316
  0
SEQEND
  0
POLYLINE
  8
0
 66
1
 70
1
  0
VERTEX
  8
0
 10
614.641627
 20
1289.615246
 42
-0.021034
  0
VERTEX
  8
0
 10
616.727724
 20
1288.075744
 42
-0.004452
  0
VERTEX
  8
0
 10
620.224743
 20
1285.208698
 42
-0.004653
  0
VERTEX
  8
0
 10
624.221784
 20
1281.808141
 42
-0.004403
  0
VERTEX
  8
0
 10
628.229837
 20
1278.271106
 42
-0.005398
  0
VERTEX
  8
0
 10
633.109237
 20
1273.791984
 42
-0.027015
  0
VERTEX
  8
0
 10
635.674331
 20
1271.111109
 42
-0.052240
  0
VERTEX
  8
0
 10
636.886021
 20
1269.358581
 42
-0.340827
  0
VERTEX
  8
0
 10
636.729837
 20
1268.368228
 42
-0.046621
  0
VERTEX
  8
0
 10
635.746146
 20
1267.598067
 42
-0.000843
  0
VERTEX
  8
0
 10
630.133140
 20
1264.005176
 42
-0.002089
  0
VERTEX
  8
0
 10
623.561792
 20
1259.852964
 42
-0.001392
  0
VERTEX
  8
0
 10
616.000000
 20
1255.148259
 42
-0.003000
  0
VERTEX
  8
0
 10
606.302726
 20
1249.232434
 42
-0.014126
  0
VERTEX
  8
0
 10
600.621821
 20
1246.028414
 42
-0.017015
  0
VERTEX
  8
0
 10
596.977486
 20
1244.262379
 42
-0.474354
  0
VERTEX
  8
0
 10
596.150602
 20
1244.680973
 42
-0.072975
  0
VERTEX
  8
0
 10
595.990148
 20
1246.948566
 42
-0.000581
  0
VERTEX
  8
0
 10
597.373654
 20
1265.066579
 42
-0.001735
  0
VERTEX
  8
0
 10
598.732193
 20
1281.834435
 42
-0.018139
  0
VERTEX
  8
0
 10
599.562062
 20
1288.682981
 42
-0.043191
  0
VERTEX
  8
0
 10
599.883614
 20
1289.979046
 42
-0.053334
  0
VERTEX
  8
0
 10
600.409013
 20
1291.106499
 42
-0.061684
  0
VERTEX
  8
0
 10
601.066520
 20
1291.943505
 42
-0.125316
  0
VERTEX
  8
0
 10
601.782740
 20
1292.365451
 42
-0.077964
  0
VERTEX
  8
0
 10
604.647978
 20
1292.732592
 42
-0.045664
  0
VERTEX
  8
0
 10
608.089884
 20
1292.319539
 42
-0.043889
  0
VERTEX
  8
0
 10
611.589052
 20
1291.243159
 42
-0.051936
  0
SEQEND
  0
POLYLINE
  8
0
 66
1
 70
1
  0
VERTEX
  8
0
 10
1383.139435
 20
1269.557998
 42
-0.013476
  0
VERTEX
  8
0
 10
1386.063137
 20
1268.855470
 42
-0.009041
  0
VERTEX
  8
0
 10
1389.366193
 20
1267.902629
 42
-0.009108
  0
VERTEX
  8
0
 10
1392.533740
 20
1266.862965
 42
-0.017726
  0
VERTEX
  8
0
 10
1395.013445
 20
1265.898870
 42
0.000000
  0
VERTEX
  8
0
 10
1400.248019
 20
1263.647017
 42
0.000000
  0
VERTEX
  8
0
 10
1399.632267
 20
1257.755821
 42
-0.060574
  0
VERTEX
  8
0
 10
1395.938562
 20
1241.627908
 42
-0.074445
  0
VERTEX
  8
0
 10
1388.612772
 20
1228.049445
 42
-0.084953
  0
VERTEX
  8
0
 10
1378.601578
 20
1218.573762
 42
-0.118181
  0
VERTEX
  8
0
 10
1367.065068
 20
1214.321300
 42
-0.058368
  0
VERTEX
  8
0
 10
1359.503931
 20
1214.311603
 42
-0.046400
  0
VERTEX
  8
0
 10
1351.510965
 20
1215.998986
 42
-0.048404
  0
VERTEX
  8
0
 10
1344.495981
 20
1218.944382
 42
-0.101697
  0
VERTEX
  8
0
 10
1339.983039
 20
1222.722100
 42
-0.052525
  0
VERTEX
  8
0
 10
1338.793870
 20
1224.592990
 42
-0.077862
  0
VERTEX
  8
0
 10
1338.210002
 20
1226.442197
 42
-0.044251
  0
VERTEX
  8
0
 10
1338.047919
 20
1229.054003
 42
-0.007248
  0
VERTEX
  8
0
 10
1338.255532
 20
1234.119656
 42
-0.061932
  0
VERTEX
  8
0
 10
1340.388957
 20
1245.899798
 42
-0.071057
  0
VERTEX
  8
0
 10
1345.305339
 20
1256.215609
 42
-0.075253
  0
VERTEX
  8
0
 10
1352.619615
 20
1264.277069
 42
-0.083118
  0
VERTEX
  8
0
 10
1361.762601
 20
1269.486248
 42
-0.056154
  0
VERTEX
  8
0
 10
1365.939977
 20
1270.507778
 42
-0.031081
  0
VERTEX
  8
0
 10
1371.185809
 20
1270.851868
 42
-0.028432
  0
VERTEX
  8
0
 10
1377.053360
 20
1270.537694
 42
-0.024636
  0
SEQEND
  0
POLYLINE
  8
0
 66
1
 70
1
  0
VERTEX
  8
0
 10
650.402893
 20
1250.965016
 42
-0.003904
  0
VERTEX
  8
0
 10
654.160909
 20
1245.177779
 42
-0.006421
  0
VERTEX
  8
0
 10
657.238052
 20
1240.217760
 42
-0.001684
  0
VERTEX
  8
0
 10
659.823496
 20
1235.895453
 42
-0.342832
  0
VERTEX
  8
0
 10
659.765331
 20
1235.431998
 42
-0.068086
  0
VERTEX
  8
0
 10
657.964543
 20
1234.064635
 42
-0.000136
  0
VERTEX
  8
0
 10
626.670019
 20
1216.428042
 42
-0.000038
  0
VERTEX
  8
0
 10
594.691439
 20
1198.420603
 42
-0.336334
  0
VERTEX
  8
0
 10
594.175666
 20
1198.491248
 42
-0.203635
  0
VERTEX
  8
0
 10
594.049495
 20
1198.803504
 42
-0.000362
  0
VERTEX
  8
0
 10
594.156318
 20
1204.577700
 42
-0.002566
  0
VERTEX
  8
0
 10
594.314891
 20
1211.087542
 42
-0.001575
  0
VERTEX
  8
0
 10
594.565250
 20
1218.755985
 42
0.000000
  0
VERTEX
  8
0
 10
595.279168
 20
1238.696635
 42
0.000000
  0
VERTEX
  8
0
 10
617.372749
 20
1252.348318
 42
-0.001044
  0
VERTEX
  8
0
 10
625.880438
 20
1257.580718
 42
-0.001699
  0
VERTEX
  8
0
 10
633.128161
 20
1261.983588
 42
-0.000208
  0
VERTEX
  8
0
 10
639.598298
 20
1265.880382
 42
-0.146712
  0
VERTEX
  8
0
 10
639.983165
 20
1265.978790
 42
-0.234297
  0
VERTEX
  8
0
 10
640.304689
 20
1265.802595
 42
-0.000626
  0
VERTEX
  8
0
 10
643.257154
 20
1261.559745
 42
-0.003554
  0
VERTEX
  8
0
 10
646.569023
 20
1256.714514
 42
-0.002186
  0
SEQEND
  0
POLYLINE
  8
0
 66
1
 70
1
  0
VERTEX
  8
0
 10
1613.500000
 20
1260.689230
 42
-0.006111
  0
VERTEX
  8
0
 10
1627.937898
 20
1255.615176
 42
-0.017888
  0
VERTEX
  8
0
 10
1637.710288
 20
1251.644378
 42
-0.018836
  0
VERTEX
  8
0
 10
1644.278790
 20
1248.395025
 42
-0.236342
  0
VERTEX
  8
0
 10
1645.818637
 20
1246.189837
 42
-0.094262
  0
VERTEX
  8
0
 10
1645.655661
 20
1242.363128
 42
-0.011940
  0
VERTEX
  8
0
 10
1643.566761
 20
1234.330317
 42
-0.013759
  0
VERTEX
  8
0
 10
1640.584272
 20
1224.883346
 42
-0.011412
  0
VERTEX
  8
0
 10
1636.907603
 20
1215.000000
 42
-0.001800
  0
VERTEX
  8
0
 10
1634.943408
 20
1210.118703
 42
-0.002566
  0
VERTEX
  8
0
 10
1633.161141
 20
1205.798832
 42
-0.001420
  0
VERTEX
  8
0
 10
1631.626280
 20
1202.161136
 42
-0.038089
  0
VERTEX
  8
0
 10
1631.143625
 20
1201.230068
 42
-0.400857
  0
VERTEX
  8
0
 10
1630.372801
 20
1201.030027
 42
-0.036208
  0
VERTEX
  8
0
 10
1628.546415
 20
1202.229124
 42
-0.024494
  0
VERTEX
  8
0
 10
1625.862325
 20
1204.500577
 42
-0.006837
  0
VERTEX
  8
0
 10
1621.891061
 20
1208.312843
 42
0.024910
  0
VERTEX
  8
0
 10
1614.523917
 20
1214.890402
 42
0.044334
  0
VERTEX
  8
0
 10
1607.774564
 20
1219.413523
 42
0.051460
  0
VERTEX
  8
0
 10
1601.101557
 20
1222.226766
 42
0.051577
  0
VERTEX
  8
0
 10
1593.999806
 20
1223.615291
 42
0.054372
  0
VERTEX
  8
0
 10
1585.840818
 20
1223.463367
 42
0.042467
  0
VERTEX
  8
0
 10
1577.171178
 20
1221.596105
 42
0.039197
  0
VERTEX
  8
0
 10
1568.256015
 20
1218.082990
 42
0.032208
  0
VERTEX
  8
0
 10
1559.364810
 20
1213.014357
 42
0.000000
  0
VERTEX
  8
0
 10
1556.229621
 20
1210.948983
 42
0.000000
  0
VERTEX
  8
0
 10
1555.555887
 20
1213.633352
 42
0.021366
  0
VERTEX
  8
0
 10
1554.692796
 20
1216.540146
 42
0.000202
  0
VERTEX
  8
0
 10
1547.462287
 20
1237.528961
 42
0.000456
  0
VERTEX
  8
0
 10
1540.610162
 20
1257.334713
 42
0.008105
  0
VERTEX
  8
0
 10
1538.292006
 20
1263.681429
 42
-0.489058
  0
VERTEX
  8
0
 10
1538.974768
 20
1264.811960
 42
-0.016469
  0
VERTEX
  8
0
 10
1544.956474
 20
1265.320695
 42
-0.012369
  0
VERTEX
  8
0
 10
1555.057628
 20
1265.595230
 42
-0.002055
  0
VERTEX
  8
0
 10
1574.500000
 20
1265.562642
 42
0.000000
  0
VERTEX
  8
0
 10
1599.500000
 20
1265.417968
 42
0.000000
  0
SEQEND
  0
POLYLINE
  8
0
 66
1
 70
1
  0
VERTEX
  8
0
 10
673.386953
 20
1219.000000
 42
-0.003309
  0
VERTEX
  8
0
 10
677.428273
 20
1213.775465
 42
-0.005330
  0
VERTEX
  8
0
 10
680.793943
 20
1209.265484
 42
-0.001351
  0
VERTEX
  8
0
 10
683.664663
 20
1205.309539
 42
-0.244512
  0
VERTEX
  8
0
 10
683.736559
 20
1204.818670
 42
-0.142310
  0
VERTEX
  8
0
 10
683.413128
 20
1204.362645
 42
-0.000120
  0
VERTEX
  8
0
 10
672.619488
 20
1195.794897
 42
-0.001269
  0
VERTEX
  8
0
 10
660.532420
 20
1186.255065
 42
-0.000776
  0
VERTEX
  8
0
 10
646.223398
 20
1175.056205
 42
-0.002106
  0
VERTEX
  8
0
 10
630.792919
 20
1163.122404
 42
-0.004706
  0
VERTEX
  8
0
 10
618.939556
 20
1154.210508
 42
-0.001114
  0
VERTEX
  8
0
 10
609.158488
 20
1147.033314
 42
-0.499662
  0
VERTEX
  8
0
 10
608.488674
 20
1147.237535
 42
-0.013984
  0
VERTEX
  8
0
 10
605.388434
 20
1156.588507
 42
-0.002496
  0
VERTEX
  8
0
 10
600.175179
 20
1174.239949
 42
-0.000241
  0
VERTEX
  8
0
 10
594.409605
 20
1194.162352
 42
-0.398055
  0
VERTEX
  8
0
 10
594.713359
 20
1194.750922
 42
0.044738
  0
VERTEX
  8
0
 10
595.317689
 20
1195.025248
 42
0.000081
  0
VERTEX
  8
0
 10
604.962674
 20
1200.492635
 42
0.000603
  0
VERTEX
  8
0
 10
615.791996
 20
1206.650958
 42
0.000373
  0
VERTEX
  8
0
 10
628.500000
 20
1213.910516
 42
-0.001111
  0
VERTEX
  8
0
 10
641.199121
 20
1221.140189
 42
-0.001817
  0
VERTEX
  8
0
 10
651.997303
 20
1227.204220
 42
-0.000197
  0
VERTEX
  8
0
 10
661.654295
 20
1232.576347
 42
-0.184581
  0
VERTEX
  8
0
 10
662.150394
 20
1232.647380
 42
-0.165421
  0
VERTEX
  8
0
 10
662.569808
 20
1232.389824
 42
-0.000849
  0
VERTEX
  8
0
 10
665.719420
 20
1228.577668
 42
-0.003658
  0
VERTEX
  8
0
 10
669.281915
 20
1224.185755
 42
-0.002295
  0
SEQEND
  0
POLYLINE
  8
0
 66
1
 70
1
  0
VERTEX
  8
0
 10
1326.707117
 20
1197.590822
 42
-0.007188
  0
VERTEX
  8
0
 10
1326.026886
 20
1194.506501
 42
-0.010196
  0
VERTEX
  8
0
 10
1325.326822
 20
1191.785678
 42
-0.006621
  0
VERTEX
  8
0
 10
1324.668359
 20
1189.542075
 42
-0.129594
  0
VERTEX
  8
0
 10
1324.290822
 20
1188.935135
 42
-0.183563
  0
VERTEX
  8
0
 10
1323.547603
 20
1188.626589
 42
-0.000509
  0
VERTEX
  8
0
 10
1312.541754
 20
1188.302998
 42
-0.002934
  0
VERTEX
  8
0
 10
1300.066324
 20
1188.022178
 42
-0.001816
  0
VERTEX
  8
0
 10
1285.404511
 20
1187.831469
 42
0.000000
  0
VERTEX
  8
0
 10
1247.309023
 20
1187.474312
 42
0.000000
  0
VERTEX
  8
0
 10
1249.992181
 20
1193.987156
 42
0.005586
  0
VERTEX
  8
0
 10
1251.183627
 20
1196.973464
 42
0.003232
  0
VERTEX
  8
0
 10
1252.552858
 20
1200.589384
 42
0.003229
  0
VERTEX
  8
0
 10
1253.879808
 20
1204.235205
 42
0.005417
  0
VERTEX
  8
0
 10
1254.941540
 20
1207.317130
 42
-0.008883
  0
VERTEX
  8
0
 10
1256.205620
 20
1210.905464
 42
-0.053686
  0
VERTEX
  8
0
 10
1257.087249
 20
1212.668341
 42
-0.140728
  0
VERTEX
  8
0
 10
1257.916432
 20
1213.395848
 42
-0.217416
  0
VERTEX
  8
0
 10
1258.853870
 20
1213.407462
 42
0.092459
  0
VERTEX
  8
0
 10
1263.026692
 20
1212.424324
 42
0.011612
  0
VERTEX
  8
0
 10
1272.346468
 20
1212.202768
 42
0.014315
  0
VERTEX
  8
0
 10
1281.838111
 20
1212.469394
 42
0.043222
  0
VERTEX
  8
0
 10
1288.237312
 20
1213.391438
 42
0.021442
  0
VERTEX
  8
0
 10
1295.628211
 20
1215.455806
 42
0.016869
  0
VERTEX
  8
0
 10
1303.441866
 20
1218.299008
 42
0.016788
  0
VERTEX
  8
0
 10
1311.093917
 20
1221.682213
 42
0.020468
  0
VERTEX
  8
0
 10
1318.000000
 20
1225.372890
 42
0.000000
  0
VERTEX
  8
0
 10
1325.500000
 20
1229.784672
 42
0.000000
  0
VERTEX
  8
0
 10
1326.916295
 20
1217.642336
 42
-0.006139
  0
VERTEX
  8
0
 10
1327.659266
 20
1210.513043
 42
-0.025504
  0
VERTEX
  8
0
 10
1327.834603
 20
1206.193036
 42
-0.032809
  0
VERTEX
  8
0
 10
1327.547502
 20
1202.423979
 42
-0.015270
  0
SEQEND
  0
POLYLINE
  8
0
 66
1
 70
1
  0
VERTEX
  8
0
 10
1605.873229
 20
1216.890875
 42
-0.054100
  0
VERTEX
  8
0
 10
1612.042071
 20
1212.975358
 42
-0.020928
  0
VERTEX
  8
0
 10
1619.695805
 20
1206.323120
 42
-0.014740
  0
VERTEX
  8
0
 10
1626.669595
 20
1199.329252
 42
-0.190890
  0
VERTEX
  8
0
 10
1628.000000
 20
1195.971483
 42
-0.076163
  0
VERTEX
  8
0
 10
1627.826495
 20
1194.839054
 42
-0.013698
  0
VERTEX
  8
0
 10
1627.130106
 20
1192.815594
 42
-0.014497
  0
VERTEX
  8
0
 10
1626.172367
 20
1190.471298
 42
-0.012661
  0
VERTEX
  8
0
 10
1625.038660
 20
1188.076585
 42
0.007934
  0
VERTEX
  8
0
 10
1623.647276
 20
1185.208005
 42
0.003394
  0
VERTEX
  8
0
 10
1621.874685
 20
1181.332266
 42
0.003357
  0
VERTEX
  8
0
 10
1620.040670
 20
1177.174724
 42
0.004414
  0
VERTEX
  8
0
 10
1618.426158
 20
1173.355101
 42
-0.001161
  0
VERTEX
  8
0
 10
1616.996483
 20
1169.910458
 42
-0.001711
  0
VERTEX
  8
0
 10
1615.723503
 20
1166.892429
 42
-0.000782
  0
VERTEX
  8
0
 10
1614.625389
 20
1164.324807
 42
-0.032603
  0
VERTEX
  8
0
 10
1614.352793
 20
1163.789337
 42
-0.399895
  0
VERTEX
  8
0
 10
1613.923008
 20
1163.668586
 42
-0.004014
  0
VERTEX
  8
0
 10
1610.873145
 20
1165.314838
 42
-0.010062
  0
VERTEX
  8
0
 10
1607.283305
 20
1167.385110
 42
-0.006032
  0
VERTEX
  8
0
 10
1603.100065
 20
1169.980483
 42
0.005301
  0
VERTEX
  8
0
 10
1598.252112
 20
1172.998078
 42
0.003504
  0
VERTEX
  8
0
 10
1592.621720
 20
1176.366611
 42
0.003526
  0
VERTEX
  8
0
 10
1587.102334
 20
1179.564225
 42
0.006830
  0
VERTEX
  8
0
 10
1582.637923
 20
1182.028594
 42
0.010172
  0
VERTEX
  8
0
 10
1576.928478
 20
1184.931498
 42
0.033515
  0
VERTEX
  8
0
 10
1573.012069
 20
1186.509521
 42
0.036125
  0
VERTEX
  8
0
 10
1569.075498
 20
1187.488750
 42
0.013312
  0
VERTEX
  8
0
 10
1563.409387
 20
1188.315927
 42
0.000000
  0
VERTEX
  8
0
 10
1553.812469
 20
1189.456958
 42
0.000000
  0
VERTEX
  8
0
 10
1554.444575
 20
1192.978479
 42
0.006576
  0
VERTEX
  8
0
 10
1554.728734
 20
1194.690765
 42
0.002815
  0
VERTEX
  8
0
 10
1555.065447
 20
1196.985834
 42
0.002784
  0
VERTEX
  8
0
 10
1555.396966
 20
1199.436248
 42
0.003664
  0
VERTEX
  8
0
 10
1555.670546
 20
1201.675423
 42
-0.022406
  0
VERTEX
  8
0
 10
1556.152289
 20
1204.678677
 42
-0.080676
  0
VERTEX
  8
0
 10
1556.842166
 20
1206.484819
 42
-0.082347
  0
VERTEX
  8
0
 10
1558.060471
 20
1207.960387
 42
-0.023949
  0
VERTEX
  8
0
 10
1560.382206
 20
1209.793737
 42
-0.049356
  0
VERTEX
  8
0
 10
1572.187477
 20
1216.582416
 42
-0.067221
  0
VERTEX
  8
0
 10
1583.945558
 20
1220.078421
 42
-0.074061
  0
VERTEX
  8
0
 10
1595.285567
 20
1220.156796
 42
-0.079297
  0
SEQEND
  0
POLYLINE
  8
0
 66
1
 70
1
  0
VERTEX
  8
0
 10
1501.384157
 20
1198.614998
 42
-0.003615
  0
VERTEX
  8
0
 10
1516.941070
 20
1184.096317
 42
-0.004222
  0
VERTEX
  8
0
 10
1531.494639
 20
1170.080901
 42
-0.004478
  0
VERTEX
  8
0
 10
1543.837774
 20
1157.773157
 42
-0.012842
  0
VERTEX
  8
0
 10
1552.109562
 20
1148.932996
 42
-0.007367
  0
VERTEX
  8
0
 10
1559.676766
 20
1140.160720
 42
-0.001249
  0
VERTEX
  8
0
 10
1573.824279
 20
1123.177128
 42
-0.000938
  0
VERTEX
  8
0
 10
1588.105702
 20
1105.879476
 42
-0.013067
  0
VERTEX
  8
0
 10
1593.079021
 20
1099.500000
 42
-0.206988
  0
VERTEX
  8
0
 10
1593.266009
 20
1098.693488
 42
-0.004589
  0
VERTEX
  8
0
 10
1592.496183
 20
1094.681250
 42
-0.009632
  0
VERTEX
  8
0
 10
1591.445408
 20
1089.937939
 42
-0.006268
  0
VERTEX
  8
0
 10
1590.057995
 20
1084.500000
 42
0.000440
  0
VERTEX
  8
0
 10
1588.567689
 20
1078.930579
 42
0.000555
  0
VERTEX
  8
0
 10
1587.199391
 20
1073.776051
 42
0.000439
  0
VERTEX
  8
0
 10
1586.060121
 20
1069.449619
 42
0.004485
  0
VERTEX
  8
0
 10
1585.605767
 20
1067.652515
 42
-0.030720
  0
VERTEX
  8
0
 10
1585.123939
 20
1066.095374
 42
-0.159929
  0
VERTEX
  8
0
 10
1584.567081
 20
1065.404894
 42
-0.168691
  0
VERTEX
  8
0
 10
1583.727066
 20
1065.198696
 42
-0.035109
  0
VERTEX
  8
0
 10
1582.206481
 20
1065.449884
 42
-0.043829
  0
VERTEX
  8
0
 10
1580.502050
 20
1066.017561
 42
-0.003548
  0
VERTEX
  8
0
 10
1576.182529
 20
1067.926895
 42
-0.004758
  0
VERTEX
  8
0
 10
1571.059412
 20
1070.293929
 42
-0.003638
  0
VERTEX
  8
0
 10
1565.500000
 20
1072.976720
 42
-0.023271
  0
VERTEX
  8
0
 10
1553.745793
 20
1079.450292
 42
-0.027643
  0
VERTEX
  8
0
 10
1543.327672
 20
1086.657839
 42
-0.022469
  0
VERTEX
  8
0
 10
1532.202040
 20
1096.132434
 42
-0.009243
  0
VERTEX
  8
0
 10
1517.961359
 20
1109.909124
 42
-0.009750
  0
VERTEX
  8
0
 10
1507.548902
 20
1120.777587
 42
-0.016243
  0
VERTEX
  8
0
 10
1499.267681
 20
1130.373454
 42
-0.015776
  0
VERTEX
  8
0
 10
1491.463806
 20
1140.682518
 42
-0.008576
  0
VERTEX
  8
0
 10
1482.503111
 20
1153.801171
 42
0.000000
  0
VERTEX
  8
0
 10
1473.748494
 20
1167.102342
 42
0.000000
  0
VERTEX
  8
0
 10
1479.287247
 20
1177.801171
 42
0.009549
  0
VERTEX
  8
0
 10
1481.642622
 20
1182.571882
 42
0.006528
  0
VERTEX
  8
0
 10
1484.142622
 20
1188.074407
 42
0.006581
  0
VERTEX
  8
0
 10
1486.414009
 20
1193.443205
 42
0.013206
  0
VERTEX
  8
0
 10
1488.038359
 20
1197.750000
 42
-0.004596
  0
VERTEX
  8
0
 10
1489.306566
 20
1201.296274
 42
-0.007460
  0
VERTEX
  8
0
 10
1490.456547
 20
1204.282813
 42
-0.002345
  0
VERTEX
  8
0
 10
1491.491338
 20
1206.820646
 42
-0.303577
  0
VERTEX
  8
0
 10
1491.759516
 20
1207.000000
 42
-0.180062
  0
VERTEX
  8
0
 10
1492.106711
 20
1206.870777
 42
-0.001016
  0
VERTEX
  8
0
 10
1494.796633
 20
1204.536906
 42
-0.004145
  0
VERTEX
  8
0
 10
1497.852975
 20
1201.829319
 42
-0.002602
  0
SEQEND
  0
POLYLINE
  8
0
 66
1
 70
1
  0
VERTEX
  8
0
 10
727.500000
 20
1187.021628
 42
-0.002428
  0
VERTEX
  8
0
 10
741.286662
 20
1181.591336
 42
-0.004027
  0
VERTEX
  8
0
 10
752.855472
 20
1176.861178
 42
-0.000659
  0
VERTEX
  8
0
 10
762.987839
 20
1172.607079
 42
-0.367448
  0
VERTEX
  8
0
 10
763.263309
 20
1172.061690
 42
-0.100569
  0
VERTEX
  8
0
 10
762.550944
 20
1170.536762
 42
-0.000051
  0
VERTEX
  8
0
 10
731.020674
 20
1127.974426
 42
-0.000164
  0
VERTEX
  8
0
 10
700.464272
 20
1086.763743
 42
-0.030184
  0
VERTEX
  8
0
 10
697.044453
 20
1082.692828
 42
-0.135782
  0
VERTEX
  8
0
 10
694.184073
 20
1080.971085
 42
-0.001021
  0
VERTEX
  8
0
 10
667.548703
 20
1073.602964
 42
-0.001212
  0
VERTEX
  8
0
 10
641.129180
 20
1066.421390
 42
-0.111014
  0
VERTEX
  8
0
 10
637.145042
 20
1066.254482
 42
-0.274697
  0
VERTEX
  8
0
 10
635.627359
 20
1067.573354
 42
-0.002080
  0
VERTEX
  8
0
 10
630.331690
 20
1083.822859
 42
-0.002015
  0
VERTEX
  8
0
 10
625.161011
 20
1100.141368
 42
-0.293175
  0
VERTEX
  8
0
 10
625.665648
 20
1101.982315
 42
-0.015608
  0
VERTEX
  8
0
 10
626.347219
 20
1102.558341
 42
-0.000038
  0
VERTEX
  8
0
 10
636.389284
 20
1110.520420
 42
-0.000246
  0
VERTEX
  8
0
 10
647.713931
 20
1119.488953
 42
-0.000153
  0
VERTEX
  8
0
 10
661.000000
 20
1129.993583
 42
0.000252
  0
VERTEX
  8
0
 10
688.611891
 20
1151.833798
 42
0.009261
  0
VERTEX
  8
0
 10
694.831636
 20
1156.948766
 42
0.053965
  0
VERTEX
  8
0
 10
697.103763
 20
1159.357543
 42
0.499433
  0
VERTEX
  8
0
 10
696.767524
 20
1160.535715
 42
0.254246
  0
VERTEX
  8
0
 10
695.372646
 20
1160.351175
 42
0.002503
  0
VERTEX
  8
0
 10
686.960200
 20
1154.159580
 42
0.005987
  0
VERTEX
  8
0
 10
675.903502
 20
1145.728676
 42
0.001971
  0
VERTEX
  8
0
 10
659.842210
 20
1133.072459
 42
-0.000725
  0
VERTEX
  8
0
 10
646.252798
 20
1122.309059
 42
-0.001191
  0
VERTEX
  8
0
 10
634.720022
 20
1113.246285
 42
-0.000092
  0
VERTEX
  8
0
 10
624.349845
 20
1105.140068
 42
-0.167359
  0
VERTEX
  8
0
 10
623.943101
 20
1105.000000
 42
-0.284819
  0
VERTEX
  8
0
 10
623.662301
 20
1105.174076
 42
-0.009757
  0
VERTEX
  8
0
 10
623.085285
 20
1106.395313
 42
-0.015665
  0
VERTEX
  8
0
 10
622.453711
 20
1107.929365
 42
-0.009974
  0
VERTEX
  8
0
 10
621.811159
 20
1109.750000
 42
0.003495
  0
VERTEX
  8
0
 10
620.901754
 20
1112.437194
 42
0.000675
  0
VERTEX
  8
0
 10
619.216412
 20
1117.283714
 42
0.000718
  0
VERTEX
  8
0
 10
617.234759
 20
1122.931533
 42
0.000663
  0
VERTEX
  8
0
 10
615.183486
 20
1128.726472
 42
0.000000
  0
VERTEX
  8
0
 10
610.126402
 20
1142.952943
 42
0.000000
  0
VERTEX
  8
0
 10
648.601752
 20
1172.937468
 42
-0.001108
  0
VERTEX
  8
0
 10
670.841462
 20
1190.190188
 42
-0.009488
  0
VERTEX
  8
0
 10
680.958441
 20
1197.700657
 42
-0.013725
  0
VERTEX
  8
0
 10
687.031238
 20
1201.785867
 42
-0.248618
  0
VERTEX
  8
0
 10
689.288551
 20
1201.960861
 42
0.009201
  0
VERTEX
  8
0
 10
690.968046
 20
1201.267383
 42
0.000123
  0
VERTEX
  8
0
 10
701.425387
 20
1197.175995
 42
0.000351
  0
VERTEX
  8
0
 10
713.543164
 20
1192.448212
 42
0.000231
  0
SEQEND
  0
POLYLINE
  8
0
 66
1
 70
1
  0
VERTEX
  8
0
 10
1339.000000
 20
1184.543021
 42
-0.063546
  0
VERTEX
  8
0
 10
1338.558690
 20
1181.084670
 42
-0.002583
  0
VERTEX
  8
0
 10
1335.328257
 20
1168.892553
 42
-0.003953
  0
VERTEX
  8
0
 10
1332.042303
 20
1157.114961
 42
-0.031762
  0
VERTEX
  8
0
 10
1330.148587
 20
1151.820339
 42
-0.028572
  0
VERTEX
  8
0
 10
1329.205982
 20
1149.937353
 42
-0.027484
  0
VERTEX
  8
0
 10
1328.043698
 20
1148.148545
 42
-0.028582
  0
VERTEX
  8
0
 10
1326.844209
 20
1146.690178
 42
-0.082896
  0
VERTEX
  8
0
 10
1325.815688
 20
1145.892053
 42
-0.080422
  0
VERTEX
  8
0
 10
1324.343245
 20
1145.381085
 42
-0.010837
  0
VERTEX
  8
0
 10
1321.095858
 20
1144.884156
 42
-0.012274
  0
VERTEX
  8
0
 10
1317.189986
 20
1144.470054
 42
-0.010059
  0
VERTEX
  8
0
 10
1313.000000
 20
1144.214305
 42
-0.022965
  0
VERTEX
  8
0
 10
1304.309101
 20
1144.258413
 42
-0.021152
  0
VERTEX
  8
0
 10
1295.415007
 20
1145.090594
 42
-0.020775
  0
VERTEX
  8
0
 10
1286.460343
 20
1146.693591
 42
-0.020226
  0
VERTEX
  8
0
 10
1277.588031
 20
1149.045525
 42
0.000000
  0
VERTEX
  8
0
 10
1270.697527
 20
1151.173785
 42
0.000000
  0
VERTEX
  8
0
 10
1276.598763
 20
1153.779977
 42
0.024172
  0
VERTEX
  8
0
 10
1283.894076
 20
1157.432758
 42
0.008040
  0
VERTEX
  8
0
 10
1294.218292
 20
1163.462795
 42
0.008103
  0
VERTEX
  8
0
 10
1305.247877
 20
1170.391714
 42
0.010355
  0
VERTEX
  8
0
 10
1315.166890
 20
1177.145993
 42
-0.009368
  0
VERTEX
  8
0
 10
1322.013311
 20
1181.827817
 42
-0.051575
  0
VERTEX
  8
0
 10
1325.978492
 20
1183.882063
 42
-0.057363
  0
VERTEX
  8
0
 10
1330.099348
 20
1184.979807
 42
-0.013218
  0
VERTEX
  8
0
 10
1337.250000
 20
1185.837003
 42
-0.082503
  0
VERTEX
  8
0
 10
1337.918323
 20
1185.788962
 42
-0.100411
  0
VERTEX
  8
0
 10
1338.485938
 20
1185.524132
 42
-0.111490
  0
VERTEX
  8
0
 10
1338.864320
 20
1185.085722
 42
-0.123110
  0
SEQEND
  0
POLYLINE
  8
0
 66
1
 70
1
  0
VERTEX
  8
0
 10
1565.449127
 20
1184.956059
 42
-0.024351
  0
VERTEX
  8
0
 10
1569.099788
 20
1184.245541
 42
-0.024511
  0
VERTEX
  8
0
 10
1572.655968
 20
1183.184607
 42
-0.022467
  0
VERTEX
  8
0
 10
1576.356317
 20
1181.690026
 42
-0.015052
  0
VERTEX
  8
0
 10
1580.449127
 20
1179.667884
 42
-0.010705
  0
VERTEX
  8
0
 10
1587.997522
 20
1175.441619
 42
-0.003963
  0
VERTEX
  8
0
 10
1598.449738
 20
1169.179959
 42
-0.002125
  0
VERTEX
  8
0
 10
1608.883842
 20
1162.755244
 42
-0.047695
  0
VERTEX
  8
0
 10
1611.698245
 20
1160.609138
 42
-0.225009
  0
VERTEX
  8
0
 10
1612.125069
 20
1159.544690
 42
-0.037574
  0
VERTEX
  8
0
 10
1611.817405
 20
1157.303188
 42
-0.023548
  0
VERTEX
  8
0
 10
1610.891291
 20
1153.802183
 42
-0.005430
  0
VERTEX
  8
0
 10
1608.990691
 20
1148.000000
 42
0.003643
  0
VERTEX
  8
0
 10
1607.145231
 20
1142.433466
 42
0.001596
  0
VERTEX
  8
0
 10
1604.776992
 20
1135.031250
 42
0.001580
  0
VERTEX
  8
0
 10
1602.313214
 20
1127.158446
 42
0.002114
  0
VERTEX
  8
0
 10
1600.130922
 20
1120.000000
 42
-0.003764
  0
VERTEX
  8
0
 10
1598.183438
 20
1113.686538
 42
-0.006263
  0
VERTEX
  8
0
 10
1596.436334
 20
1108.401358
 42
-0.001572
  0
VERTEX
  8
0
 10
1594.858161
 20
1103.866913
 42
-0.394799
  0
VERTEX
  8
0
 10
1594.510243
 20
1103.685476
 42
-0.149346
  0
VERTEX
  8
0
 10
1594.068937
 20
1103.966993
 42
-0.000445
  0
VERTEX
  8
0
 10
1589.614270
 20
1109.196359
 42
-0.002521
  0
VERTEX
  8
0
 10
1584.602464
 20
1115.150967
 42
-0.001567
  0
VERTEX
  8
0
 10
1578.779330
 20
1122.185476
 42
0.001409
  0
VERTEX
  8
0
 10
1572.354137
 20
1129.952275
 42
0.001185
  0
VERTEX
  8
0
 10
1565.504426
 20
1138.145302
 42
0.001195
  0
VERTEX
  8
0
 10
1559.214847
 20
1145.595975
 42
0.003309
  0
VERTEX
  8
0
 10
1554.742159
 20
1150.798531
 42
0.000000
  0
VERTEX
  8
0
 10
1545.769194
 20
1161.097062
 42
0.000000
  0
VERTEX
  8
0
 10
1548.960455
 20
1172.298531
 42
-0.000281
  0
VERTEX
  8
0
 10
1550.211621
 20
1176.680834
 42
-0.000399
  0
VERTEX
  8
0
 10
1551.329655
 20
1180.576756
 42
-0.000222
  0
VERTEX
  8
0
 10
1552.278637
 20
1183.868169
 42
-0.005822
  0
VERTEX
  8
0
 10
1552.544473
 20
1184.750000
 42
-0.260058
  0
VERTEX
  8
0
 10
1553.466406
 20
1185.621901
 42
-0.058242
  0
VERTEX
  8
0
 10
1555.691053
 20
1185.917992
 42
-0.032211
  0
VERTEX
  8
0
 10
1559.369047
 20
1185.739715
 42
-0.007675
  0
SEQEND
  0
POLYLINE
  8
0
 66
1
 70
1
  0
VERTEX
  8
0
 10
1320.000000
 20
1184.579142
 42
-0.245514
  0
VERTEX
  8
0
 10
1319.861999
 20
1184.315036
 42
-0.000389
  0
VERTEX
  8
0
 10
1315.373437
 20
1181.197832
 42
-0.002836
  0
VERTEX
  8
0
 10
1310.288624
 20
1177.714946
 42
-0.001732
  0
VERTEX
  8
0
 10
1304.250000
 20
1173.659295
 42
-0.006917
  0
VERTEX
  8
0
 10
1293.014748
 20
1166.392315
 42
-0.013768
  0
VERTEX
  8
0
 10
1283.887778
 20
1161.010841
 42
-0.017077
  0
VERTEX
  8
0
 10
1276.046781
 20
1157.017326
 42
-0.024558
  0
VERTEX
  8
0
 10
1268.835426
 20
1154.071488
 42
0.016679
  0
VERTEX
  8
0
 10
1265.890450
 20
1152.922253
 42
0.003476
  0
VERTEX
  8
0
 10
1260.807906
 20
1150.698903
 42
0.003645
  0
VERTEX
  8
0
 10
1254.942611
 20
1148.032999
 42
0.003436
  0
VERTEX
  8
0
 10
1249.000000
 20
1145.229744
 42
-0.010274
  0
VERTEX
  8
0
 10
1230.313604
 20
1136.725386
 42
-0.025659
  0
VERTEX
  8
0
 10
1216.255542
 20
1131.510130
 42
-0.032616
  0
VERTEX
  8
0
 10
1205.907041
 20
1128.991652
 42
-0.167777
  0
VERTEX
  8
0
 10
1200.164035
 20
1129.912211
 42
-0.095837
  0
VERTEX
  8
0
 10
1198.510600
 20
1131.256095
 42
-0.256044
  0
VERTEX
  8
0
 10
1198.224648
 20
1132.697048
 42
-0.143180
  0
VERTEX
  8
0
 10
1199.343473
 20
1134.368611
 42
-0.028740
  0
VERTEX
  8
0
 10
1202.250000
 20
1136.528417
 42
0.029562
  0
VERTEX
  8
0
 10
1213.211479
 20
1144.701757
 42
0.023203
  0
VERTEX
  8
0
 10
1224.099379
 20
1154.768111
 42
0.023675
  0
VERTEX
  8
0
 10
1233.661400
 20
1165.434742
 42
0.038907
  0
VERTEX
  8
0
 10
1240.559008
 20
1175.393993
 42
0.000000
  0
VERTEX
  8
0
 10
1245.500000
 20
1183.866578
 42
0.000000
  0
VERTEX
  8
0
 10
1257.000000
 20
1184.218256
 42
-0.004376
  0
VERTEX
  8
0
 10
1273.376213
 20
1184.575618
 42
-0.001834
  0
VERTEX
  8
0
 10
1295.430318
 20
1184.782868
 42
-0.000098
  0
VERTEX
  8
0
 10
1319.660429
 20
1184.916905
 42
-0.415777
  0
SEQEND
  0
POLYLINE
  8
0
 66
1
 70
1
  0
VERTEX
  8
0
 10
1040.000000
 20
1090.887409
 42
-0.001243
  0
VERTEX
  8
0
 10
1047.632813
 20
1090.435233
 42
-0.001241
  0
VERTEX
  8
0
 10
1055.268750
 20
1089.944795
 42
-0.001213
  0
VERTEX
  8
0
 10
1061.936184
 20
1089.483699
 42
-0.004899
  0
VERTEX
  8
0
 10
1066.000000
 20
1089.152704
 42
-0.002625
  0
VERTEX
  8
0
 10
1071.009658
 20
1088.668691
 42
-0.083664
  0
VERTEX
  8
0
 10
1072.193765
 20
1088.342885
 42
-0.531050
  0
VERTEX
  8
0
 10
1072.275771
 20
1087.831470
 42
-0.043155
  0
VERTEX
  8
0
 10
1071.000000
 20
1086.826576
 42
-0.014252
  0
VERTEX
  8
0
 10
1068.922132
 20
1085.545689
 42
-0.000003
  0
VERTEX
  8
0
 10
964.806250
 20
1025.390682
 42
-0.000065
  0
VERTEX
  8
0
 10
849.487072
 20
958.783532
 42
-0.000039
  0
VERTEX
  8
0
 10
713.000000
 20
879.987810
 42
0.000004
  0
VERTEX
  8
0
 10
576.632843
 20
801.274064
 42
0.000007
  0
VERTEX
  8
0
 10
461.710925
 20
734.935566
 42
0.000000
  0
VERTEX
  8
0
 10
357.372564
 20
674.704480
 42
0.005204
  0
VERTEX
  8
0
 10
356.760594
 20
674.342667
 42
-0.445832
  0
VERTEX
  8
0
 10
355.744429
 20
674.650795
 42
-0.008754
  0
VERTEX
  8
0
 10
353.262886
 20
680.206003
 42
-0.016203
  0
VERTEX
  8
0
 10
350.696383
 20
686.819115
 42
-0.013659
  0
VERTEX
  8
0
 10
348.401912
 20
693.970177
 42
-0.075941
  0
VERTEX
  8
0
 10
341.994034
 20
742.390240
 42
-0.044297
  0
VERTEX
  8
0
 10
348.352500
 20
800.735558
 42
-0.042207
  0
VERTEX
  8
0
 10
365.741259
 20
860.878121
 42
-0.047076
  0
VERTEX
  8
0
 10
392.529122
 20
914.960127
 42
-0.021618
  0
VERTEX
  8
0
 10
403.387041
 20
930.926630
 42
-0.019878
  0
VERTEX
  8
0
 10
415.876005
 20
946.364792
 42
-0.020679
  0
VERTEX
  8
0
 10
428.816202
 20
959.944541
 42
-0.033485
  0
VERTEX
  8
0
 10
441.000000
 20
970.232084
 42
-0.029359
  0
VERTEX
  8
0
 10
457.804426
 20
981.135649
 42
-0.014962
  0
VERTEX
  8
0
 10
480.056608
 20
992.917499
 42
-0.013624
  0
VERTEX
  8
0
 10
506.034764
 20
1004.824587
 42
-0.011161
  0
VERTEX
  8
0
 10
534.398186
 20
1016.160175
 42
-0.030462
  0
VERTEX
  8
0
 10
649.913156
 20
1051.511574
 42
-0.022339
  0
VERTEX
  8
0
 10
781.506860
 20
1077.011672
 42
-0.022214
  0
VERTEX
  8
0
 10
915.919570
 20
1090.812374
 42
-0.028653
  0
SEQEND
  0
POLYLINE
  8
0
 66
1
 70
1
  0
VERTEX
  8
0
 10
1272.500000
 20
1091.992137
 42
-0.016486
  0
VERTEX
  8
0
 10
1366.545681
 20
1085.935798
 42
-0.015937
  0
VERTEX
  8
0
 10
1461.062471
 20
1073.660615
 42
-0.016199
  0
VERTEX
  8
0
 10
1552.949329
 20
1055.663061
 42
-0.018717
  0
VERTEX
  8
0
 10
1639.098365
 20
1032.446105
 42
-0.013465
  0
VERTEX
  8
0
 10
1685.126724
 20
1016.803444
 42
-0.017540
  0
VERTEX
  8
0
 10
1726.291903
 20
999.901166
 42
-0.019530
  0
VERTEX
  8
0
 10
1760.463870
 20
982.811285
 42
-0.043872
  0
VERTEX
  8
0
 10
1784.526884
 20
966.682981
 42
-0.039731
  0
VERTEX
  8
0
 10
1802.244100
 20
949.924774
 42
-0.028761
  0
VERTEX
  8
0
 10
1819.257755
 20
928.724747
 42
-0.026934
  0
VERTEX
  8
0
 10
1834.880686
 20
904.076008
 42
-0.024011
  0
VERTEX
  8
0
 10
1848.426417
 20
876.944077
 42
-0.037687
  0
VERTEX
  8
0
 10
1867.527132
 20
822.895748
 42
-0.042028
  0
VERTEX
  8
0
 10
1877.440980
 20
768.525367
 42
-0.046129
  0
VERTEX
  8
0
 10
1877.647127
 20
718.971569
 42
-0.082274
  0
VERTEX
  8
0
 10
1867.500297
 20
679.596588
 42
0.000000
  0
VERTEX
  8
0
 10
1864.963152
 20
673.859654
 42
0.000000
  0
VERTEX
  8
0
 10
1861.731576
 20
675.822079
 42
0.005529
  0
VERTEX
  8
0
 10
1859.083004
 20
677.390640
 42
0.000002
  0
VERTEX
  8
0
 10
1755.755526
 20
737.050198
 42
0.000032
  0
VERTEX
  8
0
 10
1641.078630
 20
803.252399
 42
0.000019
  0
VERTEX
  8
0
 10
1505.500000
 20
881.502483
 42
-0.000014
  0
VERTEX
  8
0
 10
1254.008874
 20
1026.648578
 42
-0.000373
  0
VERTEX
  8
0
 10
1187.007031
 20
1065.387276
 42
-0.000064
  0
VERTEX
  8
0
 10
1148.225290
 20
1087.855048
 42
-0.510167
  0
VERTEX
  8
0
 10
1148.163236
 20
1088.460807
 42
-0.167729
  0
VERTEX
  8
0
 10
1149.348091
 20
1088.957597
 42
-0.000387
  0
VERTEX
  8
0
 10
1168.535773
 20
1090.184995
 42
-0.002872
  0
VERTEX
  8
0
 10
1187.216631
 20
1091.257786
 42
-0.004334
  0
VERTEX
  8
0
 10
1203.500000
 20
1091.957624
 42
-0.001780
  0
VERTEX
  8
0
 10
1224.240841
 20
1092.595041
 42
-0.006666
  0
VERTEX
  8
0
 10
1237.276006
 20
1092.775343
 42
-0.006407
  0
VERTEX
  8
0
 10
1250.557832
 20
1092.611796
 42
-0.001554
  0
SEQEND
  0
POLYLINE
  8
0
 66
1
 70
1
  0
VERTEX
  8
0
 10
1074.035878
 20
1082.594366
 42
-0.025871
  0
VERTEX
  8
0
 10
1070.924363
 20
1075.533160
 42
-0.001483
  0
VERTEX
  8
0
 10
1060.183972
 20
1054.375993
 42
-0.002505
  0
VERTEX
  8
0
 10
1049.216699
 20
1033.192278
 42
-0.006497
  0
VERTEX
  8
0
 10
1041.039566
 20
1018.070947
 42
-0.013955
  0
VERTEX
  8
0
 10
1009.015417
 20
964.235895
 42
-0.011717
  0
VERTEX
  8
0
 10
972.182111
 20
908.981963
 42
-0.011402
  0
VERTEX
  8
0
 10
931.651711
 20
853.881557
 42
-0.011289
  0
VERTEX
  8
0
 10
888.520827
 20
800.500000
 42
-0.010533
  0
VERTEX
  8
0
 10
853.963608
 20
761.354695
 42
-0.009494
  0
VERTEX
  8
0
 10
816.593667
 20
722.293949
 42
-0.009776
  0
VERTEX
  8
0
 10
779.283424
 20
686.189285
 42
-0.014330
  0
VERTEX
  8
0
 10
744.970720
 20
656.048031
 42
-0.010675
  0
VERTEX
  8
0
 10
723.608897
 20
639.097538
 42
-0.010865
  0
VERTEX
  8
0
 10
701.666889
 20
623.177020
 42
-0.011499
  0
VERTEX
  8
0
 10
681.154599
 20
609.651175
 42
-0.023545
  0
VERTEX
  8
0
 10
664.372036
 20
600.200189
 42
-0.027526
  0
VERTEX
  8
0
 10
652.325491
 20
594.953516
 42
-0.019484
  0
VERTEX
  8
0
 10
638.305528
 20
590.357852
 42
-0.018372
  0
VERTEX
  8
0
 10
622.983103
 20
586.591069
 42
-0.016920
  0
VERTEX
  8
0
 10
607.000000
 20
583.839576
 42
-0.028204
  0
VERTEX
  8
0
 10
592.729626
 20
582.691924
 42
-0.009429
  0
VERTEX
  8
0
 10
571.787187
 20
582.587230
 42
-0.009673
  0
VERTEX
  8
0
 10
550.318614
 20
583.300322
 42
-0.020533
  0
VERTEX
  8
0
 10
533.764106
 20
584.854516
 42
-0.032324
  0
VERTEX
  8
0
 10
484.304352
 20
594.844212
 42
-0.035857
  0
VERTEX
  8
0
 10
438.286796
 20
610.895115
 42
-0.038909
  0
VERTEX
  8
0
 10
399.083554
 20
631.557883
 42
-0.064060
  0
VERTEX
  8
0
 10
370.242962
 20
655.399427
 42
-0.013801
  0
VERTEX
  8
0
 10
365.310100
 20
660.973364
 42
-0.019240
  0
VERTEX
  8
0
 10
361.235690
 20
666.240762
 42
-0.013409
  0
VERTEX
  8
0
 10
358.231049
 20
670.698430
 42
-0.469793
  0
VERTEX
  8
0
 10
358.571005
 20
671.752049
 42
0.035866
  0
VERTEX
  8
0
 10
359.309073
 20
672.110404
 42
0.000001
  0
VERTEX
  8
0
 10
464.095858
 20
732.624482
 42
0.000054
  0
VERTEX
  8
0
 10
579.544440
 20
799.312639
 42
0.000033
  0
VERTEX
  8
0
 10
716.500000
 20
878.455840
 42
-0.000062
  0
VERTEX
  8
0
 10
853.441903
 20
957.580530
 42
-0.000103
  0
VERTEX
  8
0
 10
968.844292
 20
1024.209206
 42
-0.000001
  0
VERTEX
  8
0
 10
1073.665624
 20
1084.699824
 42
-0.094893
  0
VERTEX
  8
0
 10
1074.225249
 20
1084.894126
 42
-0.390056
  0
VERTEX
  8
0
 10
1074.432948
 20
1084.752381
 42
-0.077730
  0
VERTEX
  8
0
 10
1074.468787
 20
1084.262244
 42
-0.046718
  0
VERTEX
  8
0
 10
1074.335394
 20
1083.510105
 42
-0.023611
  0
SEQEND
  0
POLYLINE
  8
0
 66
1
 70
1
  0
VERTEX
  8
0
 10
1504.628998
 20
878.394736
 42
-0.000024
  0
VERTEX
  8
0
 10
1641.878360
 20
799.149303
 42
-0.000041
  0
VERTEX
  8
0
 10
1757.477146
 20
732.384458
 42
-0.000000
  0
VERTEX
  8
0
 10
1862.534482
 20
671.696407
 42
-0.057283
  0
VERTEX
  8
0
 10
1862.846391
 20
671.465011
 42
-0.377052
  0
VERTEX
  8
0
 10
1862.937166
 20
670.531559
 42
-0.005226
  0
VERTEX
  8
0
 10
1859.291430
 20
665.579837
 42
-0.013030
  0
VERTEX
  8
0
 10
1855.124083
 20
660.332223
 42
-0.013711
  0
VERTEX
  8
0
 10
1850.757038
 20
655.399427
 42
-0.065396
  0
VERTEX
  8
0
 10
1821.325356
 20
631.200710
 42
-0.038973
  0
VERTEX
  8
0
 10
1781.027390
 20
610.240615
 42
-0.036034
  0
VERTEX
  8
0
 10
1733.833104
 20
594.092434
 42
-0.033198
  0
VERTEX
  8
0
 10
1683.500000
 20
584.346185
 42
-0.020854
  0
VERTEX
  8
0
 10
1667.091166
 20
582.977907
 42
-0.010225
  0
VERTEX
  8
0
 10
1646.121307
 20
582.536582
 42
-0.010081
  0
VERTEX
  8
0
 10
1625.599914
 20
582.938214
 42
-0.026753
  0
VERTEX
  8
0
 10
1611.000000
 20
584.303223
 42
-0.024519
  0
VERTEX
  8
0
 10
1587.215894
 20
589.019195
 42
-0.036956
  0
VERTEX
  8
0
 10
1567.158144
 20
595.636064
 42
-0.033861
  0
VERTEX
  8
0
 10
1547.075064
 20
605.591773
 42
-0.016808
  0
VERTEX
  8
0
 10
1523.003202
 20
620.735005
 42
-0.015518
  0
VERTEX
  8
0
 10
1493.897010
 20
641.786827
 42
-0.013245
  0
VERTEX
  8
0
 10
1464.536840
 20
665.709424
 42
-0.012069
  0
VERTEX
  8
0
 10
1433.919199
 20
693.349046
 42
-0.008651
  0
VERTEX
  8
0
 10
1401.000000
 20
725.639914
 42
-0.018990
  0
VERTEX
  8
0
 10
1330.155939
 20
803.265077
 42
-0.018094
  0
VERTEX
  8
0
 10
1264.202547
 20
887.270087
 42
-0.018511
  0
VERTEX
  8
0
 10
1206.101561
 20
973.597385
 42
-0.022926
  0
VERTEX
  8
0
 10
1158.848334
 20
1058.166999
 42
-0.001204
  0
VERTEX
  8
0
 10
1152.078677
 20
1071.786704
 42
-0.006155
  0
VERTEX
  8
0
 10
1148.428716
 20
1079.409457
 42
-0.003827
  0
VERTEX
  8
0
 10
1146.100208
 20
1084.532554
 42
-0.542977
  0
VERTEX
  8
0
 10
1146.403749
 20
1085.000000
 42
-0.131537
  0
VERTEX
  8
0
 10
1146.676130
 20
1084.927082
 42
-0.000000
  0
VERTEX
  8
0
 10
1251.778543
 20
1024.309704
 42
-0.000067
  0
VERTEX
  8
0
 10
1367.378571
 20
957.617140
 42
-0.000040
  0
SEQEND
  0
POLYLINE
  8
0
 66
1
 70
1
  0
VERTEX
  8
0
 10
834.605350
 20
701.750000
 42
-0.033444
  0
VERTEX
  8
0
 10
903.391495
 20
621.498036
 42
-0.021843
  0
VERTEX
  8
0
 10
972.073592
 20
520.689576
 42
-0.020929
  0
VERTEX
  8
0
 10
1035.361888
 20
408.217250
 42
-0.021895
  0
VERTEX
  8
0
 10
1087.999720
 20
292.500000
 42
-0.004046
  0
VERTEX
  8
0
 10
1094.942578
 20
274.863491
 42
-0.004139
  0
VERTEX
  8
0
 10
1101.545790
 20
257.249128
 42
-0.000606
  0
VERTEX
  8
0
 10
1107.735484
 20
240.248719
 42
-0.291173
  0
VERTEX
  8
0
 10
1107.493534
 20
239.160201
 42
-0.203896
  0
VERTEX
  8
0
 10
1104.009330
 20
237.755940
 42
-0.001436
  0
VERTEX
  8
0
 10
1071.517884
 20
238.471792
 42
-0.006058
  0
VERTEX
  8
0
 10
1039.602801
 20
239.653765
 42
-0.010293
  0
VERTEX
  8
0
 10
1012.951466
 20
241.514899
 42
-0.030308
  0
VERTEX
  8
0
 10
911.987591
 20
256.867318
 42
-0.031706
  0
VERTEX
  8
0
 10
815.168643
 20
284.173438
 42
-0.031701
  0
VERTEX
  8
0
 10
722.563074
 20
323.508266
 42
-0.030273
  0
VERTEX
  8
0
 10
634.177590
 20
374.770524
 42
-0.012719
  0
VERTEX
  8
0
 10
599.809358
 20
398.869873
 42
-0.013150
  0
VERTEX
  8
0
 10
567.099035
 20
424.428531
 42
-0.012865
  0
VERTEX
  8
0
 10
535.126225
 20
452.206143
 42
-0.011093
  0
VERTEX
  8
0
 10
502.968154
 20
482.968154
 42
-0.007482
  0
VERTEX
  8
0
 10
478.794222
 20
507.876612
 42
-0.010298
  0
VERTEX
  8
0
 10
457.880427
 20
531.018090
 42
-0.010310
  0
VERTEX
  8
0
 10
437.956522
 20
554.979174
 42
-0.007528
  0
VERTEX
  8
0
 10
416.785397
 20
582.371561
 42
-0.007838
  0
VERTEX
  8
0
 10
404.738371
 20
598.990009
 42
-0.003129
  0
VERTEX
  8
0
 10
388.734311
 20
622.118037
 42
-0.000506
  0
VERTEX
  8
0
 10
371.719286
 20
647.093225
 42
-0.150378
  0
VERTEX
  8
0
 10
371.000000
 20
649.430745
 42
-0.622889
  0
VERTEX
  8
0
 10
371.211552
 20
649.534673
 42
-0.005657
  0
VERTEX
  8
0
 10
372.982813
 20
648.134738
 42
-0.010205
  0
VERTEX
  8
0
 10
375.160264
 20
646.298614
 42
-0.005628
  0
VERTEX
  8
0
 10
377.750000
 20
643.970618
 42
0.038560
  0
VERTEX
  8
0
 10
391.309463
 20
633.307323
 42
0.018232
  0
VERTEX
  8
0
 10
410.258909
 20
621.614653
 42
0.017823
  0
VERTEX
  8
0
 10
431.283528
 20
610.648770
 42
0.022450
  0
VERTEX
  8
0
 10
451.500000
 20
602.096069
 42
0.038156
  0
VERTEX
  8
0
 10
507.240273
 20
586.124700
 42
0.041021
  0
VERTEX
  8
0
 10
563.421181
 20
579.305824
 42
0.044241
  0
VERTEX
  8
0
 10
615.331893
 20
581.884743
 42
0.069663
  0
VERTEX
  8
0
 10
658.184180
 20
594.075648
 42
-0.003452
  0
VERTEX
  8
0
 10
661.897868
 20
595.686911
 42
-0.004378
  0
VERTEX
  8
0
 10
665.350978
 20
597.121290
 42
-0.003466
  0
VERTEX
  8
0
 10
668.262501
 20
598.277482
 42
-0.035536
  0
VERTEX
  8
0
 10
669.500000
 20
598.660334
 42
-0.192595
  0
VERTEX
  8
0
 10
672.571383
 20
598.191310
 42
-0.003462
  0
VERTEX
  8
0
 10
687.095708
 20
589.504905
 42
-0.007219
  0
VERTEX
  8
0
 10
705.321923
 20
578.069038
 42
-0.003222
  0
VERTEX
  8
0
 10
729.000000
 20
562.514148
 42
-0.018007
  0
VERTEX
  8
0
 10
810.936931
 20
503.561475
 42
-0.017614
  0
VERTEX
  8
0
 10
889.042249
 20
438.449539
 42
-0.018517
  0
VERTEX
  8
0
 10
957.267987
 20
372.665977
 42
-0.030867
  0
VERTEX
  8
0
 10
1008.958275
 20
311.900948
 42
-0.004610
  0
VERTEX
  8
0
 10
1013.868672
 20
305.221692
 42
-0.003865
  0
VERTEX
  8
0
 10
1018.955641
 20
298.050677
 42
-0.003901
  0
VERTEX
  8
0
 10
1023.502431
 20
291.425455
 42
-0.010699
  0
VERTEX
  8
0
 10
1026.574658
 20
286.656141
 42
0.011826
  0
VERTEX
  8
0
 10
1030.143382
 20
281.143387
 42
0.044296
  0
VERTEX
  8
0
 10
1032.756025
 20
277.956481
 42
0.190157
  0
VERTEX
  8
0
 10
1034.214206
 20
277.305765
 42
0.427132
  0
VERTEX
  8
0
 10
1035.000000
 20
278.057795
 42
0.126181
  0
VERTEX
  8
0
 10
1034.816530
 20
278.773229
 42
0.003346
  0
VERTEX
  8
0
 10
1033.210964
 20
281.651948
 42
0.006809
  0
VERTEX
  8
0
 10
1031.243438
 20
285.017123
 42
0.004583
  0
VERTEX
  8
0
 10
1028.909663
 20
288.807795
 42
0.048502
  0
VERTEX
  8
0
 10
974.431745
 20
359.299755
 42
0.021606
  0
VERTEX
  8
0
 10
890.302179
 20
441.321719
 42
0.020917
  0
VERTEX
  8
0
 10
791.799120
 20
522.236593
 42
0.024265
  0
VERTEX
  8
0
 10
691.500000
 20
590.462996
 42
-0.000971
  0
VERTEX
  8
0
 10
685.311537
 20
594.263612
 42
-0.001494
  0
VERTEX
  8
0
 10
679.971684
 20
597.579430
 42
-0.000476
  0
VERTEX
  8
0
 10
675.356251
 20
600.470667
 42
-0.043875
  0
VERTEX
  8
0
 10
674.722754
 20
600.950528
 42
-0.468569
  0
VERTEX
  8
0
 10
674.742891
 20
601.434968
 42
-0.006378
  0
VERTEX
  8
0
 10
677.441897
 20
603.445000
 42
-0.012455
  0
VERTEX
  8
0
 10
680.859831
 20
605.795682
 42
-0.007242
  0
VERTEX
  8
0
 10
685.070865
 20
608.453801
 42
0.019319
  0
VERTEX
  8
0
 10
710.166836
 20
625.155858
 42
0.012842
  0
VERTEX
  8
0
 10
737.658745
 20
646.121730
 42
0.011689
  0
VERTEX
  8
0
 10
766.946268
 20
670.819750
 42
0.009224
  0
VERTEX
  8
0
 10
797.500000
 20
698.853561
 42
-0.001244
  0
VERTEX
  8
0
 10
805.210083
 20
706.157777
 42
-0.002024
  0
VERTEX
  8
0
 10
811.797504
 20
712.317228
 42
-0.000265
  0
VERTEX
  8
0
 10
817.679242
 20
717.766589
 42
-0.165977
  0
VERTEX
  8
0
 10
818.087249
 20
717.947705
 42
-0.219026
  0
VERTEX
  8
0
 10
818.488118
 20
717.804808
 42
-0.000485
  0
VERTEX
  8
0
 10
823.181681
 20
713.211201
 42
-0.003052
  0
VERTEX
  8
0
 10
828.455333
 20
707.976322
 42
-0.001876
  0
SEQEND
  0
POLYLINE
  8
0
 66
1
 70
1
  0
VERTEX
  8
0
 10
1419.888519
 20
702.202521
 42
0.008439
  0
VERTEX
  8
0
 10
1453.187783
 20
671.588463
 42
0.012272
  0
VERTEX
  8
0
 10
1483.652464
 20
645.824603
 42
0.013867
  0
VERTEX
  8
0
 10
1511.848589
 20
624.402467
 42
0.019428
  0
VERTEX
  8
0
 10
1538.250000
 20
606.986747
 42
-0.002037
  0
VERTEX
  8
0
 10
1541.604761
 20
604.937523
 42
-0.003330
  0
VERTEX
  8
0
 10
1544.429688
 20
603.170027
 42
-0.000522
  0
VERTEX
  8
0
 10
1546.912831
 20
601.589630
 42
-0.256131
  0
VERTEX
  8
0
 10
1547.000000
 20
601.430627
 42
-0.257772
  0
VERTEX
  8
0
 10
1546.911069
 20
601.269590
 42
-0.000174
  0
VERTEX
  8
0
 10
1542.520313
 20
598.508675
 42
-0.001918
  0
VERTEX
  8
0
 10
1537.597191
 20
595.441669
 42
-0.001163
  0
VERTEX
  8
0
 10
1531.750000
 20
591.848800
 42
0.011159
  0
VERTEX
  8
0
 10
1488.596386
 20
564.129250
 42
0.009171
  0
VERTEX
  8
0
 10
1443.761434
 20
532.684096
 42
0.009006
  0
VERTEX
  8
0
 10
1399.173424
 20
498.929596
 42
0.009578
  0
VERTEX
  8
0
 10
1356.751160
 20
464.261335
 42
0.010239
  0
VERTEX
  8
0
 10
1319.162221
 20
430.973655
 42
0.009620
  0
VERTEX
  8
0
 10
1282.162061
 20
395.488346
 42
0.010024
  0
VERTEX
  8
0
 10
1248.675678
 20
360.747036
 42
0.016374
  0
VERTEX
  8
0
 10
1221.878790
 20
329.835235
 42
0.010798
  0
VERTEX
  8
0
 10
1210.329584
 20
314.950338
 42
0.008182
  0
VERTEX
  8
0
 10
1198.286726
 20
298.149477
 42
0.003316
  0
VERTEX
  8
0
 10
1187.179400
 20
281.876123
 42
0.149163
  0
VERTEX
  8
0
 10
1186.000000
 20
278.010686
 42
0.393779
  0
VERTEX
  8
0
 10
1186.724134
 20
277.233792
 42
0.210752
  0
VERTEX
  8
0
 10
1188.063209
 20
277.715253
 42
0.051760
  0
VERTEX
  8
0
 10
1190.369918
 20
280.416439
 42
0.015870
  0
VERTEX
  8
0
 10
1193.276087
 20
284.934286
 42
-0.015332
  0
VERTEX
  8
0
 10
1198.774060
 20
293.501505
 42
-0.006639
  0
VERTEX
  8
0
 10
1206.585813
 20
304.572217
 42
-0.006331
  0
VERTEX
  8
0
 10
1215.577755
 20
316.638501
 42
-0.006357
  0
VERTEX
  8
0
 10
1224.860339
 20
328.456673
 42
-0.029922
  0
VERTEX
  8
0
 10
1284.740463
 20
394.254477
 42
-0.017948
  0
VERTEX
  8
0
 10
1363.025917
 20
465.268084
 42
-0.017538
  0
VERTEX
  8
0
 10
1449.562901
 20
533.232825
 42
-0.021685
  0
VERTEX
  8
0
 10
1534.885044
 20
590.031171
 42
-0.002972
  0
VERTEX
  8
0
 10
1544.034446
 20
595.490992
 42
-0.025924
  0
VERTEX
  8
0
 10
1548.229634
 20
597.676328
 42
-0.064484
  0
VERTEX
  8
0
 10
1550.833590
 20
598.480722
 42
-0.141968
  0
VERTEX
  8
0
 10
1552.885044
 20
598.251596
 42
-0.001055
  0
VERTEX
  8
0
 10
1554.436965
 20
597.603869
 42
-0.000156
  0
VERTEX
  8
0
 10
1557.569176
 20
596.287660
 42
-0.000176
  0
VERTEX
  8
0
 10
1561.269174
 20
594.729968
 42
-0.000151
  0
VERTEX
  8
0
 10
1565.158959
 20
593.089380
 42
0.020894
  0
VERTEX
  8
0
 10
1574.689350
 20
589.527646
 42
0.014321
  0
VERTEX
  8
0
 10
1585.764685
 20
586.255998
 42
0.013710
  0
VERTEX
  8
0
 10
1597.640901
 20
583.460558
 42
0.013872
  0
VERTEX
  8
0
 10
1609.606092
 20
581.332508
 42
0.027627
  0
VERTEX
  8
0
 10
1624.798402
 20
579.915075
 42
0.009603
  0
VERTEX
  8
0
 10
1646.795069
 20
579.506219
 42
0.009751
  0
VERTEX
  8
0
 10
1669.067039
 20
579.954434
 42
0.023445
  0
VERTEX
  8
0
 10
1685.500000
 20
581.379539
 42
0.023997
  0
VERTEX
  8
0
 10
1724.590132
 20
588.548202
 42
0.026587
  0
VERTEX
  8
0
 10
1761.471528
 20
599.254286
 42
0.027969
  0
VERTEX
  8
0
 10
1795.168421
 20
613.168786
 42
0.034509
  0
VERTEX
  8
0
 10
1824.714458
 20
629.949393
 42
0.008677
  0
VERTEX
  8
0
 10
1829.721173
 20
633.395752
 42
0.006850
  0
VERTEX
  8
0
 10
1835.020810
 20
637.291675
 42
0.006933
  0
VERTEX
  8
0
 10
1839.842980
 20
641.045654
 42
0.017034
  0
VERTEX
  8
0
 10
1843.250000
 20
643.970618
 42
-0.005775
  0
VERTEX
  8
0
 10
1845.839775
 20
646.297273
 42
-0.010495
  0
VERTEX
  8
0
 10
1848.017188
 20
648.129023
 42
-0.005980
  0
VERTEX
  8
0
 10
1849.783388
 20
649.518110
 42
-0.621835
  0
VERTEX
  8
0
 10
1850.000000
 20
649.411287
 42
-0.150475
  0
VERTEX
  8
0
 10
1849.289406
 20
647.103587
 42
-0.000492
  0
VERTEX
  8
0
 10
1832.230487
 20
622.082988
 42
-0.003083
  0
VERTEX
  8
0
 10
1816.203562
 20
598.933396
 42
-0.007766
  0
VERTEX
  8
0
 10
1804.168300
 20
582.331044
 42
-0.015202
  0
VERTEX
  8
0
 10
1768.555573
 20
537.672800
 42
-0.015139
  0
VERTEX
  8
0
 10
1730.247586
 20
495.197811
 42
-0.015385
  0
VERTEX
  8
0
 10
1690.106600
 20
455.812914
 42
-0.017141
  0
VERTEX
  8
0
 10
1649.000000
 20
420.420244
 42
-0.035270
  0
VERTEX
  8
0
 10
1548.472433
 20
350.748486
 42
-0.037545
  0
VERTEX
  8
0
 10
1441.171248
 20
297.521087
 42
-0.037692
  0
VERTEX
  8
0
 10
1327.514076
 20
261.103111
 42
-0.036123
  0
VERTEX
  8
0
 10
1208.048534
 20
241.514899
 42
-0.010293
  0
VERTEX
  8
0
 10
1181.397199
 20
239.653765
 42
-0.006058
  0
VERTEX
  8
0
 10
1149.482116
 20
238.471792
 42
-0.001436
  0
VERTEX
  8
0
 10
1116.990670
 20
237.755940
 42
-0.203896
  0
VERTEX
  8
0
 10
1113.506466
 20
239.160201
 42
-0.281346
  0
VERTEX
  8
0
 10
1113.393687
 20
239.627352
 42
-0.001281
  0
VERTEX
  8
0
 10
1115.021521
 20
244.636800
 42
-0.005386
  0
VERTEX
  8
0
 10
1116.970306
 20
250.372591
 42
-0.003313
  0
VERTEX
  8
0
 10
1119.382238
 20
257.085802
 42
-0.022685
  0
VERTEX
  8
0
 10
1165.605547
 20
367.364042
 42
-0.019844
  0
VERTEX
  8
0
 10
1223.562405
 20
478.160182
 42
-0.020215
  0
VERTEX
  8
0
 10
1288.644853
 20
581.494906
 42
-0.027045
  0
VERTEX
  8
0
 10
1356.261642
 20
669.239681
 42
-0.009683
  0
VERTEX
  8
0
 10
1366.935353
 20
681.166668
 42
-0.003099
  0
VERTEX
  8
0
 10
1383.247519
 20
698.482389
 42
-0.000406
  0
VERTEX
  8
0
 10
1401.290107
 20
717.367955
 42
-0.204639
  0
VERTEX
  8
0
 10
1402.769730
 20
718.000000
 42
-0.188179
  0
VERTEX
  8
0
 10
1403.121561
 20
717.862725
 42
-0.000316
  0
VERTEX
  8
0
 10
1408.007638
 20
713.359490
 42
-0.002324
  0
VERTEX
  8
0
 10
1413.483282
 20
708.259147
 42
-0.001428
  0
SEQEND
  0
POLYLINE
  8
0
 66
1
 70
1
  0
VERTEX
  8
0
 10
836.547277
 20
1318.910414
 42
0.016599
  0
VERTEX
  8
0
 10
837.155443
 20
1317.987415
 42
0.001044
  0
VERTEX
  8
0
 10
839.041640
 20
1315.333538
 42
0.001538
  0
VERTEX
  8
0
 10
841.305866
 20
1312.182371
 42
0.001142
  0
VERTEX
  8
0
 10
843.826021
 20
1308.714398
 42
0.000000
  0
VERTEX
  8
0
 10
850.241173
 20
1299.928796
 42
0.000000
  0
VERTEX
  8
0
 10
847.711351
 20
1294.214398
 42
0.027828
  0
VERTEX
  8
0
 10
843.547174
 20
1283.189226
 42
0.015894
  0
VERTEX
  8
0
 10
839.698402
 20
1269.480464
 42
0.015570
  0
VERTEX
  8
0
 10
836.846478
 20
1256.151362
 42
0.044942
  0
VERTEX
  8
0
 10
836.000000
 20
1246.752879
 42
0.042072
  0
VERTEX
  8
0
 10
836.506636
 20
1240.742422
 42
0.021681
  0
VERTEX
  8
0
 10
838.092943
 20
1233.355835
 42
0.021679
  0
VERTEX
  8
0
 10
840.317713
 20
1226.118880
 42
0.041223
  0
VERTEX
  8
0
 10
842.822293
 20
1220.570153
 42
0.027286
  0
VERTEX
  8
0
 10
844.486369
 20
1217.921557
 42
0.047794
  0
VERTEX
  8
0
 10
846.174810
 20
1215.961278
 42
0.046521
  0
VERTEX
  8
0
 10
848.237196
 20
1214.323069
 42
0.024406
  0
VERTEX
  8
0
 10
851.067207
 20
1212.666835
 42
0.024913
  0
VERTEX
  8
0
 10
854.698544
 20
1210.997570
 42
0.063471
  0
VERTEX
  8
0
 10
857.498950
 20
1210.269698
 42
0.036781
  0
VERTEX
  8
0
 10
861.166437
 20
1210.071495
 42
0.004147
  0
VERTEX
  8
0
 10
869.500000
 20
1210.303483
 42
0.028953
  0
VERTEX
  8
0
 10
882.726010
 20
1211.550584
 42
0.038039
  0
VERTEX
  8
0
 10
894.534762
 20
1214.289928
 42
0.040076
  0
VERTEX
  8
0
 10
905.287353
 20
1218.635785
 42
0.038638
  0
VERTEX
  8
0
 10
915.348580
 20
1224.686526
 42
-0.016279
  0
VERTEX
  8
0
 10
917.289686
 20
1225.975339
 42
-0.022681
  0
VERTEX
  8
0
 10
919.111120
 20
1226.989915
 42
-0.020176
  0
VERTEX
  8
0
 10
920.644462
 20
1227.679299
 42
-0.192451
  0
VERTEX
  8
0
 10
921.348580
 20
1227.680649
 42
-0.036546
  0
VERTEX
  8
0
 10
922.181617
 20
1227.276813
 42
-0.000548
  0
VERTEX
  8
0
 10
926.861770
 20
1224.562547
 42
-0.001481
  0
VERTEX
  8
0
 10
932.284894
 20
1221.387920
 42
-0.000978
  0
VERTEX
  8
0
 10
938.500000
 20
1217.708520
 42
0.004785
  0
VERTEX
  8
0
 10
944.659646
 20
1214.125010
 42
0.008083
  0
VERTEX
  8
0
 10
949.898245
 20
1211.255166
 42
0.002653
  0
VERTEX
  8
0
 10
954.380272
 20
1208.923471
 42
0.450078
  0
VERTEX
  8
0
 10
954.834451
 20
1209.100383
 42
0.210895
  0
VERTEX
  8
0
 10
954.731594
 20
1210.752387
 42
0.001450
  0
VERTEX
  8
0
 10
948.018855
 20
1223.621820
 42
0.006171
  0
VERTEX
  8
0
 10
941.295273
 20
1236.046470
 42
0.011401
  0
VERTEX
  8
0
 10
935.479900
 20
1245.945273
 42
0.018253
  0
VERTEX
  8
0
 10
929.336492
 20
1255.111362
 42
0.006314
  0
VERTEX
  8
0
 10
919.825417
 20
1267.896485
 42
0.006468
  0
VERTEX
  8
0
 10
909.660891
 20
1280.854728
 42
0.012408
  0
VERTEX
  8
0
 10
901.121681
 20
1290.933170
 42
0.033063
  0
VERTEX
  8
0
 10
892.269337
 20
1299.637547
 42
0.037713
  0
VERTEX
  8
0
 10
882.708784
 20
1306.688852
 42
0.037475
  0
VERTEX
  8
0
 10
872.143337
 20
1312.259018
 42
0.031916
  0
VERTEX
  8
0
 10
860.288320
 20
1316.538776
 42
0.022905
  0
VERTEX
  8
0
 10
852.165933
 20
1318.499228
 42
0.022871
  0
VERTEX
  8
0
 10
843.894157
 20
1319.709637
 42
0.020540
  0
VERTEX
  8
0
 10
837.227458
 20
1320.100028
 42
0.591852
  0
SEQEND
  0
POLYLINE
  8
0
 66
1
 70
1
  0
VERTEX
  8
0
 10
878.630662
 20
1289.152587
 42
-0.063650
  0
VERTEX
  8
0
 10
888.092534
 20
1280.266240
 42
-0.031058
  0
VERTEX
  8
0
 10
897.832387
 20
1266.838183
 42
-0.030714
  0
VERTEX
  8
0
 10
905.632606
 20
1252.695531
 42
-0.085148
  0
VERTEX
  8
0
 10
908.681841
 20
1241.793725
 42
-0.041334
  0
VERTEX
  8
0
 10
908.765007
 20
1237.681915
 42
-0.248240
  0
VERTEX
  8
0
 10
907.685112
 20
1235.916767
 42
-0.111995
  0
VERTEX
  8
0
 10
905.014301
 20
1235.055191
 42
-0.006127
  0
VERTEX
  8
0
 10
896.167142
 20
1234.374966
 42
-0.024194
  0
VERTEX
  8
0
 10
887.059133
 20
1234.228300
 42
-0.015368
  0
VERTEX
  8
0
 10
876.469173
 20
1234.896469
 42
-0.015165
  0
VERTEX
  8
0
 10
866.493460
 20
1236.140575
 42
-0.042276
  0
VERTEX
  8
0
 10
859.643445
 20
1237.808922
 42
-0.018479
  0
VERTEX
  8
0
 10
856.825359
 20
1238.870810
 42
-0.080027
  0
VERTEX
  8
0
 10
855.312823
 20
1239.812842
 42
-0.105382
  0
VERTEX
  8
0
 10
854.386943
 20
1241.045897
 42
-0.044804
  0
VERTEX
  8
0
 10
853.685728
 20
1243.000000
 42
-0.064183
  0
VERTEX
  8
0
 10
853.124539
 20
1247.402284
 42
-0.013073
  0
VERTEX
  8
0
 10
853.341394
 20
1255.274290
 42
-0.014581
  0
VERTEX
  8
0
 10
854.024192
 20
1263.497353
 42
-0.029966
  0
VERTEX
  8
0
 10
855.129139
 20
1269.861053
 42
-0.034875
  0
VERTEX
  8
0
 10
857.008501
 20
1275.903246
 42
-0.031436
  0
VERTEX
  8
0
 10
859.764151
 20
1281.846972
 42
-0.032686
  0
VERTEX
  8
0
 10
862.900138
 20
1286.823210
 42
-0.088033
  0
VERTEX
  8
0
 10
865.897883
 20
1289.715581
 42
-0.058979
  0
VERTEX
  8
0
 10
869.158789
 20
1291.388762
 42
-0.100446
  0
VERTEX
  8
0
 10
872.173858
 20
1291.863068
 42
-0.095918
  0
VERTEX
  8
0
 10
875.231654
 20
1291.129543
 42
-0.050098
  0
SEQEND
  0
POLYLINE
  8
0
 66
1
 70
1
  0
VERTEX
  8
0
 10
725.799867
 20
1294.459615
 42
0.010431
  0
VERTEX
  8
0
 10
722.843222
 20
1292.840875
 42
0.117128
  0
VERTEX
  8
0
 10
721.874575
 20
1291.929450
 42
0.193747
  0
VERTEX
  8
0
 10
721.659291
 20
1290.866765
 42
0.038158
  0
VERTEX
  8
0
 10
722.168001
 20
1288.947918
 42
0.030386
  0
VERTEX
  8
0
 10
725.687833
 20
1280.533328
 42
0.010824
  0
VERTEX
  8
0
 10
731.690274
 20
1268.963782
 42
0.010324
  0
VERTEX
  8
0
 10
738.074400
 20
1257.836400
 42
0.040526
  0
VERTEX
  8
0
 10
742.684938
 20
1251.412730
 42
-0.014895
  0
VERTEX
  8
0
 10
748.295863
 20
1244.384871
 42
-0.019728
  0
VERTEX
  8
0
 10
752.948359
 20
1237.649804
 42
-0.020924
  0
VERTEX
  8
0
 10
756.329015
 20
1231.789258
 42
-0.080880
  0
VERTEX
  8
0
 10
757.645246
 20
1227.817046
 42
0.031999
  0
VERTEX
  8
0
 10
757.974072
 20
1226.363918
 42
0.038179
  0
VERTEX
  8
0
 10
758.472486
 20
1225.051080
 42
0.041787
  0
VERTEX
  8
0
 10
759.054339
 20
1224.041153
 42
0.150670
  0
VERTEX
  8
0
 10
759.631991
 20
1223.587724
 42
0.190272
  0
VERTEX
  8
0
 10
760.463404
 20
1223.595740
 42
0.023045
  0
VERTEX
  8
0
 10
762.156059
 20
1224.375662
 42
0.024745
  0
VERTEX
  8
0
 10
764.156794
 20
1225.540774
 42
0.017996
  0
VERTEX
  8
0
 10
766.264055
 20
1227.022385
 42
-0.057022
  0
VERTEX
  8
0
 10
772.650467
 20
1230.806181
 42
-0.030605
  0
VERTEX
  8
0
 10
781.235635
 20
1234.035275
 42
-0.030237
  0
VERTEX
  8
0
 10
790.417225
 20
1236.263778
 42
-0.044443
  0
VERTEX
  8
0
 10
798.683659
 20
1237.000000
 42
0.024216
  0
VERTEX
  8
0
 10
800.644875
 20
1237.095041
 42
0.172524
  0
VERTEX
  8
0
 10
801.492474
 20
1237.492552
 42
0.176394
  0
VERTEX
  8
0
 10
801.888617
 20
1238.330991
 42
0.025551
  0
VERTEX
  8
0
 10
801.967535
 20
1240.250000
 42
0.020030
  0
VERTEX
  8
0
 10
801.677243
 20
1246.045932
 42
0.002960
  0
VERTEX
  8
0
 10
800.552921
 20
1257.719451
 42
0.000591
  0
VERTEX
  8
0
 10
799.218293
 20
1270.616166
 42
0.171939
  0
VERTEX
  8
0
 10
798.763811
 20
1271.569522
 42
0.210567
  0
VERTEX
  8
0
 10
798.331547
 20
1271.737344
 42
0.007651
  0
VERTEX
  8
0
 10
796.527985
 20
1271.628921
 42
0.012849
  0
VERTEX
  8
0
 10
794.354871
 20
1271.408597
 42
0.008531
  0
VERTEX
  8
0
 10
791.874740
 20
1271.049480
 42
-0.029752
  0
VERTEX
  8
0
 10
783.351859
 20
1270.182521
 42
-0.013614
  0
VERTEX
  8
0
 10
772.168840
 20
1270.018558
 42
-0.012407
  0
VERTEX
  8
0
 10
761.424019
 20
1270.420366
 42
-0.056681
  0
VERTEX
  8
0
 10
755.280592
 20
1271.509314
 42
-0.036018
  0
VERTEX
  8
0
 10
752.484820
 20
1272.563813
 42
-0.045684
  0
VERTEX
  8
0
 10
750.096230
 20
1273.944099
 42
-0.037175
  0
VERTEX
  8
0
 10
747.652075
 20
1275.959726
 42
-0.014995
  0
VERTEX
  8
0
 10
744.618079
 20
1279.045804
 42
-0.016461
  0
VERTEX
  8
0
 10
742.242733
 20
1281.787195
 42
-0.011204
  0
VERTEX
  8
0
 10
739.716866
 20
1285.050793
 42
-0.011300
  0
VERTEX
  8
0
 10
737.418949
 20
1288.313196
 42
-0.022198
  0
VERTEX
  8
0
 10
735.768988
 20
1291.024625
 42
0.012291
  0
VERTEX
  8
0
 10
734.443846
 20
1293.302678
 42
0.018393
  0
VERTEX
  8
0
 10
733.166515
 20
1295.217782
 42
0.013649
  0
VERTEX
  8
0
 10
732.037121
 20
1296.696368
 42
0.235696
  0
VERTEX
  8
0
 10
731.500000
 20
1296.941573
 42
0.086543
  0
VERTEX
  8
0
 10
730.883986
 20
1296.811988
 42
0.007668
  0
VERTEX
  8
0
 10
729.413086
 20
1296.198186
 42
0.009838
  0
VERTEX
  8
0
 10
727.672954
 20
1295.399409
 42
0.007510
  0
SEQEND
  0
POLYLINE
  8
0
 66
1
 70
1
  0
VERTEX
  8
0
 10
1361.240860
 20
1256.005402
 42
0.062193
  0
VERTEX
  8
0
 10
1358.483027
 20
1253.812620
 42
0.051215
  0
VERTEX
  8
0
 10
1356.139624
 20
1250.869737
 42
0.053241
  0
VERTEX
  8
0
 10
1354.538778
 20
1247.668901
 42
0.089243
  0
VERTEX
  8
0
 10
1354.003738
 20
1244.717881
 42
0.128531
  0
VERTEX
  8
0
 10
1355.758383
 20
1237.967813
 42
0.129769
  0
VERTEX
  8
0
 10
1360.587481
 20
1232.968416
 42
0.129407
  0
VERTEX
  8
0
 10
1367.266586
 20
1230.995322
 42
0.127461
  0
VERTEX
  8
0
 10
1374.093882
 20
1232.548549
 42
0.145985
  0
VERTEX
  8
0
 10
1379.074204
 20
1237.350552
 42
0.131210
  0
VERTEX
  8
0
 10
1380.871392
 20
1244.308339
 42
0.130545
  0
VERTEX
  8
0
 10
1378.963285
 20
1251.262939
 42
0.143894
  0
VERTEX
  8
0
 10
1373.902227
 20
1256.049880
 42
0.045142
  0
VERTEX
  8
0
 10
1370.427641
 20
1257.443809
 42
0.073837
  0
VERTEX
  8
0
 10
1367.293548
 20
1257.897923
 42
0.078393
  0
VERTEX
  8
0
 10
1364.297146
 20
1257.414431
 42
0.057835
  0
SEQEND
  0
POLYLINE
  8
0
 66
1
 70
1
  0
VERTEX
  8
0
 10
872.314715
 20
1267.536343
 42
0.087869
  0
VERTEX
  8
0
 10
869.753355
 20
1265.837872
 42
0.072960
  0
VERTEX
  8
0
 10
867.734564
 20
1263.259696
 42
0.068331
  0
VERTEX
  8
0
 10
866.440613
 20
1260.040598
 42
0.061514
  0
VERTEX
  8
0
 10
866.000000
 20
1256.472737
 42
0.131611
  0
VERTEX
  8
0
 10
867.162308
 20
1252.133528
 42
0.103593
  0
VERTEX
  8
0
 10
870.419325
 20
1248.493221
 42
0.101250
  0
VERTEX
  8
0
 10
874.935601
 20
1246.407455
 42
0.119753
  0
VERTEX
  8
0
 10
879.628135
 20
1246.442804
 42
0.056561
  0
VERTEX
  8
0
 10
880.838682
 20
1246.896947
 42
0.024726
  0
VERTEX
  8
0
 10
882.327866
 20
1247.752271
 42
0.024087
  0
VERTEX
  8
0
 10
883.835813
 20
1248.826439
 42
0.029577
  0
VERTEX
  8
0
 10
885.128135
 20
1249.974289
 42
0.133716
  0
VERTEX
  8
0
 10
887.624108
 20
1254.338221
 42
0.115206
  0
VERTEX
  8
0
 10
887.752758
 20
1259.634302
 42
0.114164
  0
VERTEX
  8
0
 10
885.517409
 20
1264.476936
 42
0.129521
  0
VERTEX
  8
0
 10
881.465701
 20
1267.578778
 42
0.022191
  0
VERTEX
  8
0
 10
878.717825
 20
1268.586207
 42
0.078075
  0
VERTEX
  8
0
 10
876.861968
 20
1268.868963
 42
0.078747
  0
VERTEX
  8
0
 10
875.017234
 20
1268.567839
 42
0.022822
  0
SEQEND
  0
ENDSEC
  0
EOF
